{"glyphs":{"0":{"ha":610,"x_min":-32,"x_max":624,"o":"m 283 885 q 288 888 285 886 q 393 932 364 956 q 412 937 397 933 q 430 941 426 940 q 444 944 433 942 q 462 945 456 946 q 477 942 468 944 q 494 936 486 940 q 589 874 554 910 q 615 833 607 856 q 621 778 624 810 q 615 727 618 746 q 603 671 611 708 q 394 192 536 382 q 217 22 317 86 q 165 0 186 3 q 115 13 143 -3 q 25 75 46 53 q -1 276 -31 131 q 63 528 28 425 q 190 778 110 664 q 283 885 238 843 m 88 167 q 101 75 82 93 q 176 122 124 82 q 249 188 217 154 q 360 342 304 246 q 504 724 454 503 q 521 818 521 794 q 499 897 522 883 q 429 895 472 913 q 360 849 386 878 q 316 792 338 825 q 285 742 294 760 q 253 679 276 724 q 167 493 186 546 q 108 278 136 407 q 88 167 90 194 z "},"1":{"ha":396,"x_min":-17,"x_max":456,"o":"m 79 40 q -11 0 10 7 q 7 83 -17 22 q 25 135 14 101 q 40 182 36 168 q 128 407 78 286 q 213 587 154 472 q 290 743 272 701 q 277 738 288 744 q 255 722 267 732 q 242 711 243 713 q 172 700 200 686 q 140 728 160 707 q 128 758 121 749 q 133 763 129 763 q 142 763 138 764 q 150 760 146 763 q 158 756 154 758 q 165 754 163 754 q 180 756 172 754 q 198 763 188 757 q 213 771 208 768 q 231 782 218 774 q 244 792 243 790 q 319 849 288 819 q 342 876 326 856 q 368 904 357 897 q 425 901 396 922 q 450 850 454 879 q 419 783 446 832 q 379 701 401 749 q 206 313 275 479 q 122 94 175 239 q 106 61 115 72 q 79 40 97 50 z "},"2":{"ha":622,"x_min":-74,"x_max":660,"o":"m 93 92 q 47 48 65 74 q 36 0 28 22 q -49 90 -15 -4 q -18 258 -74 158 q 263 503 60 401 q 282 513 268 506 q 354 550 329 536 q 416 589 379 564 q 478 643 453 614 q 519 708 503 672 q 525 831 561 800 q 492 842 513 842 q 448 836 471 843 q 406 820 425 829 q 368 801 386 811 q 296 742 328 776 q 253 667 264 707 q 249 639 247 643 q 251 633 250 633 q 255 633 251 632 q 263 635 258 635 q 288 624 274 635 q 299 604 301 614 q 280 585 294 588 q 248 592 265 583 q 219 608 231 600 q 200 622 207 617 q 174 747 144 672 q 294 872 206 824 q 457 906 382 919 q 604 821 539 892 q 617 665 658 763 q 576 600 601 631 q 529 549 551 569 q 467 504 507 529 q 406 469 426 479 q 339 435 386 458 q 57 165 103 317 q 100 176 79 174 q 137 178 121 179 q 172 169 153 176 q 204 155 192 161 q 239 136 217 149 q 383 110 317 90 q 444 153 419 119 q 454 218 469 188 q 424 239 446 235 q 381 238 403 243 q 339 224 358 233 q 322 213 332 221 q 306 199 313 204 q 290 192 300 194 q 276 197 281 189 q 269 223 264 208 q 286 249 275 238 q 311 269 297 261 q 485 261 392 322 q 546 122 576 200 q 508 70 533 92 q 452 40 482 49 q 392 35 422 31 q 299 74 354 39 q 213 115 243 108 q 93 92 151 131 z "},"3":{"ha":724,"x_min":-99,"x_max":739,"o":"m 318 800 q 228 775 253 815 q 201 794 210 781 q 204 826 192 807 q 299 849 231 858 q 504 851 426 831 q 606 897 560 867 q 631 918 613 901 q 663 942 649 935 q 689 943 676 949 q 709 931 699 939 q 728 912 719 924 q 736 892 738 900 q 724 869 735 882 q 701 846 714 856 q 674 824 689 836 q 653 806 660 811 q 432 579 490 649 q 597 461 558 546 q 585 221 642 365 q 451 15 540 110 q 253 -121 361 -79 q 10 -100 118 -172 q -43 -62 -24 -78 q -81 -17 -62 -46 q -99 46 -99 13 q -65 153 -97 99 q 15 249 -33 208 q 222 251 117 331 q 242 160 272 213 q 136 85 204 96 q 92 96 106 81 q 93 140 78 111 q 127 176 100 151 q 160 221 154 201 q 36 129 94 214 q -7 -22 -22 42 q 56 -72 4 -67 q 263 -15 157 -85 q 438 156 368 54 q 526 396 521 279 q 501 503 529 476 q 406 503 476 526 q 340 471 382 494 q 294 446 299 447 q 276 440 285 440 q 260 442 268 439 q 247 450 253 446 q 234 461 242 454 q 221 471 226 468 q 206 492 206 482 q 212 509 206 503 q 238 532 218 515 q 288 586 256 549 q 324 628 319 624 q 444 742 381 690 q 452 747 447 743 q 460 754 457 751 q 467 760 464 757 q 471 768 471 764 q 467 775 471 772 q 425 781 461 779 q 318 800 397 782 z "},"4":{"ha":707,"x_min":-26,"x_max":728,"o":"m 668 439 q 717 349 726 399 q 664 285 710 310 q 565 257 635 265 q 532 256 549 256 q 524 249 528 253 q 514 231 518 242 q 506 207 510 221 q 500 189 501 193 q 478 124 489 158 q 415 35 458 60 q 325 0 346 -3 q 372 128 338 44 l 419 260 q 422 271 422 267 q 265 358 340 296 q 235 333 254 353 q 218 316 229 328 q 201 298 207 304 q 185 283 194 292 q 165 268 175 275 q 125 254 144 256 q 87 262 106 253 q 56 281 68 271 q 26 306 43 290 q -8 425 -26 354 q 18 477 -1 454 q 67 508 38 500 q 110 510 89 514 q 218 460 154 507 l 542 872 q 550 885 549 883 q 604 943 579 931 q 681 967 618 950 q 686 928 722 979 l 689 929 l 476 642 q 453 608 467 628 q 427 569 440 589 q 404 536 414 550 q 343 453 371 486 q 324 431 343 451 q 299 400 304 410 q 378 347 342 367 q 425 326 401 335 q 446 333 439 326 l 475 414 q 544 622 504 515 q 568 682 557 654 q 572 694 569 686 q 577 707 575 701 q 583 719 579 713 q 590 731 586 726 q 594 740 592 733 q 613 735 607 736 q 627 731 618 733 q 640 726 636 728 q 657 724 643 726 q 678 719 671 722 q 685 711 686 715 q 660 633 675 685 q 640 567 646 581 q 612 497 633 549 q 578 410 590 446 q 558 339 565 374 q 608 365 589 343 q 626 417 626 386 q 626 427 626 418 q 626 442 625 436 q 631 453 626 449 q 668 439 639 460 m 79 328 q 189 426 124 351 q 181 438 186 433 q 168 443 175 440 q 111 428 140 447 q 78 382 85 413 q 79 328 71 351 z "},"5":{"ha":725,"x_min":-136,"x_max":739,"o":"m 726 897 q 735 869 739 883 q 714 842 732 856 q 679 820 696 829 q 649 807 663 811 q 467 863 564 779 q 396 721 438 815 q 391 709 396 719 q 383 692 386 699 q 378 676 381 685 q 376 663 375 667 q 381 653 378 656 q 394 652 385 651 q 406 653 403 653 q 512 603 464 649 q 571 500 560 558 q 357 65 604 322 q 140 -72 246 -50 q -54 -4 38 -94 q -51 190 -135 75 q 45 291 -11 246 q 149 331 101 336 q 167 326 158 329 q 184 314 175 322 q 197 302 193 306 q 211 286 200 299 q 222 274 222 274 q 218 190 253 239 q 131 140 160 108 q 125 155 124 151 q 135 172 126 158 q 161 236 160 214 q 36 136 92 204 q -11 21 -24 63 q 153 39 4 -33 q 332 189 240 82 q 475 443 438 315 q 492 553 497 517 q 410 590 486 599 q 347 575 369 586 q 323 555 335 569 q 308 536 311 540 q 289 526 299 528 q 267 531 279 525 q 249 543 256 538 q 231 559 242 549 q 217 572 219 569 q 210 614 197 588 q 243 681 214 624 q 299 783 271 733 q 349 871 326 835 q 404 940 385 926 q 418 945 411 944 q 431 944 425 946 q 442 939 436 943 q 452 931 449 935 q 461 920 456 926 q 468 911 467 914 q 590 888 510 868 q 642 919 629 897 q 648 933 643 922 q 657 947 653 943 q 669 949 661 950 q 690 938 681 946 q 710 915 700 929 q 726 897 721 901 z "},"6":{"ha":615,"x_min":-15,"x_max":638,"o":"m 619 869 q 615 799 638 835 q 551 735 592 764 q 547 738 550 736 q 537 744 540 742 q 528 752 533 747 q 521 762 522 757 q 520 773 519 767 q 525 786 521 779 q 539 805 528 790 q 556 831 550 819 q 563 851 563 842 q 426 810 561 897 q 410 799 417 803 q 133 422 229 669 q 72 168 81 288 q 81 79 68 99 q 104 67 88 68 q 131 69 121 67 q 161 81 140 72 q 321 197 250 114 q 399 368 392 281 q 399 392 399 383 q 395 409 399 400 q 383 417 392 418 q 360 413 375 415 q 254 328 304 392 q 175 207 197 256 q 178 115 150 156 q 134 140 153 115 q 113 193 115 165 q 146 343 104 254 q 239 462 175 408 q 363 501 303 515 q 453 425 400 493 q 482 303 492 378 q 426 166 474 232 q 311 50 379 100 q 165 -12 229 -8 q 104 0 131 -15 q 46 46 78 15 q -1 122 13 76 q -14 208 -15 167 q -1 307 -12 250 q 94 590 24 454 q 276 824 165 725 q 531 947 443 974 q 582 917 557 939 q 619 869 607 894 z "},"7":{"ha":583,"x_min":-22,"x_max":726,"o":"m 396 653 q 450 713 421 682 q 518 780 479 743 q 575 836 557 817 q 492 800 540 829 q 398 748 443 771 q 314 729 353 725 q 208 804 264 735 q 224 922 161 863 q 281 949 254 953 q 298 942 289 947 q 313 927 307 936 q 318 910 318 918 q 298 881 317 897 q 276 860 279 864 q 265 835 268 849 q 269 814 263 822 q 278 809 272 810 q 292 810 285 808 q 306 815 299 813 q 321 823 313 818 q 335 831 329 828 q 348 838 340 833 q 357 844 356 843 q 507 918 458 904 q 685 903 586 940 q 722 863 726 888 q 717 849 721 857 q 705 835 713 842 q 690 822 697 828 q 675 809 683 815 q 663 799 667 803 q 518 636 613 751 q 374 460 397 489 q 132 92 229 276 q 115 62 119 71 q 103 36 111 53 q 89 6 94 19 q 86 -3 89 4 q 82 -13 83 -10 q 77 -24 81 -17 q 71 -35 74 -31 q 64 -43 68 -39 q 56 -49 60 -47 q 46 -51 51 -51 q 31 -44 39 -51 q 13 -26 22 -37 q 3 -12 4 -14 q -6 50 -21 11 q 104 253 21 113 q 242 458 165 354 q 396 653 315 558 z "},"8":{"ha":604,"x_min":-87,"x_max":669,"o":"m 194 558 q 310 628 239 588 q 302 642 308 636 q 285 654 296 649 q 271 664 275 660 q 239 726 247 685 q 276 875 222 810 q 350 931 306 911 q 437 950 394 950 q 521 940 479 950 q 628 878 588 921 q 647 772 669 836 q 619 723 639 747 q 583 683 600 699 q 533 648 565 668 q 484 620 500 628 q 433 594 468 613 q 419 588 429 593 q 349 553 374 565 q 280 515 325 540 q 208 469 235 489 q 144 421 181 450 q 85 364 107 392 q 43 300 63 336 q 14 226 24 264 q 8 152 7 188 q 30 89 8 117 q 90 57 51 61 q 242 72 160 50 q 397 135 324 94 q 528 247 478 179 q 556 385 579 315 q 514 451 542 422 q 450 481 486 479 q 377 464 415 483 q 308 414 339 444 q 264 344 275 381 q 279 313 256 317 q 289 314 283 313 q 299 317 294 315 q 310 322 304 319 q 321 324 317 324 q 363 313 336 326 q 399 251 429 278 q 317 244 376 233 q 204 307 261 254 q 201 429 147 357 q 324 516 251 496 q 460 507 396 536 q 650 344 622 442 q 640 246 663 297 q 578 157 617 194 q 490 90 539 119 q 341 25 421 49 q 183 -1 261 1 q 39 29 106 -3 q -62 125 -28 61 q -85 208 -85 165 q -68 292 -86 251 q -23 369 -50 332 q 43 442 4 407 q 118 505 82 478 q 194 558 154 532 m 346 821 q 310 726 313 779 q 338 640 308 674 q 370 656 349 644 q 404 672 392 667 q 437 689 417 678 q 470 709 457 700 q 498 731 483 718 q 525 758 513 744 q 545 788 536 772 q 558 821 554 804 q 562 852 563 838 q 552 878 561 867 q 524 893 543 889 q 429 880 482 901 q 346 821 376 858 z "},"9":{"ha":639,"x_min":-22,"x_max":704,"o":"m 154 463 q 161 356 149 404 q 297 408 228 356 q 408 534 367 460 q 446 672 450 608 q 414 672 433 653 q 407 710 394 692 q 468 706 426 735 q 504 646 499 685 q 499 569 510 607 q 467 493 488 532 q 379 369 432 426 q 267 296 326 313 q 157 308 213 281 q 75 379 101 335 q 51 473 51 424 q 70 578 50 522 q 119 681 90 633 q 182 771 147 729 q 248 837 213 807 q 327 888 283 867 q 413 914 371 910 q 534 894 475 922 q 622 815 593 865 q 571 404 703 678 q 247 35 438 131 q 184 9 215 18 q 124 0 153 0 q 8 17 49 0 q -10 46 -22 29 q 0 53 -7 50 q 18 56 7 56 q 29 58 29 57 q 175 106 117 75 q 262 163 219 129 q 338 236 304 197 q 401 320 371 275 q 456 410 432 365 q 499 503 479 454 q 553 771 563 660 q 549 804 551 792 q 536 830 546 817 q 510 847 526 843 q 418 826 476 854 q 239 676 311 778 q 154 463 167 574 z "},"\u0000":{"ha":0,"x_min":0,"x_max":0,"o":""},"\n":{"ha":0,"x_min":0,"x_max":0,"o":""},"\r":{"ha":0,"x_min":0,"x_max":0,"o":""}," ":{"ha":386,"x_min":0,"x_max":0,"o":""},"!":{"ha":665,"x_min":86,"x_max":574,"o":"m 490 1146 q 522 1141 503 1149 q 557 1120 542 1133 q 574 1096 572 1107 q 568 1077 574 1089 q 554 1051 563 1065 q 544 1032 546 1038 q 517 972 535 1013 q 415 714 490 914 q 314 443 347 535 q 291 374 306 419 q 269 306 276 328 q 210 188 260 279 q 171 207 181 194 q 158 249 161 219 q 169 367 153 313 q 263 633 188 431 q 294 719 274 664 q 331 822 314 775 q 364 908 349 868 q 424 1046 374 935 q 431 1065 425 1049 q 442 1091 438 1082 q 455 1113 447 1100 q 472 1135 463 1126 q 490 1146 481 1143 m 140 161 q 168 149 143 160 q 208 128 193 139 q 225 107 222 118 q 213 47 229 90 q 183 0 197 4 q 133 19 169 -3 q 93 53 97 40 q 104 112 88 69 q 140 161 121 154 z "},"\"":{"ha":629,"x_min":147,"x_max":486,"o":"m 278 1121 q 304 1081 296 1107 q 312 1032 313 1054 q 307 990 311 1010 q 282 953 304 978 q 233 901 260 928 q 200 867 206 874 l 199 864 q 183 858 192 857 q 168 865 174 858 l 149 901 q 163 919 154 908 q 190 952 172 929 q 217 992 208 975 q 221 1011 226 1008 q 195 1031 207 1018 q 178 1069 183 1044 q 193 1121 172 1093 q 205 1129 197 1125 q 235 1135 213 1133 q 278 1121 258 1136 m 447 1121 q 479 1056 474 1101 q 476 990 485 1011 q 451 953 474 978 q 402 901 429 928 q 369 867 375 874 l 367 864 q 352 858 361 857 q 338 865 343 858 l 317 901 q 332 919 324 908 q 359 952 340 929 q 387 992 378 975 q 390 1011 396 1008 q 365 1031 376 1018 q 347 1069 353 1044 q 363 1121 342 1093 q 374 1129 367 1125 q 404 1135 382 1133 q 447 1121 426 1136 z "},"#":{"ha":1033,"x_min":88,"x_max":943,"o":"m 578 708 q 610 759 586 711 q 665 869 633 807 q 717 956 696 931 q 733 947 722 950 q 753 943 744 944 q 769 935 763 942 q 776 918 776 929 q 771 887 776 904 q 756 849 765 869 q 742 818 746 828 q 729 787 742 814 q 710 739 717 760 q 708 713 704 718 q 728 712 711 711 q 767 717 744 713 q 808 724 789 721 q 838 731 828 728 q 890 731 874 740 q 903 721 897 726 q 917 706 908 715 q 928 694 925 696 q 931 690 928 693 q 936 685 935 686 q 940 680 938 683 q 942 674 942 676 q 941 669 942 672 q 939 661 940 665 q 874 638 929 647 q 729 624 822 626 q 711 624 724 624 q 688 625 699 625 q 669 622 676 625 q 645 587 663 618 q 615 524 628 556 q 606 489 603 492 q 701 496 615 475 q 731 505 711 497 q 764 517 750 513 q 793 522 778 522 q 817 511 808 521 q 833 489 824 504 q 846 468 842 474 q 849 463 846 467 q 852 459 851 460 q 855 455 853 458 q 857 449 857 451 q 857 444 857 447 q 856 439 857 442 q 853 433 854 436 q 839 423 849 428 q 815 414 829 418 q 792 408 801 410 q 767 402 783 406 q 751 399 751 399 q 611 386 694 386 q 595 388 607 386 q 574 389 583 389 q 558 385 564 389 q 474 182 539 374 q 468 159 474 179 q 458 128 463 139 q 444 104 454 117 q 424 92 435 92 q 390 107 406 90 q 365 143 374 124 q 360 158 361 150 q 361 175 360 167 q 365 192 363 183 q 372 209 368 200 q 378 226 375 218 q 386 242 382 233 q 393 258 390 251 q 409 303 397 269 q 431 365 421 338 q 442 396 440 393 q 424 397 440 394 q 390 397 408 399 q 364 385 371 396 q 347 345 358 376 q 323 274 336 314 q 307 228 310 235 q 301 208 306 224 q 291 179 296 192 q 280 152 286 167 q 265 132 274 138 q 246 129 256 126 q 211 163 236 133 q 203 170 208 165 q 195 178 199 175 q 190 188 192 182 q 188 199 188 193 q 191 215 188 206 q 200 237 194 225 q 207 253 206 249 q 224 297 208 258 q 249 362 239 335 q 258 394 258 389 q 250 405 258 404 q 232 404 242 406 q 160 397 188 404 q 131 392 144 392 q 108 404 117 392 q 93 440 88 431 q 157 476 101 457 q 243 490 185 485 q 259 491 244 490 q 283 494 274 492 q 299 501 293 496 q 317 535 304 506 q 347 608 329 564 q 365 654 364 651 q 235 647 303 668 q 199 631 228 646 q 155 617 171 617 q 132 640 139 618 q 186 701 122 669 q 313 729 235 726 q 344 730 324 731 q 374 729 364 729 q 383 730 379 729 q 389 733 386 731 q 394 738 392 736 q 398 743 396 739 q 401 749 400 747 q 403 756 401 750 q 407 764 406 761 q 431 819 415 783 q 451 864 447 854 q 489 942 475 918 q 507 963 500 960 q 529 956 514 965 q 556 923 550 938 q 556 878 563 908 q 501 718 532 786 q 542 711 514 715 q 578 708 571 707 m 546 632 q 471 642 542 636 q 452 599 471 640 q 424 531 433 558 q 418 500 414 504 q 426 495 419 497 q 444 492 433 493 q 457 492 456 492 q 496 507 483 488 q 519 548 506 519 q 541 602 532 576 q 546 632 550 628 z "},"$":{"ha":928,"x_min":78,"x_max":836,"o":"m 671 686 q 668 688 669 686 q 633 758 597 726 q 645 752 638 756 q 659 746 653 749 q 669 739 665 743 q 672 734 671 738 q 675 728 674 731 q 679 723 676 725 q 685 721 682 721 q 731 778 703 719 q 743 845 746 808 q 714 897 740 882 q 610 888 674 921 q 513 807 546 856 q 487 742 490 775 q 497 677 483 708 q 526 624 511 646 q 564 576 540 603 q 597 540 569 569 q 635 497 625 510 q 663 458 644 483 q 688 408 681 432 q 699 356 696 383 q 651 222 703 285 q 522 124 600 160 q 449 97 489 107 q 431 94 443 96 q 412 90 419 92 q 396 83 404 88 q 382 69 388 78 q 374 54 378 64 q 369 36 371 44 q 366 17 368 28 q 363 1 364 7 q 359 -10 361 -1 q 355 -26 357 -18 q 350 -41 353 -33 q 342 -55 347 -49 q 332 -62 338 -61 q 318 -64 329 -68 q 303 -58 307 -60 q 288 -49 299 -56 q 276 -43 278 -43 q 256 -21 258 -32 q 263 13 253 -10 q 271 29 265 18 q 280 49 276 40 q 286 67 283 58 q 287 74 288 71 q 286 80 286 78 q 283 85 286 82 q 279 88 281 88 q 274 90 278 89 q 267 92 269 92 q 261 94 265 93 q 254 94 257 94 q 153 138 199 110 q 94 210 107 167 q 130 324 79 265 q 249 414 181 383 q 381 426 324 447 q 413 413 399 419 q 444 394 426 406 q 469 368 461 383 q 475 335 478 353 q 433 268 471 300 q 357 229 394 236 q 330 229 347 226 q 310 242 313 232 q 326 269 308 250 q 350 304 335 279 q 364 323 351 306 q 382 353 376 340 q 383 372 388 365 q 343 367 378 382 q 226 290 269 335 q 188 231 201 264 q 185 169 175 197 q 308 139 200 125 q 453 180 383 149 q 568 267 524 211 q 551 517 657 381 q 498 576 536 536 q 435 649 460 615 q 401 721 411 683 q 428 853 385 789 q 549 946 472 917 q 611 961 579 958 q 635 968 629 963 q 644 992 640 974 q 647 1005 644 993 q 650 1022 649 1017 q 654 1035 651 1026 q 662 1051 657 1044 q 672 1063 667 1057 q 729 1060 689 1078 q 754 1033 751 1049 q 745 985 757 1017 q 731 943 733 954 q 731 935 729 940 q 731 928 732 931 q 734 923 731 926 q 738 918 738 919 q 744 914 739 917 q 750 910 749 911 q 756 908 751 910 q 763 904 761 906 q 815 860 794 889 q 835 794 836 833 q 811 719 835 754 q 747 671 785 683 q 671 686 715 660 z "},"%":{"ha":808,"x_min":89,"x_max":719,"o":"m 696 210 q 696 117 710 165 q 650 33 683 71 q 571 -25 617 -6 q 522 -37 544 -37 q 453 -6 486 -37 q 447 0 451 -4 q 413 39 421 24 q 397 90 403 54 q 397 92 397 92 q 397 93 397 93 q 364 71 386 88 q 342 56 350 61 q 308 38 331 49 q 268 14 279 22 q 258 0 264 11 q 231 -20 244 -21 q 190 14 218 -19 q 182 25 183 24 q 170 49 169 42 q 179 74 171 57 q 183 83 182 79 q 213 144 194 104 q 221 164 214 149 q 285 300 242 210 l 304 340 q 443 628 397 533 q 528 790 471 683 q 596 919 574 876 q 493 889 531 896 q 438 886 460 883 q 421 892 432 886 q 413 894 415 894 q 417 890 414 893 q 435 866 429 875 q 447 840 442 857 q 450 806 453 824 q 385 700 444 746 q 250 656 322 654 q 217 663 232 657 q 188 680 203 668 q 165 700 174 692 q 143 725 157 708 l 142 726 q 125 754 133 735 q 114 776 118 769 l 113 779 q 92 826 93 806 q 157 949 89 885 q 285 993 210 997 q 346 979 317 990 q 378 954 360 974 q 396 936 389 940 q 540 949 431 910 q 613 981 574 961 q 669 1025 646 999 l 674 1029 l 678 1026 q 681 1024 679 1026 q 715 988 713 1001 q 704 943 718 976 q 697 929 699 932 q 686 896 694 918 q 657 818 669 843 q 596 700 638 778 q 529 569 550 614 q 483 479 514 539 q 407 322 432 374 q 361 225 392 290 l 350 201 q 335 168 346 192 q 299 89 308 115 q 388 153 332 106 q 424 189 411 172 q 431 200 425 192 q 438 213 435 208 q 449 224 442 217 q 456 229 454 228 q 465 247 460 235 q 476 271 471 264 q 524 306 492 290 q 626 294 583 336 q 640 282 631 290 q 696 210 686 240 m 611 172 q 617 210 615 192 q 615 225 617 219 q 614 232 615 231 q 611 232 614 232 l 608 232 q 565 213 594 233 q 543 197 551 201 q 525 190 538 194 q 508 185 514 188 q 500 178 504 182 q 482 172 492 171 q 453 103 457 138 q 461 38 446 54 q 479 32 468 31 q 531 62 500 35 q 579 110 563 89 q 611 172 601 139 m 272 738 q 348 781 315 751 q 383 853 381 811 q 364 918 386 886 q 303 926 346 947 q 225 869 257 906 q 185 792 193 833 q 185 779 185 788 q 194 731 181 739 q 272 738 213 719 z "},"&":{"ha":1169,"x_min":-22,"x_max":1189,"o":"m 1186 678 q 1178 626 1188 651 q 1151 579 1169 600 q 1110 542 1133 558 q 1061 514 1088 525 q 813 513 958 469 q 838 483 818 506 q 865 452 858 461 q 885 423 871 443 q 906 389 900 403 q 917 353 911 375 q 922 311 922 332 q 818 88 925 190 q 599 -36 728 0 q 349 -55 471 -72 q 143 25 226 -37 q 22 178 61 85 q 11 374 -17 272 q 128 535 38 465 q 317 621 218 606 q 317 624 317 622 q 315 624 315 624 q 258 731 257 654 q 264 778 257 753 q 318 888 278 835 q 318 890 318 889 q 317 896 318 893 l 315 896 q 258 907 307 911 q 90 814 144 897 q 63 726 63 772 q 119 711 63 672 q 150 747 149 731 q 144 766 151 754 q 139 785 138 778 q 149 803 142 799 q 166 802 157 807 q 183 791 175 797 q 194 779 190 785 q 208 708 215 751 q 167 640 201 665 q 119 622 144 624 q 73 632 94 621 q 35 659 51 643 q 7 693 18 675 q -16 784 -22 736 q 17 873 -10 832 q 91 944 44 914 q 188 983 138 975 q 288 975 242 993 q 315 955 294 971 q 349 938 336 939 l 349 938 q 365 940 357 936 q 399 968 382 954 q 404 974 401 972 q 461 1010 426 992 q 576 1042 524 1042 q 628 1032 603 1040 q 674 1008 653 1024 q 710 973 694 993 q 736 931 726 953 q 738 851 754 888 q 679 763 722 814 q 628 679 651 731 q 608 655 619 658 q 589 658 596 651 l 582 664 l 393 828 q 346 739 368 818 q 338 671 332 703 q 378 625 344 639 q 399 619 385 622 q 422 611 413 615 q 440 600 432 607 q 454 580 449 592 q 455 557 460 568 q 432 544 450 546 q 402 548 422 543 q 369 551 382 553 q 308 533 347 547 q 210 483 250 511 q 113 356 142 436 q 103 199 85 275 q 179 85 122 124 q 390 26 264 28 q 624 75 517 24 q 788 204 718 118 q 849 378 858 290 q 786 476 842 444 q 659 493 731 507 q 538 428 588 479 q 506 355 496 386 q 574 338 517 324 q 624 364 603 344 q 633 374 626 367 q 644 383 639 381 q 657 385 649 386 q 672 369 669 383 q 668 342 674 356 q 656 318 663 328 q 596 272 632 285 q 526 267 560 260 q 468 297 492 275 q 431 394 428 338 q 476 503 433 451 q 572 578 518 550 q 678 606 625 607 q 793 584 713 604 q 924 569 874 564 q 1094 660 1051 583 q 1096 731 1122 706 q 1019 756 1069 757 q 911 717 951 753 q 892 697 899 707 q 885 677 885 688 q 899 663 885 667 q 939 675 914 658 q 975 689 964 692 q 991 660 996 682 q 969 624 986 638 q 872 611 919 589 q 813 681 825 633 q 833 769 800 728 q 917 826 865 810 q 1038 831 979 842 q 1139 777 1096 819 q 1186 678 1182 735 m 428 865 q 426 863 428 864 l 567 729 q 614 817 569 764 q 667 897 658 869 q 658 949 675 929 q 611 968 640 968 q 554 963 582 968 q 508 942 533 956 q 457 906 482 928 q 428 865 432 885 z "},"'":{"ha":340,"x_min":224,"x_max":390,"o":"m 297 1011 q 278 1024 288 1015 q 260 1047 268 1033 q 253 1081 251 1061 q 269 1121 256 1100 q 283 1129 275 1125 q 313 1135 290 1133 q 354 1121 335 1136 q 381 1081 372 1107 q 388 1032 389 1054 q 383 990 388 1010 q 359 953 381 978 q 310 901 338 928 q 278 867 283 874 l 275 864 q 259 858 268 857 q 246 865 250 858 l 225 901 q 240 919 231 908 q 267 952 249 929 q 294 992 285 975 q 297 1011 304 1008 z "},"(":{"ha":581,"x_min":78,"x_max":751,"o":"m 686 1189 q 750 1153 746 1182 q 742 1149 747 1150 q 731 1148 738 1147 q 722 1149 724 1149 q 686 1139 703 1147 q 615 1096 674 1135 q 474 999 508 1026 q 281 769 351 901 q 190 443 208 639 q 224 88 171 239 q 300 -47 243 33 q 350 -101 315 -71 q 353 -104 350 -101 q 358 -108 357 -107 q 362 -112 360 -110 q 363 -117 364 -115 q 358 -122 363 -119 q 322 -100 353 -125 q 206 21 257 -47 q 126 157 143 103 q 100 518 78 314 q 194 843 119 714 q 440 1108 283 997 q 492 1145 474 1133 q 543 1172 511 1157 q 604 1190 575 1186 q 686 1189 636 1194 z "},")":{"ha":600,"x_min":-150,"x_max":524,"o":"m -86 -119 q -150 -83 -146 -112 q -143 -79 -147 -81 q -135 -78 -139 -78 q -128 -78 -132 -78 q -121 -78 -124 -78 q -85 -69 -103 -76 q -14 -26 -72 -65 q 126 72 92 43 q 321 300 249 168 q 411 626 393 431 q 378 982 431 832 q 301 1118 358 1036 q 251 1171 285 1140 q 247 1174 250 1171 q 242 1178 243 1176 q 239 1183 240 1181 q 238 1187 238 1185 q 242 1192 239 1189 q 279 1169 249 1194 q 396 1049 344 1118 q 474 913 457 967 q 501 553 522 756 q 407 226 481 356 q 161 -39 318 72 q 108 -75 128 -62 q 58 -101 89 -87 q -3 -119 26 -115 q -86 -119 -36 -125 z "},"*":{"ha":703,"x_min":90,"x_max":611,"o":"m 606 950 q 610 935 610 939 q 603 924 610 931 q 554 906 592 913 q 478 890 544 903 q 432 882 446 885 q 437 872 433 879 q 442 863 440 865 q 506 761 490 782 q 512 754 507 760 q 519 744 517 749 q 525 735 522 740 q 526 727 528 731 q 516 722 524 724 q 494 725 508 721 q 463 736 481 729 q 443 743 446 743 q 374 808 410 754 q 343 683 349 714 q 342 674 343 682 q 341 660 342 665 q 338 649 340 656 q 331 642 335 642 q 322 644 328 642 q 311 660 317 647 q 299 691 306 674 q 292 713 293 708 q 297 822 279 743 q 233 751 281 806 q 226 743 232 750 q 215 731 219 736 q 204 720 211 726 q 191 710 197 714 q 179 708 185 707 q 163 714 172 708 q 150 721 153 719 q 144 722 147 721 q 133 728 135 725 q 132 739 131 731 q 163 783 135 753 q 222 846 169 790 q 236 859 225 847 q 253 876 247 871 q 169 861 233 874 q 159 859 168 861 q 144 856 150 857 q 129 855 138 856 q 115 856 121 854 q 106 861 110 857 q 100 878 101 867 q 97 892 99 889 q 92 908 92 906 q 99 918 92 910 q 149 936 110 929 q 229 949 157 938 q 276 956 267 954 q 272 964 274 961 q 213 1065 228 1044 q 207 1072 211 1067 q 200 1081 203 1078 q 194 1090 197 1085 q 194 1099 192 1094 q 203 1104 196 1103 q 223 1101 210 1106 q 252 1090 236 1097 q 271 1082 268 1083 q 299 1063 285 1076 q 320 1040 313 1050 q 340 1008 328 1029 q 342 1015 342 1014 q 378 1143 372 1115 q 378 1152 378 1144 q 381 1165 379 1160 q 384 1176 382 1169 q 390 1183 386 1183 q 399 1182 393 1183 q 409 1167 404 1179 q 419 1138 414 1154 q 425 1117 424 1121 q 418 1015 436 1088 q 465 1072 428 1028 q 472 1081 467 1074 q 482 1094 478 1089 q 492 1104 486 1099 q 504 1113 499 1110 q 515 1115 510 1117 q 531 1110 522 1115 q 543 1103 539 1104 q 547 1101 544 1103 q 556 1098 554 1099 q 559 1094 557 1097 q 558 1085 561 1090 q 531 1040 557 1071 q 475 979 525 1033 q 466 969 472 975 q 457 958 460 963 q 536 976 475 963 q 547 979 539 976 q 562 983 556 982 q 576 985 568 985 q 590 985 583 986 q 599 980 596 983 q 602 971 601 976 q 603 960 603 965 q 606 950 604 954 z "},"+":{"ha":779,"x_min":90,"x_max":690,"o":"m 575 483 q 407 475 425 476 q 398 457 401 468 q 393 436 394 446 q 390 413 392 426 q 385 393 388 400 q 365 303 372 335 q 346 221 351 242 q 343 210 344 215 q 340 199 342 204 q 337 188 339 194 q 335 178 335 182 q 333 166 333 175 q 331 150 333 157 q 326 140 329 143 q 317 138 322 136 q 308 143 313 140 q 299 152 304 146 q 290 163 293 158 q 282 174 286 168 q 276 181 278 179 q 254 214 258 201 q 254 254 250 226 q 297 433 256 258 q 300 465 304 463 q 292 467 296 467 q 281 465 289 467 q 271 463 272 464 q 183 456 203 456 q 149 462 161 456 q 124 483 138 468 q 114 493 121 486 q 103 506 107 500 q 94 517 99 511 q 92 528 90 524 q 100 538 93 533 q 126 546 111 543 q 164 550 142 549 q 192 553 186 551 q 282 563 196 553 q 294 563 285 563 q 310 563 303 563 q 321 567 317 564 q 336 593 331 571 q 357 682 346 631 q 367 733 363 706 q 369 752 368 735 q 374 776 371 769 q 419 753 385 801 q 428 742 425 744 q 434 735 429 739 q 442 727 439 731 q 448 719 444 724 q 453 710 451 714 q 449 667 454 703 q 431 574 440 622 q 471 571 449 571 q 510 572 493 571 q 552 576 526 574 q 592 579 578 578 q 617 579 606 581 q 636 569 628 578 q 683 514 669 536 q 685 493 690 497 q 661 488 681 489 q 575 483 639 486 z "},",":{"ha":356,"x_min":81,"x_max":267,"o":"m 206 -61 q 140 -125 183 -87 q 110 -96 118 -108 q 167 11 150 -36 q 156 19 156 19 q 111 61 121 51 q 99 126 82 89 q 124 151 108 144 q 158 150 140 158 q 183 135 172 144 q 213 108 193 126 q 242 81 232 90 q 262 43 258 67 q 251 -1 265 19 q 206 -61 215 -49 z "},"-":{"ha":761,"x_min":147,"x_max":615,"o":"m 242 563 q 265 563 253 563 q 290 565 278 564 q 315 566 303 565 q 340 567 326 567 q 364 569 353 568 q 419 569 383 569 q 472 568 456 568 q 521 567 496 568 q 535 567 525 567 q 553 568 544 568 q 567 566 561 568 q 581 550 574 564 q 610 497 607 504 q 612 476 615 482 q 597 472 608 471 q 544 476 567 476 q 328 474 440 479 q 285 470 324 474 q 226 468 247 467 q 183 482 196 471 q 153 535 171 494 q 150 549 151 544 q 154 556 149 554 q 163 559 160 558 q 173 560 165 560 q 183 560 181 560 q 242 563 190 560 z "},".":{"ha":315,"x_min":89,"x_max":224,"o":"m 93 93 q 113 140 90 106 q 150 175 135 174 q 162 168 156 174 q 172 158 168 163 q 183 146 176 153 q 193 136 189 139 q 201 128 194 135 q 212 119 208 122 q 219 109 215 115 q 222 97 222 103 q 206 44 224 85 q 203 38 206 43 q 199 32 200 33 q 197 26 199 31 q 193 22 194 22 q 189 19 192 21 q 184 17 186 17 q 178 17 182 17 q 171 19 175 17 q 163 24 167 21 q 154 31 158 28 q 147 38 150 35 q 139 46 143 42 q 133 53 135 50 q 120 64 131 56 q 103 80 110 72 q 93 93 96 88 z "},"/":{"ha":814,"x_min":132,"x_max":683,"o":"m 228 46 q 214 17 225 35 q 194 0 203 0 q 154 35 181 1 q 144 46 147 43 q 133 69 133 63 q 143 93 133 76 q 147 103 146 100 q 176 164 157 124 q 180 173 176 165 q 185 183 183 181 q 249 319 206 229 q 407 647 360 553 q 492 811 433 701 q 560 940 538 897 q 563 949 558 940 q 573 972 567 958 q 585 993 579 985 q 607 1021 594 1007 q 638 1050 608 1021 q 679 1008 676 1021 q 667 963 682 996 q 661 949 663 953 q 650 917 657 939 q 619 838 633 864 q 560 719 600 799 q 447 499 521 647 q 371 342 396 394 q 325 244 356 311 l 314 222 q 297 188 310 211 q 228 46 231 51 z "},":":{"ha":461,"x_min":132,"x_max":329,"o":"m 304 644 q 312 637 306 643 q 321 627 318 631 q 326 617 324 624 q 328 606 328 611 q 301 554 326 594 q 297 548 300 553 q 293 541 294 543 q 289 535 292 539 q 285 531 286 532 q 281 527 283 529 q 275 525 278 525 q 269 526 272 525 q 261 528 265 526 q 250 536 256 531 q 238 551 244 542 q 230 562 232 560 q 219 572 228 564 q 204 588 210 581 q 197 601 199 596 q 224 649 196 615 q 268 685 253 683 q 279 676 274 682 q 288 667 285 671 q 297 656 292 663 q 304 644 301 649 m 204 321 q 217 310 211 317 q 230 294 222 304 q 240 281 238 283 q 248 273 242 279 q 257 263 254 267 q 262 253 260 260 q 264 242 264 247 q 238 190 261 231 q 233 183 236 189 q 229 176 231 178 q 225 171 228 175 q 221 166 222 167 q 216 163 219 165 q 210 161 213 161 q 205 162 208 161 q 197 164 201 163 q 188 171 193 167 q 180 179 183 175 q 172 189 176 183 q 165 197 168 194 q 155 208 164 200 q 140 224 146 217 q 133 238 135 232 q 160 285 132 251 q 204 321 189 319 z "},";":{"ha":486,"x_min":132,"x_max":353,"o":"m 339 624 q 351 585 353 610 q 331 542 349 561 q 307 515 325 536 q 276 482 289 493 q 200 417 250 456 q 175 446 182 435 q 249 554 219 499 q 238 563 239 561 q 219 585 231 571 q 204 604 207 600 q 204 669 179 632 q 233 694 215 688 q 268 693 250 700 q 289 678 279 688 q 301 665 294 672 q 314 651 308 657 q 326 637 319 644 q 339 624 333 629 m 204 321 q 214 313 208 318 q 224 302 219 307 q 233 291 228 297 q 240 281 238 285 q 248 273 242 279 q 257 263 254 267 q 262 253 260 260 q 264 242 264 247 q 238 190 261 231 q 233 183 236 189 q 229 176 231 178 q 225 171 228 175 q 221 166 222 167 q 216 163 219 165 q 210 161 213 161 q 205 162 208 161 q 197 164 201 163 q 186 172 192 167 q 174 187 181 178 q 166 198 168 196 q 155 208 164 200 q 140 224 146 217 q 133 238 135 232 q 160 285 132 251 q 204 321 189 319 z "},"<":{"ha":1032,"x_min":126,"x_max":906,"o":"m 153 581 q 135 628 128 599 q 175 671 142 658 l 810 925 q 843 929 826 931 q 883 906 871 926 l 890 888 q 894 844 904 867 q 857 810 883 821 l 342 621 q 326 605 329 617 q 333 586 324 593 l 744 311 q 765 274 764 297 q 746 235 765 251 l 740 226 q 698 208 722 210 q 656 218 674 206 l 153 581 z "},"=":{"ha":1007,"x_min":147,"x_max":863,"o":"m 853 369 q 858 349 863 354 q 835 344 853 343 q 754 349 789 347 q 422 344 593 350 q 357 342 415 344 q 268 340 299 339 q 201 353 221 342 q 154 407 182 365 q 149 417 150 413 q 151 424 149 422 q 157 428 153 426 q 167 430 161 429 q 179 431 174 431 q 190 431 185 431 q 200 431 196 431 q 289 433 201 431 q 383 437 321 435 q 476 440 446 439 q 560 440 504 440 q 642 439 615 439 q 718 439 679 439 q 735 439 724 439 q 753 440 746 439 q 771 440 761 440 q 788 438 781 439 q 808 422 797 435 q 853 369 850 375 m 207 574 q 182 583 194 576 q 160 601 169 590 q 149 625 151 613 q 186 630 165 628 q 222 633 207 632 q 261 634 236 633 q 297 635 286 635 q 460 638 374 638 q 626 632 517 636 q 667 630 642 631 q 701 629 693 629 q 720 629 708 629 q 742 629 732 629 q 762 628 751 629 q 781 625 772 628 q 796 615 789 622 q 812 596 803 608 q 824 581 821 583 q 831 573 825 579 q 841 562 838 567 q 848 551 844 557 q 849 541 851 546 q 840 533 847 536 q 826 531 835 532 q 809 531 818 531 q 792 533 800 532 q 775 535 783 533 q 761 536 767 536 q 681 539 694 539 q 581 542 647 540 q 462 547 514 544 q 363 554 410 549 q 207 574 238 568 z "},">":{"ha":1003,"x_min":128,"x_max":874,"o":"m 846 601 q 869 556 874 586 q 833 510 865 526 l 228 193 q 196 185 213 185 q 153 204 168 185 l 143 222 q 136 265 128 240 q 169 301 144 289 l 663 543 q 676 560 675 549 q 667 579 678 572 l 231 811 q 206 844 210 822 q 221 886 203 867 l 225 894 q 266 917 242 913 q 308 911 290 922 l 846 601 z "},"?":{"ha":1038,"x_min":142,"x_max":925,"o":"m 876 994 q 807 740 924 881 q 582 553 724 640 q 489 499 551 535 q 299 376 357 426 q 274 350 288 365 q 247 315 260 335 q 231 283 233 296 q 235 267 229 272 q 257 261 242 260 q 303 278 276 264 q 344 304 329 292 q 319 329 328 318 l 317 335 l 322 339 q 369 347 347 351 q 408 322 392 342 q 429 280 425 304 q 417 231 433 256 q 338 183 386 192 q 317 181 328 182 q 218 214 257 179 q 183 249 194 235 q 157 287 171 263 q 148 339 143 311 q 175 399 153 367 q 365 547 224 465 q 408 572 379 556 q 489 619 461 603 q 564 667 517 636 q 640 722 611 697 q 703 783 669 747 q 761 858 736 819 q 794 935 783 893 q 797 1006 806 978 q 757 1042 788 1035 q 503 1015 633 1072 q 392 938 438 988 q 333 831 347 888 q 338 771 322 788 q 369 765 349 761 q 424 790 397 769 q 461 836 451 811 q 457 839 460 836 q 431 874 426 861 q 440 888 432 883 q 483 883 460 897 q 526 774 547 846 q 457 691 510 717 q 357 690 404 665 q 266 774 301 721 q 244 882 231 826 q 299 991 257 939 q 399 1076 340 1043 q 685 1133 529 1154 q 799 1085 744 1125 q 876 994 854 1046 m 257 146 q 319 78 311 104 q 306 28 326 54 q 258 0 285 1 q 213 23 240 0 q 181 61 185 46 q 194 113 174 86 q 240 154 214 140 l 244 156 l 247 153 q 257 146 249 151 z "},"@":{"ha":1068,"x_min":142,"x_max":935,"o":"m 821 301 q 833 281 833 296 q 793 218 835 258 q 786 213 789 214 q 531 114 689 114 q 496 115 514 114 q 235 240 351 126 q 165 356 188 286 q 150 503 142 426 q 268 756 163 633 q 503 921 371 876 q 767 889 638 965 q 918 683 904 807 q 828 394 933 553 q 738 286 781 324 q 614 247 669 225 q 517 332 551 272 q 431 332 463 314 q 368 382 392 354 q 338 450 344 410 q 344 533 332 490 q 453 671 368 614 q 549 703 510 708 q 606 674 572 700 q 614 667 611 669 q 621 678 617 671 q 635 700 629 693 q 653 713 644 711 q 678 701 663 715 q 683 696 679 700 q 703 668 701 681 q 688 604 707 649 q 682 590 683 594 q 657 529 674 571 q 621 443 632 472 q 617 432 621 440 q 601 318 578 329 q 681 365 624 307 q 769 486 732 417 q 819 779 867 667 q 730 853 796 835 q 593 856 664 872 q 338 687 447 819 q 233 417 229 554 q 268 278 236 342 q 357 204 294 224 q 668 231 497 163 l 674 233 q 740 263 719 251 q 765 281 749 268 q 789 299 781 293 q 821 301 807 308 m 594 635 q 464 549 518 618 q 431 396 410 482 q 506 422 465 397 q 531 464 521 432 l 532 468 q 561 544 540 493 q 594 635 588 604 z "},"A":{"ha":1357,"x_min":89,"x_max":1517,"o":"m 1447 1024 q 1292 744 1350 868 q 1261 679 1279 721 q 1230 608 1243 638 q 1217 576 1217 578 q 1296 593 1258 593 q 1365 574 1331 593 q 1367 572 1367 574 q 1365 558 1376 567 q 1363 558 1363 558 q 1341 549 1354 557 q 1322 540 1328 542 q 1218 518 1288 544 q 1186 504 1200 510 q 1158 433 1176 485 q 1079 167 1115 313 q 1054 29 1069 125 q 1039 -87 1039 -67 q 1051 -143 1039 -124 q 1051 -147 1051 -143 q 1042 -149 1047 -151 q 992 -124 999 -129 q 958 -100 981 -115 q 944 -79 947 -92 q 932 -39 935 -65 l 931 -42 q 936 24 932 -18 q 968 192 940 67 q 1040 439 996 318 q 976 409 1026 432 q 886 369 925 386 q 839 349 847 351 q 819 329 824 343 q 788 240 811 306 q 741 115 764 174 q 717 51 718 56 q 694 44 707 38 q 657 65 675 54 q 649 78 649 69 l 647 78 q 706 299 663 168 q 697 296 701 297 q 576 265 629 275 q 383 263 468 247 q 294 291 358 268 q 211 324 229 314 q 188 340 201 329 q 156 369 175 350 q 124 413 138 388 q 99 467 110 438 q 92 534 89 496 q 110 611 94 572 q 222 758 144 690 q 394 847 300 826 q 533 836 465 863 q 633 782 583 815 q 678 735 661 763 q 697 681 694 708 q 699 636 700 654 q 696 601 699 618 q 654 531 686 558 q 606 500 628 510 q 556 499 578 488 q 546 504 549 503 q 482 544 493 538 q 447 618 444 569 q 451 625 447 618 q 478 608 476 610 q 488 594 481 606 q 492 588 489 592 q 497 580 494 583 q 501 572 499 576 q 506 564 503 568 q 522 560 508 560 q 615 644 585 564 l 614 642 q 617 652 615 646 q 622 676 619 658 q 622 710 624 694 q 610 744 619 726 q 585 774 601 763 q 453 792 532 811 q 429 781 440 788 q 272 660 338 732 q 208 560 229 611 q 207 417 178 482 q 263 343 225 375 q 286 331 271 335 q 447 317 358 310 q 699 371 553 324 q 735 385 711 375 q 1000 858 840 663 q 1067 936 1033 900 q 1258 1126 1156 1039 q 1324 1174 1276 1142 q 1386 1214 1372 1207 q 1432 1213 1411 1225 q 1448 1203 1439 1208 q 1465 1194 1457 1199 q 1482 1185 1472 1190 q 1499 1176 1492 1181 q 1513 1162 1511 1169 q 1511 1139 1515 1154 q 1497 1110 1508 1133 q 1470 1062 1485 1088 q 1447 1024 1456 1036 m 1065 526 q 1375 1100 1183 793 l 1271 997 q 1049 753 1136 869 q 933 574 992 676 q 867 436 874 471 q 923 460 874 438 q 1018 503 972 482 q 1065 526 1064 525 z "},"B":{"ha":1378,"x_min":83,"x_max":1526,"o":"m 1464 1038 q 1489 850 1526 956 q 1480 826 1486 842 q 1443 760 1474 810 q 1370 663 1413 711 q 1248 551 1328 615 q 1069 431 1168 486 q 1063 426 1064 428 q 1137 377 1103 410 q 1188 306 1171 344 q 1178 219 1203 265 q 1108 135 1153 174 q 903 0 1033 67 q 674 -76 763 -72 q 598 -53 617 -81 q 593 19 579 -26 q 615 83 599 42 q 656 189 631 125 q 699 303 681 253 q 799 569 749 442 q 875 756 849 697 l 901 814 q 891 809 899 813 q 881 805 883 806 q 872 801 878 804 q 862 799 865 799 q 853 799 858 799 q 843 800 849 799 q 815 821 836 803 q 793 846 793 839 q 804 866 793 857 q 835 883 815 875 q 858 893 854 892 q 981 1017 910 925 q 988 1024 983 1018 q 992 1031 992 1029 q 997 1035 993 1032 q 1001 1039 1000 1039 q 1006 1040 1003 1039 q 1011 1041 1008 1042 q 1017 1039 1014 1040 q 1025 1036 1021 1038 q 1064 1000 1042 1028 q 1072 987 1068 993 q 1076 974 1075 981 q 1078 963 1078 968 q 1077 949 1079 957 q 1074 938 1075 942 q 1069 924 1074 933 q 1063 910 1065 914 q 1056 895 1061 907 q 1047 881 1050 883 q 1046 876 1047 879 q 1044 872 1044 874 q 963 694 1004 792 q 874 460 925 604 q 1106 567 1001 504 q 1276 699 1210 631 q 1381 833 1343 767 q 1425 960 1419 900 l 1426 975 q 1369 1072 1417 1040 q 1200 1122 1321 1104 q 1121 1129 1158 1128 q 1058 1126 1090 1129 q 998 1119 1025 1124 q 945 1108 971 1114 q 900 1095 919 1101 q 866 1083 881 1089 q 843 1075 851 1078 l 835 1072 q 836 1074 836 1072 q 650 973 742 1032 q 476 838 558 914 q 321 676 393 763 q 164 319 160 482 q 292 260 167 218 q 446 347 375 288 q 547 481 522 413 q 559 526 556 503 q 562 572 563 550 q 550 612 561 594 q 519 635 539 629 q 446 624 485 644 q 433 614 440 619 q 424 608 425 608 q 413 608 422 608 q 401 619 408 610 q 393 631 393 628 q 415 657 396 643 q 449 676 435 671 q 522 669 489 690 q 608 553 588 629 q 590 390 629 476 q 473 251 553 314 q 314 175 393 188 q 175 219 242 164 q 96 343 108 274 q 119 508 83 417 q 215 683 154 599 q 483 964 326 839 q 806 1156 640 1089 q 1167 1224 1040 1254 q 1464 1038 1360 1178 m 1104 303 q 1063 342 1100 328 q 963 346 1025 356 q 808 286 888 333 q 719 14 768 165 q 979 150 881 92 q 1104 303 1118 232 z "},"C":{"ha":1063,"x_min":54,"x_max":1232,"o":"m 940 908 q 921 831 964 882 q 881 850 894 839 q 837 765 851 813 q 826 675 822 718 q 835 632 829 639 q 838 629 836 631 q 846 620 843 621 q 857 625 849 619 q 867 631 863 629 q 946 700 901 653 q 1071 875 1018 776 q 1125 1054 1124 974 q 1075 1157 1125 1149 q 875 1114 1001 1169 q 532 878 692 1033 q 353 663 433 782 q 226 403 274 543 q 193 147 179 264 q 267 28 204 61 q 453 -7 336 -8 q 650 35 547 -7 q 813 151 753 78 q 851 226 839 183 q 851 301 863 268 q 843 314 850 306 q 831 329 836 322 q 825 338 825 336 q 847 338 829 344 q 883 323 865 332 q 906 310 900 314 q 946 248 933 288 q 947 172 958 208 q 797 17 919 92 q 597 -66 703 -40 q 396 -76 490 -92 q 229 -19 300 -61 q 118 111 158 24 q 138 476 56 249 q 342 828 204 658 q 651 1106 476 994 q 1024 1228 888 1257 q 1067 1213 1044 1224 q 1111 1189 1090 1203 q 1150 1159 1132 1175 q 1182 1128 1168 1143 q 1217 974 1231 1068 q 1122 767 1201 876 q 949 596 1042 657 q 843 560 876 549 q 767 614 817 568 q 735 793 700 672 q 778 890 747 840 q 847 944 810 939 q 897 933 863 946 q 940 908 932 921 z "},"D":{"ha":1276,"x_min":78,"x_max":1403,"o":"m 1324 982 q 1281 586 1401 819 q 1006 239 1182 397 q 851 113 943 183 q 858 110 857 110 q 958 76 908 82 q 1038 74 1021 71 l 1050 75 l 1043 64 q 953 8 1014 24 q 832 -1 878 -15 q 754 42 807 7 q 736 28 747 38 q 483 -94 601 -72 q 410 -101 444 -101 q 261 -54 322 -101 q 215 -1 232 -31 q 195 67 197 28 q 221 147 193 107 q 294 219 247 189 q 301 225 297 222 q 317 235 304 228 q 342 247 329 242 q 374 258 354 251 q 415 268 394 265 q 461 272 435 271 q 513 268 488 274 q 514 269 514 269 l 758 960 l 761 961 q 786 965 775 965 q 810 957 797 965 q 831 942 822 949 q 849 926 840 936 q 860 911 857 915 q 865 904 864 907 l 867 901 l 632 236 q 756 174 703 213 l 757 172 q 758 171 757 172 q 771 164 764 168 q 868 238 806 179 l 874 242 q 1135 554 1036 392 q 1239 808 1217 689 q 1190 1043 1265 956 q 897 1146 1094 1154 q 560 1046 719 1139 q 264 758 371 938 q 197 608 226 697 q 188 471 167 518 q 226 438 199 444 q 344 468 278 425 q 440 559 397 503 q 490 664 482 615 q 493 675 492 668 q 501 700 494 694 q 525 704 508 707 q 568 657 554 701 q 533 506 592 586 q 421 403 488 440 q 288 365 354 365 q 190 389 233 365 q 99 508 119 428 q 113 688 79 588 q 326 1001 172 860 q 650 1192 474 1135 q 1054 1192 860 1260 q 1121 1163 1088 1179 q 1194 1122 1154 1147 q 1269 1060 1235 1097 q 1324 982 1303 1024 m 432 -15 q 675 96 568 31 q 668 101 671 99 q 631 128 656 110 q 571 169 593 154 q 513 198 549 183 q 449 213 478 213 q 422 210 435 213 q 331 148 372 200 q 290 44 289 96 q 317 -7 290 11 q 369 -24 338 -21 q 432 -15 401 -26 z "},"E":{"ha":925,"x_min":93,"x_max":1119,"o":"m 150 -24 q 112 18 126 -4 q 95 65 97 40 q 96 111 93 89 q 114 160 99 133 q 142 208 129 188 q 182 257 156 229 q 226 303 208 285 q 276 347 244 321 q 324 388 308 374 q 371 425 340 401 q 390 440 383 436 q 337 490 372 463 q 281 546 301 518 q 257 617 261 574 q 356 906 249 746 q 574 1126 438 1028 q 847 1242 711 1224 q 974 1219 914 1250 q 1068 1135 1035 1188 q 1000 901 1118 1051 q 778 792 864 729 q 739 900 700 849 q 744 908 742 904 q 747 914 747 913 q 749 916 747 915 q 751 916 750 917 q 756 914 751 915 q 765 911 761 913 q 800 856 797 901 q 900 944 851 886 q 974 1058 949 1001 q 988 1156 1006 1131 q 869 1157 968 1182 q 618 1030 739 1124 q 426 819 497 936 q 349 569 342 678 q 352 538 350 547 q 363 517 354 528 q 388 503 371 507 q 532 539 435 492 q 597 575 556 549 q 650 607 638 601 q 681 626 656 610 q 726 653 706 643 q 760 665 747 664 q 813 645 779 665 q 849 608 846 625 q 844 589 851 599 q 819 568 836 579 q 791 551 803 557 q 759 534 779 544 q 738 522 739 524 q 675 491 715 511 q 610 458 635 471 q 553 426 586 446 q 492 386 519 407 q 238 158 317 260 q 179 35 182 86 q 228 -6 178 -8 q 511 107 332 1 q 724 272 632 179 q 734 283 726 275 q 746 295 742 290 q 758 308 750 300 q 768 321 765 317 q 776 333 771 325 q 779 346 781 342 q 778 357 778 350 l 772 353 q 728 358 742 343 q 725 379 722 368 q 806 389 736 428 q 876 325 858 360 l 879 314 q 865 265 881 292 q 817 210 849 239 q 766 164 786 181 q 713 122 746 147 q 701 114 706 117 q 442 -37 585 22 q 284 -77 353 -78 q 150 -24 215 -76 z "},"F":{"ha":1242,"x_min":86,"x_max":1663,"o":"m 1654 1201 q 1630 1143 1663 1167 q 1556 1107 1597 1119 q 1478 1228 1594 1176 q 1249 1250 1400 1263 q 1240 1249 1246 1249 q 1228 1249 1233 1249 q 1216 1247 1222 1249 q 1205 1244 1210 1246 q 1197 1240 1200 1243 q 1189 1213 1197 1240 q 1172 1164 1183 1196 q 1157 1115 1161 1132 q 1124 1016 1147 1088 q 1088 906 1100 944 q 1083 886 1082 888 q 1099 882 1083 885 q 1133 881 1114 881 q 1165 882 1151 881 q 1201 886 1178 883 q 1233 889 1225 889 q 1363 878 1364 903 q 1361 874 1363 876 q 1208 818 1349 842 q 1179 815 1196 817 q 1146 810 1163 813 q 1117 807 1129 808 q 1098 806 1113 807 q 1072 802 1083 804 q 1054 796 1060 800 q 1042 772 1049 790 q 1032 751 1039 767 q 1020 721 1025 735 q 1014 699 1015 707 q 1024 672 1014 688 q 1047 640 1033 657 q 1065 617 1061 624 q 1094 336 1147 481 q 931 74 1047 204 q 917 57 929 71 q 900 39 904 43 q 885 23 896 35 q 869 6 875 11 q 853 -9 863 0 q 834 -25 843 -18 q 817 -39 825 -32 q 753 -69 775 -67 q 694 -50 731 -71 q 677 -33 683 -43 q 669 -13 671 -22 q 669 11 667 -4 q 675 34 672 26 q 685 61 678 42 q 694 86 692 81 q 708 126 700 104 q 721 164 715 147 q 734 203 726 181 q 747 242 742 226 q 901 686 853 544 q 907 713 908 706 q 893 736 906 721 q 860 788 867 769 q 857 804 854 796 q 861 818 860 813 q 870 830 863 824 q 883 839 878 836 q 899 846 888 842 q 916 852 910 850 q 932 857 922 854 q 946 861 938 858 q 964 872 961 865 q 968 879 965 874 l 971 885 q 993 951 971 885 q 1092 1238 1026 1047 q 585 1058 800 1200 q 256 733 382 922 q 211 647 229 694 q 185 551 193 600 q 197 465 178 503 q 265 417 217 428 q 456 455 354 394 q 604 607 558 515 q 625 694 625 644 q 592 764 625 743 q 524 769 560 782 q 463 721 488 756 q 462 783 446 753 q 518 817 478 813 q 574 806 546 819 q 619 779 603 793 q 658 740 635 765 q 692 580 717 672 q 588 422 668 488 q 428 347 515 363 q 268 363 342 331 q 174 417 214 383 q 110 501 133 450 q 93 608 86 551 q 135 742 101 675 q 217 865 168 808 q 326 975 265 922 q 449 1068 388 1028 q 572 1139 510 1108 q 726 1204 646 1176 q 890 1249 807 1232 q 1046 1278 972 1267 q 1208 1296 1119 1289 q 1349 1303 1317 1304 q 1457 1294 1381 1301 q 1496 1291 1485 1292 q 1535 1285 1507 1290 q 1577 1275 1563 1281 q 1610 1260 1592 1269 q 1640 1235 1629 1250 q 1654 1201 1650 1221 m 900 788 q 898 778 897 782 q 907 772 899 775 q 920 766 915 768 q 929 764 925 764 q 933 773 931 765 q 938 786 936 781 q 938 794 939 792 q 919 797 933 800 q 900 788 904 794 m 964 274 q 994 339 985 318 q 1018 399 1003 360 q 1037 463 1033 439 q 1041 520 1040 488 q 1030 581 1042 553 q 996 633 1018 608 q 911 381 975 574 q 811 85 847 189 q 828 92 819 86 q 847 108 838 97 q 863 126 857 119 q 878 146 868 132 q 889 160 889 160 q 964 274 940 226 z "},"G":{"ha":976,"x_min":88,"x_max":1082,"o":"m 972 710 q 985 688 983 697 q 977 670 988 678 q 958 658 967 663 q 931 647 949 654 q 908 639 914 640 q 832 543 863 618 l 610 -96 q 497 -324 554 -254 q 459 -353 483 -342 q 419 -366 435 -364 q 397 -367 403 -368 q 294 -304 338 -360 q 272 -194 251 -249 q 327 -99 289 -149 q 430 15 365 -50 q 510 97 494 79 q 596 215 550 142 l 646 351 q 559 251 604 296 q 460 174 514 206 q 355 133 407 142 q 248 149 303 125 q 147 236 193 174 q 94 391 99 300 q 119 578 89 482 q 194 761 149 674 q 297 925 240 849 q 433 1068 356 1001 q 597 1183 510 1135 q 771 1247 683 1231 q 938 1240 858 1264 q 1042 1148 1004 1219 q 1061 1003 1081 1076 q 1014 914 1049 956 q 936 844 979 872 q 843 796 893 815 q 678 775 767 765 q 597 833 592 783 l 599 843 q 666 950 618 911 q 742 976 714 989 q 714 919 742 976 q 722 828 681 839 q 892 921 807 818 q 975 1103 968 1014 q 894 1197 974 1193 q 756 1172 824 1197 q 628 1101 688 1147 q 519 1003 568 1054 q 418 885 471 953 q 312 719 364 813 q 236 554 260 626 q 212 451 221 507 q 206 333 203 394 q 229 238 208 272 q 272 204 243 213 q 335 204 300 196 q 410 232 371 213 q 485 281 449 251 q 581 379 522 310 q 679 504 639 449 l 719 558 q 632 528 690 553 q 557 497 574 503 q 516 517 524 488 q 535 571 508 547 q 561 591 546 581 q 588 608 576 601 q 621 624 599 614 q 650 636 643 633 q 683 649 657 639 q 711 658 710 658 q 878 708 772 682 q 898 714 885 710 q 919 720 911 718 q 936 723 926 722 q 955 720 946 724 q 972 710 964 717 m 578 103 q 528 46 553 76 q 469 -28 503 15 q 412 -112 436 -71 q 370 -194 388 -154 q 355 -267 353 -235 q 381 -315 357 -299 q 385 -316 382 -315 q 390 -317 389 -317 q 448 -247 417 -307 q 496 -129 479 -186 l 514 -74 l 578 103 z "},"H":{"ha":919,"x_min":-321,"x_max":1018,"o":"m 976 622 q 978 585 1017 588 q 903 587 961 583 q 814 590 846 590 l 532 -229 q 518 -244 528 -239 q 499 -246 508 -250 q 469 -228 474 -236 q 451 -151 457 -219 q 479 -49 450 -149 q 568 228 508 50 q 689 574 628 407 q 415 542 514 560 l 236 13 q 211 -12 229 -6 q 181 -8 193 -19 l 143 24 q 135 43 135 31 q 132 46 133 44 q 140 73 131 46 q 167 154 149 100 q 201 254 186 208 q 188 272 201 261 q 171 285 174 282 q 154 300 165 293 q 133 310 143 307 q 103 316 122 314 q 76 318 85 318 q 47 319 68 318 q 22 319 26 319 q -92 318 -14 321 q -208 317 -169 315 q -282 335 -243 318 q -304 378 -321 353 l -307 378 q -301 381 -306 379 q -294 388 -299 385 q -149 456 -257 418 q 326 610 81 556 l 533 1211 q 555 1235 539 1228 q 585 1236 571 1243 l 619 1217 q 631 1182 639 1206 l 446 633 q 718 674 640 669 q 797 889 754 774 q 869 1084 840 1004 q 908 1192 899 1164 q 935 1207 913 1201 q 971 1211 957 1213 q 972 1210 971 1210 q 997 1201 992 1207 q 1010 1165 1001 1196 q 1013 1156 1011 1160 q 971 1030 1014 1150 q 885 793 928 910 l 840 675 q 976 622 933 658 m 26 360 q 67 356 35 358 q 114 351 100 354 q 153 344 128 349 q 194 329 178 339 q 222 306 210 319 l 294 517 q -174 364 89 467 q 26 360 -21 364 z "},"I":{"ha":967,"x_min":69,"x_max":1111,"o":"m 963 1200 q 1031 808 1111 1122 q 885 407 996 674 q 844 311 858 342 q 760 89 806 214 q 753 67 758 83 q 735 11 743 32 q 711 -38 728 -10 q 676 -75 694 -67 q 640 -74 658 -85 q 619 -47 628 -67 q 606 -10 610 -26 q 599 39 603 7 q 586 96 590 82 q 444 246 536 232 q 286 192 363 257 q 216 102 243 154 q 189 0 189 50 q 199 -66 189 -33 q 233 -114 210 -99 q 296 -119 258 -132 q 361 -59 336 -107 q 388 32 386 -11 q 384 61 389 56 q 365 65 379 67 q 332 69 344 65 q 313 103 304 81 q 328 122 315 114 q 358 131 342 131 q 419 112 382 129 q 468 78 456 94 q 478 -35 497 40 q 403 -156 457 -115 q 324 -182 367 -182 q 311 -181 317 -182 q 211 -153 263 -176 q 132 -96 160 -131 q 106 93 69 -21 q 167 204 124 153 q 264 285 210 256 q 328 306 296 301 q 394 301 360 310 q 451 285 429 293 q 508 260 472 276 l 518 254 q 614 192 582 225 q 638 157 622 183 q 664 118 654 126 q 863 619 783 414 q 891 695 881 668 q 917 771 901 722 q 941 855 933 819 q 956 934 949 890 q 964 1017 964 978 q 956 1093 964 1056 q 916 1173 944 1151 q 832 1188 888 1194 q 590 1086 724 1174 q 419 924 486 1017 q 336 736 351 831 q 333 679 333 710 q 345 621 332 649 q 383 586 358 593 q 483 606 424 575 q 579 676 543 636 q 626 771 618 722 l 626 772 q 626 810 632 801 q 621 817 624 814 q 603 808 615 806 q 597 810 600 810 q 572 824 576 815 q 575 840 571 831 q 615 856 583 858 q 658 837 639 854 q 683 799 678 819 q 632 631 707 717 q 534 555 590 582 q 428 532 478 528 q 267 624 315 542 q 261 839 215 714 q 375 1024 296 936 q 563 1171 454 1111 q 769 1242 674 1233 q 963 1200 868 1250 z "},"J":{"ha":1051,"x_min":86,"x_max":1147,"o":"m 1072 503 q 1097 490 1089 497 q 1104 472 1106 483 q 1098 449 1103 460 q 1081 421 1093 438 q 1025 357 1057 383 q 964 319 993 331 q 909 301 935 307 q 867 293 883 294 q 849 290 850 292 q 835 244 844 274 q 794 131 825 215 q 732 -30 764 47 q 653 -201 700 -107 q 558 -364 606 -296 q 457 -442 513 -435 q 338 -379 407 -449 q 296 -297 306 -347 q 294 -197 286 -246 q 322 -96 303 -147 q 508 163 374 39 q 733 326 642 288 q 822 550 749 368 q 955 888 894 732 q 1015 1050 1015 1043 q 792 938 910 963 q 501 847 599 894 q 315 711 399 799 q 199 522 232 624 q 188 456 189 490 q 199 392 186 421 q 242 358 213 363 q 306 365 271 354 q 374 395 342 375 q 435 438 407 415 q 486 486 464 461 q 512 515 499 499 q 542 553 525 531 q 572 598 560 575 q 594 643 585 621 q 601 685 603 665 q 588 717 600 704 q 572 719 588 718 q 543 724 556 719 q 536 738 531 729 q 594 738 549 761 q 651 696 639 715 q 652 546 692 625 q 534 400 613 467 q 388 314 456 333 q 307 303 347 303 q 231 316 267 304 q 165 349 196 328 q 117 400 135 369 q 93 467 99 431 q 100 547 88 504 q 231 763 135 664 q 447 915 328 863 q 624 971 510 942 q 831 1033 739 1000 q 976 1115 922 1065 q 1017 1161 986 1124 q 1061 1208 1047 1199 q 1100 1217 1081 1221 q 1135 1194 1119 1213 q 1146 1159 1144 1182 q 1138 1103 1147 1136 q 1122 1047 1129 1069 q 1101 987 1115 1024 q 1085 943 1088 950 q 974 640 1065 886 q 871 361 882 393 q 912 365 897 363 q 953 375 926 367 q 997 397 979 383 q 1036 437 1015 410 q 1072 503 1057 464 m 494 -272 q 594 -76 538 -206 q 685 150 650 54 l 719 246 q 658 201 703 243 q 559 91 614 160 q 469 -43 504 22 q 381 -285 403 -169 q 403 -364 365 -372 q 431 -342 411 -361 q 470 -303 451 -324 q 494 -272 489 -282 z "},"K":{"ha":1099,"x_min":-24,"x_max":1378,"o":"m 1350 1150 q 1359 1145 1353 1149 q 1368 1140 1365 1142 q 1374 1134 1371 1138 q 1377 1126 1378 1131 q 1372 1115 1376 1121 q 1349 1094 1369 1113 q 1338 1089 1342 1090 q 1330 1088 1333 1088 q 1318 1086 1326 1089 q 1305 1079 1313 1085 q 1291 1068 1297 1074 q 1277 1055 1285 1063 q 1265 1044 1269 1047 q 1204 989 1238 1021 q 1113 897 1165 951 q 1008 783 1060 842 q 925 685 957 725 q 885 634 915 672 q 829 564 854 596 q 790 513 804 532 q 769 482 769 483 q 772 453 765 472 q 793 389 783 418 q 896 139 839 261 q 957 15 939 43 q 965 3 958 14 q 975 -10 972 -7 q 985 -22 978 -14 q 997 -35 992 -31 q 1009 -42 1001 -39 q 1024 -47 1017 -46 q 1085 -33 1049 -50 q 1140 8 1121 -15 q 1167 63 1164 35 q 1163 78 1167 65 q 1160 101 1160 92 q 1172 110 1161 110 q 1197 97 1182 110 q 1217 74 1211 85 q 1224 28 1222 64 q 1214 -50 1225 -18 q 1171 -105 1201 -82 q 1107 -134 1140 -128 q 1043 -135 1074 -140 q 951 -89 1014 -126 q 934 -78 947 -86 q 915 -67 921 -71 q 900 -57 910 -64 q 883 -44 890 -50 q 869 -29 875 -37 q 756 133 797 56 q 706 228 751 140 q 682 274 688 261 q 678 283 681 276 q 673 296 675 290 q 667 306 671 301 q 660 313 664 311 q 497 17 582 193 q 480 -20 490 4 q 465 -53 469 -44 q 449 -75 457 -74 q 424 -65 440 -76 q 408 -58 410 -58 q 403 -62 407 -58 q 399 -65 400 -65 q 375 -56 389 -65 q 366 -47 369 -51 q 363 -35 363 -42 q 363 -24 363 -28 q 365 -9 363 -19 q 367 4 367 1 q 372 31 368 17 q 379 58 375 46 q 389 84 383 69 q 399 110 394 99 q 410 136 404 121 q 421 161 417 151 q 485 321 460 258 q 611 642 581 561 q 679 824 653 750 q 740 1004 729 964 q 714 985 738 1006 q 663 940 690 965 q 632 911 636 914 q 506 826 574 867 q 369 759 472 807 q 215 675 265 711 q 143 606 175 646 q 91 519 111 567 q 69 428 71 472 q 78 363 67 389 q 93 338 85 344 q 121 335 101 332 q 258 404 178 340 q 381 535 332 464 q 438 683 443 631 q 431 676 436 682 q 424 670 425 671 q 417 667 424 669 q 408 667 411 664 q 395 674 401 668 q 389 685 389 679 q 410 714 389 697 q 444 717 425 726 q 489 681 482 697 q 486 601 500 651 q 426 468 468 533 q 328 353 385 403 q 197 281 260 293 q 174 278 186 278 q 153 278 163 278 q 133 283 144 279 q 114 290 121 288 q 95 300 107 293 q 78 310 83 307 q 60 319 74 313 q -8 410 6 353 q 3 535 -22 467 q 71 656 25 600 q 178 749 117 711 q 270 798 217 772 q 376 849 324 824 q 468 899 429 874 q 703 1101 607 983 q 746 1160 725 1129 q 758 1177 750 1164 q 772 1201 765 1190 q 786 1217 779 1211 q 798 1220 789 1222 q 810 1217 807 1218 q 822 1209 814 1215 q 832 1201 831 1203 q 842 1197 835 1200 q 853 1191 850 1193 q 861 1185 857 1189 q 867 1175 865 1181 q 868 1163 868 1169 q 863 1115 868 1142 q 854 1074 858 1089 q 839 1024 850 1058 q 825 981 828 989 q 764 799 801 900 q 693 610 722 683 q 670 552 686 589 q 642 484 654 515 q 622 425 631 453 q 634 440 628 432 q 644 453 640 447 q 654 469 649 460 q 663 483 660 478 q 711 553 685 515 q 750 605 725 572 q 806 676 775 638 q 847 728 838 715 q 931 826 879 768 q 1033 940 982 885 q 1124 1031 1085 994 q 1240 1132 1192 1097 q 1297 1171 1285 1165 q 1311 1172 1301 1175 q 1325 1166 1321 1168 q 1338 1158 1329 1164 q 1350 1150 1347 1151 z "},"L":{"ha":794,"x_min":83,"x_max":1249,"o":"m 1163 1307 q 1216 1259 1194 1292 q 1242 1188 1238 1226 q 1221 1106 1247 1149 q 1138 1031 1194 1063 q 835 1001 997 953 q 503 178 657 431 q 531 138 510 167 q 563 96 553 110 q 593 56 572 82 q 627 17 614 31 q 661 -15 640 4 q 699 -45 682 -35 q 737 -65 715 -56 q 779 -78 758 -74 q 892 -83 850 -92 q 949 -65 933 -75 q 967 -42 964 -56 q 958 -73 964 -56 q 936 -118 951 -90 q 900 -168 921 -146 q 844 -207 879 -190 q 769 -224 810 -224 q 697 -199 733 -224 q 625 -129 660 -175 q 566 -45 590 -83 q 510 50 542 -7 q 468 125 479 107 q 338 3 399 26 q 201 10 263 -26 q 111 108 139 46 q 93 192 85 146 q 127 278 101 239 q 197 342 153 318 q 283 360 240 365 q 447 267 379 346 q 594 639 532 449 l 722 1021 l 661 1042 q 549 1082 608 1068 q 447 1098 503 1099 q 344 1068 390 1097 q 260 988 293 1038 q 217 883 226 939 q 225 785 206 817 q 329 764 247 749 q 438 811 385 774 q 515 899 492 849 q 522 916 518 906 q 528 930 526 926 q 535 937 531 933 q 545 938 539 940 q 561 928 551 935 q 589 891 586 908 q 579 843 592 874 q 546 784 565 811 q 499 735 526 757 q 439 700 471 713 q 242 726 332 660 q 200 759 214 747 q 166 791 186 771 q 135 834 146 811 q 124 882 125 857 q 158 1024 119 953 q 267 1140 197 1096 q 413 1172 338 1183 q 617 1108 521 1156 q 742 1064 733 1051 q 758 1099 747 1075 q 772 1129 768 1124 q 917 1307 838 1258 q 1019 1347 965 1339 q 1121 1332 1074 1354 q 1163 1307 1144 1319 m 215 40 q 265 48 229 33 q 346 106 300 63 q 415 211 392 150 q 415 219 415 214 q 408 237 414 224 q 394 260 403 250 q 367 283 386 271 q 324 301 349 296 q 267 299 293 308 q 224 268 240 289 q 199 226 208 247 q 185 185 189 206 q 183 181 185 183 q 176 144 178 158 q 175 108 175 131 q 185 68 175 85 q 215 40 196 51 m 1153 1175 q 1169 1217 1167 1194 q 1169 1253 1172 1240 q 1160 1274 1165 1267 l 1160 1275 q 1089 1282 1133 1288 q 983 1235 1028 1274 q 893 1131 939 1197 q 856 1053 871 1096 q 1008 1063 919 1028 q 1153 1175 1097 1097 z "},"M":{"ha":1844,"x_min":86,"x_max":2003,"o":"m 1819 575 q 1729 353 1767 453 q 1674 197 1692 253 q 1648 98 1657 140 q 1638 42 1639 56 q 1639 22 1638 29 q 1660 4 1646 8 q 1692 4 1675 0 q 1723 14 1708 8 q 1749 25 1738 19 l 1758 31 q 1689 -112 1764 -51 q 1626 -139 1660 -139 q 1540 -89 1579 -139 q 1514 -32 1521 -64 q 1514 43 1507 0 q 1527 110 1521 86 q 1547 181 1533 135 q 1674 513 1574 268 q 1849 947 1775 758 q 1907 1142 1924 1135 q 1719 930 1856 1119 q 1529 640 1582 740 q 1297 101 1358 311 q 1283 81 1296 96 q 1253 51 1271 65 q 1219 30 1236 36 q 1189 41 1201 24 q 1176 104 1176 58 q 1242 415 1178 185 q 1273 521 1254 465 q 1315 639 1292 576 q 1349 735 1338 701 q 1402 931 1374 813 q 1414 1060 1431 1049 q 1369 1040 1400 1069 q 1302 960 1338 1010 q 1236 859 1267 910 q 1183 768 1206 808 q 1129 660 1164 732 q 1047 492 1094 589 q 971 338 999 394 q 906 207 936 268 q 861 113 876 146 q 833 55 846 81 q 816 19 821 29 q 808 7 811 10 q 731 38 781 -12 q 715 50 724 44 q 722 72 714 50 q 742 129 729 94 q 770 206 754 164 q 802 289 786 247 q 831 365 818 331 q 853 421 844 400 l 861 443 q 986 839 963 706 q 994 890 992 871 q 1001 947 997 910 q 1002 1008 1006 983 q 992 1062 999 1033 q 967 1110 985 1090 q 922 1142 949 1131 q 565 1085 774 1201 q 398 963 476 1035 q 268 814 319 892 q 197 667 233 760 q 176 522 161 574 q 214 483 185 490 q 361 533 275 465 q 452 629 415 575 q 493 726 489 683 q 483 751 479 740 q 500 760 488 760 q 531 750 515 761 q 551 721 547 739 q 492 553 564 663 q 367 435 440 472 q 211 425 283 392 q 94 588 103 474 q 142 789 88 679 q 279 983 197 899 q 581 1189 413 1122 q 765 1233 678 1226 q 922 1208 851 1239 q 1025 1132 986 1179 q 1079 1035 1064 1085 q 1094 919 1094 985 q 1083 803 1093 854 q 1057 688 1074 751 q 1118 799 1086 744 q 1205 942 1150 854 q 1313 1088 1260 1029 q 1406 1158 1367 1147 q 1473 1148 1436 1167 q 1525 1103 1510 1129 q 1515 980 1538 1079 q 1472 815 1493 881 q 1426 684 1469 808 q 1375 529 1382 560 q 1578 895 1463 724 q 1788 1156 1693 1067 q 1926 1231 1883 1246 q 1978 1200 1960 1219 q 1999 1152 1996 1181 q 2000 1099 2003 1124 q 1988 1038 1997 1074 q 1819 575 1943 865 z "},"N":{"ha":1271,"x_min":4,"x_max":1810,"o":"m 1768 1243 q 1785 1096 1808 1189 q 1697 953 1763 1003 q 1628 930 1671 933 q 1547 937 1586 926 q 1476 969 1508 947 q 1436 1017 1444 990 q 1435 1080 1426 1050 q 1465 1125 1443 1110 q 1515 1143 1486 1140 q 1572 1126 1543 1146 q 1538 1069 1551 1107 q 1529 1001 1525 1032 q 1560 967 1533 969 q 1615 981 1586 964 q 1660 1022 1644 999 q 1687 1075 1675 1044 q 1703 1137 1699 1106 q 1704 1192 1708 1168 q 1677 1238 1697 1221 q 1630 1258 1657 1256 q 1571 1254 1603 1261 q 1492 1215 1528 1242 q 1428 1147 1456 1188 q 1382 1073 1400 1107 q 1343 992 1364 1039 q 1265 783 1313 919 q 1199 599 1218 647 q 1068 185 1156 486 q 1060 153 1067 178 q 1048 112 1053 128 q 1035 74 1043 96 q 1016 35 1026 51 q 994 7 1006 18 q 947 -10 972 -11 q 906 -1 922 -10 q 864 24 890 7 q 829 58 843 38 q 808 99 815 79 q 796 151 800 119 q 791 203 792 183 q 790 260 790 224 q 789 311 789 296 q 778 625 781 533 q 747 574 768 622 q 703 466 725 526 q 676 400 681 406 q 519 131 600 233 q 417 22 471 68 q 304 -50 363 -24 q 184 -70 246 -76 q 67 -22 122 -64 q 6 98 7 21 q 46 249 4 175 q 150 378 88 324 q 353 426 258 471 q 414 372 379 414 q 415 292 468 308 q 391 293 400 286 q 378 315 382 300 q 373 347 375 331 q 367 376 371 363 q 356 393 364 389 q 270 366 326 408 q 179 282 214 324 q 99 104 117 208 q 142 -21 79 -4 q 242 0 179 -31 q 354 76 301 29 q 450 185 407 124 q 524 301 493 247 q 588 424 554 354 q 706 703 639 532 q 740 785 717 731 q 781 883 764 839 q 808 967 799 928 q 812 992 810 976 q 815 1017 814 1007 q 820 1037 817 1026 q 833 1052 824 1047 q 856 1058 842 1057 q 889 1044 871 1058 q 911 1018 907 1031 q 915 967 917 990 q 906 905 913 944 q 899 850 899 865 q 892 753 897 828 q 886 647 888 678 q 879 509 885 607 q 873 360 874 411 q 881 234 872 310 q 913 96 890 158 q 941 177 926 133 q 966 254 956 221 q 990 334 976 288 q 1015 415 1004 381 q 1117 711 1031 463 q 1242 1053 1203 957 q 1331 1212 1279 1146 q 1458 1306 1382 1278 q 1629 1317 1532 1335 q 1768 1243 1726 1300 z "},"O":{"ha":1496,"x_min":90,"x_max":1575,"o":"m 1572 833 q 1524 583 1568 715 q 1406 332 1479 451 q 1227 117 1333 213 q 1004 -18 1121 22 q 764 -26 863 -68 q 612 115 665 17 q 550 347 558 213 q 539 394 547 399 q 449 399 500 390 q 331 435 385 408 q 179 561 238 478 q 115 687 139 618 q 92 839 90 756 q 135 989 94 922 q 215 1072 167 1039 q 313 1113 263 1104 q 410 1116 364 1122 q 492 1084 457 1110 q 538 1021 526 1058 q 540 927 551 969 q 498 856 528 885 q 428 821 468 828 q 401 826 400 815 q 443 879 403 833 q 476 933 475 915 q 448 1015 479 981 q 374 1062 417 1050 q 287 1066 331 1074 q 225 1031 243 1058 q 186 888 189 974 q 208 754 183 803 q 267 657 232 703 q 347 574 303 611 q 446 513 392 538 q 558 485 500 489 q 646 752 579 619 q 814 994 713 885 q 926 1082 868 1053 q 1040 1097 983 1111 q 1131 1018 1096 1083 q 1148 889 1158 961 q 1103 749 1138 817 q 1022 626 1069 681 q 836 474 935 528 q 721 426 803 456 q 694 419 708 422 q 674 413 681 415 q 660 407 668 411 q 649 394 653 403 q 642 372 646 386 q 640 232 628 311 q 681 103 651 153 q 755 49 704 63 q 857 41 806 35 q 961 67 908 47 q 1125 159 1047 97 q 1261 299 1203 221 q 1365 468 1319 376 q 1440 650 1411 560 q 1479 825 1468 740 q 1488 909 1486 875 q 1488 989 1490 943 q 1467 1067 1485 1035 q 1418 1119 1450 1100 q 1285 1118 1356 1156 q 1197 1001 1214 1081 q 1144 1025 1167 1007 q 1114 1072 1121 1043 q 1124 1133 1108 1106 q 1168 1178 1139 1161 q 1228 1204 1197 1194 q 1289 1215 1260 1214 q 1399 1197 1349 1218 q 1481 1138 1449 1175 q 1535 1049 1514 1100 q 1565 944 1557 999 q 1572 833 1574 889 m 660 488 q 946 665 831 515 q 981 715 964 689 q 1021 776 999 740 q 1058 846 1043 811 q 1084 914 1074 881 q 1092 977 1094 947 q 1075 1026 1090 1007 q 1049 1043 1064 1040 q 1018 1040 1035 1046 q 984 1022 1001 1033 q 948 994 967 1011 q 914 960 929 976 q 882 925 899 944 q 856 894 865 906 q 838 869 846 882 q 660 488 703 692 z "},"P":{"ha":1197,"x_min":82,"x_max":1371,"o":"m 1350 1019 q 1289 710 1369 889 q 1128 437 1218 561 q 965 265 1039 313 l 964 264 q 961 263 961 263 q 803 211 879 203 q 688 286 731 219 q 685 371 669 317 q 826 532 707 449 q 878 545 857 547 q 915 534 900 543 q 938 511 929 525 q 951 488 947 497 q 954 478 954 479 q 820 438 894 482 q 722 344 746 393 q 719 317 715 335 q 739 293 724 300 q 850 308 793 285 q 957 383 907 331 q 1087 551 1029 460 q 1207 775 1144 643 q 1263 943 1242 849 q 1256 1117 1294 1079 q 1172 1126 1229 1140 q 1106 1095 1139 1118 q 1040 1035 1072 1072 q 988 975 1007 999 q 942 913 969 951 q 844 755 893 846 q 769 603 796 664 q 696 432 742 543 q 619 256 646 313 q 449 -93 524 47 q 439 -111 444 -100 q 426 -133 432 -126 q 406 -139 419 -139 q 393 -137 400 -139 q 358 -117 365 -135 q 378 -28 346 -93 l 379 -28 q 711 714 610 438 q 753 833 739 789 q 781 948 768 878 q 790 1071 794 1018 q 763 1142 785 1117 q 710 1172 740 1167 q 643 1169 681 1176 q 576 1150 606 1161 q 521 1124 547 1139 q 275 918 393 1056 q 150 651 132 753 q 257 560 163 581 q 351 590 292 553 q 463 681 410 626 q 551 796 517 735 q 576 894 586 857 q 561 921 554 896 q 585 936 568 942 q 589 935 588 936 q 627 891 611 921 q 647 831 643 861 q 643 776 650 801 q 573 653 624 715 q 460 551 522 592 q 344 503 394 508 q 221 531 294 499 q 113 621 143 569 q 96 765 82 672 q 185 960 110 854 q 371 1129 260 1067 q 736 1201 588 1249 q 872 994 872 1157 q 899 1025 878 1000 q 1022 1154 972 1117 q 1145 1210 1085 1201 q 1249 1186 1206 1218 q 1307 1125 1283 1160 q 1350 1019 1339 1090 z "},"Q":{"ha":1151,"x_min":74,"x_max":1315,"o":"m 1269 -119 q 1217 -256 1299 -192 q 1144 -285 1185 -281 q 1069 -278 1103 -289 q 1004 -250 1036 -268 q 890 -160 943 -214 q 778 -34 836 -106 q 682 75 719 38 q 601 21 636 43 q 516 -27 567 -1 q 424 -64 465 -53 q 336 -73 382 -75 q 253 -49 290 -71 q 144 56 185 -10 q 94 201 103 121 q 186 663 74 418 q 488 1056 299 908 q 690 1158 608 1150 q 726 1151 704 1160 q 756 1143 747 1143 q 787 1151 768 1143 q 826 1167 806 1158 q 858 1179 847 1176 q 1048 1151 963 1206 q 1174 1000 1133 1096 q 768 142 1314 654 q 793 114 781 129 q 818 82 806 99 q 840 51 831 65 q 862 17 849 36 q 883 -15 875 -3 q 920 -74 888 -21 q 980 -160 953 -126 q 1032 -208 1007 -194 q 1165 -178 1106 -247 q 1177 -121 1186 -147 q 1153 -67 1168 -94 q 1142 -35 1139 -40 q 1152 -22 1147 -25 q 1163 -19 1157 -18 q 1172 -24 1168 -21 q 1183 -33 1175 -26 q 1196 -44 1190 -40 q 1213 -57 1200 -47 q 1231 -72 1225 -67 q 1245 -85 1236 -76 q 1260 -101 1254 -93 q 1269 -119 1265 -110 m 232 14 q 272 3 249 6 q 258 56 251 25 q 360 181 271 118 q 571 244 449 243 q 597 243 583 244 q 619 240 610 242 q 641 233 629 238 q 659 227 653 229 q 677 220 665 225 q 692 214 689 215 q 806 321 747 261 q 1068 688 989 507 q 1111 819 1094 749 q 1122 967 1128 890 q 1078 1083 1117 1044 q 1004 1115 1050 1111 q 905 1101 958 1119 q 810 1064 851 1083 q 725 1019 768 1044 q 656 975 685 996 q 536 810 561 883 q 560 729 514 746 q 567 715 569 725 q 556 700 565 704 q 426 754 451 664 q 519 958 401 842 q 522 964 521 961 q 255 590 353 819 q 175 160 157 360 q 180 117 178 133 q 188 78 182 101 q 204 38 193 54 q 232 14 215 22 m 356 14 q 431 42 392 24 q 601 143 514 78 q 600 144 601 143 q 583 157 592 151 q 547 172 574 163 q 494 183 521 182 q 430 169 468 183 q 354 125 392 156 q 326 80 329 104 q 333 40 324 56 q 356 14 343 25 z "},"R":{"ha":1563,"x_min":65,"x_max":1661,"o":"m 1528 0 q 1533 -6 1531 1 q 1540 -99 1556 -44 q 1493 -174 1529 -142 q 1443 -199 1475 -190 q 1382 -208 1411 -208 q 1189 -122 1285 -208 q 1076 18 1149 -86 q 950 206 1004 122 q 889 290 896 290 q 881 286 885 290 q 850 181 867 238 q 850 180 850 181 q 849 178 850 179 q 819 77 846 160 q 786 -6 793 -6 q 758 7 781 -6 q 713 44 735 19 q 697 92 692 68 q 713 144 701 111 q 744 233 724 176 q 778 326 765 290 q 776 328 776 328 q 775 331 776 329 q 774 335 775 333 q 742 392 751 365 q 735 435 733 418 q 746 465 738 451 q 761 484 754 478 q 775 493 768 490 q 799 498 785 497 q 823 497 813 499 q 833 497 833 496 l 835 497 q 879 622 857 561 q 918 725 901 683 q 948 799 935 767 q 968 847 961 832 l 975 864 q 965 859 974 863 q 954 855 957 856 q 945 852 951 854 q 935 849 939 850 q 926 849 932 849 q 917 851 921 850 q 899 861 911 853 q 874 880 886 869 q 861 894 861 890 q 871 915 860 906 q 903 931 882 924 q 928 942 924 939 q 1050 1060 979 971 q 1056 1067 1053 1063 q 1060 1073 1060 1071 q 1064 1078 1061 1075 q 1068 1081 1067 1081 q 1072 1083 1069 1082 q 1077 1085 1075 1085 q 1082 1084 1079 1085 q 1088 1083 1085 1083 q 1096 1079 1092 1082 q 1139 1044 1114 1071 q 1148 1033 1144 1039 q 1153 1019 1151 1026 q 1156 1008 1154 1013 q 1155 995 1157 1003 q 1152 983 1153 988 q 1147 970 1151 979 q 1142 958 1143 961 q 1134 943 1140 954 q 1126 928 1128 932 q 1044 747 1092 863 q 1004 638 1032 719 q 954 488 976 557 q 932 415 932 418 q 956 386 943 393 q 1146 458 996 368 l 1149 460 q 1465 769 1328 569 q 1549 947 1529 864 q 1515 1108 1574 1051 q 1131 1169 1422 1199 q 756 1065 931 1149 q 444 839 582 981 q 222 499 276 664 q 204 311 178 369 q 333 290 226 264 q 481 376 417 311 q 565 525 546 442 q 567 610 581 588 q 551 624 560 621 q 531 623 542 626 q 499 611 519 619 q 422 564 460 594 q 388 510 385 533 l 388 501 l 379 501 q 327 524 333 499 q 351 590 321 550 q 407 650 381 629 q 488 689 449 683 q 556 683 528 694 q 617 646 583 671 q 669 504 682 596 q 619 376 661 442 q 519 271 578 311 q 298 209 418 199 q 119 306 178 219 q 114 526 67 386 q 229 744 150 631 q 575 1076 371 949 q 1010 1238 776 1204 q 1469 1188 1292 1279 q 1549 1139 1517 1163 q 1611 1083 1582 1115 q 1651 1008 1640 1050 q 1650 915 1661 965 q 1385 513 1613 726 q 1178 363 1275 408 q 1082 330 1133 340 q 997 317 1031 319 q 961 313 963 314 q 976 288 964 307 q 1428 -92 1257 -158 q 1514 -26 1492 -67 q 1517 -18 1515 -25 q 1522 -6 1519 -11 q 1528 0 1525 -1 m 786 388 q 793 375 789 378 q 813 432 803 404 q 810 434 811 433 q 808 435 810 435 q 799 432 806 435 q 788 414 792 428 q 786 388 783 400 z "},"S":{"ha":917,"x_min":83,"x_max":1128,"o":"m 1118 1100 q 1074 965 1128 1039 q 942 851 1019 892 q 854 832 899 832 q 776 854 810 832 q 740 913 742 876 q 788 1004 740 953 q 875 1036 842 1064 q 893 1011 886 1028 q 870 960 897 1001 q 847 899 843 918 q 977 1008 917 926 q 1014 1142 1038 1090 q 954 1183 1000 1178 q 853 1169 908 1189 q 749 1125 799 1150 q 672 1078 700 1100 q 563 974 606 1024 q 500 885 521 924 q 483 802 479 846 q 494 730 486 758 q 535 661 503 701 q 590 599 568 621 q 656 535 611 576 q 674 517 668 524 q 691 501 681 511 q 710 483 701 492 q 776 414 750 443 q 824 353 803 385 q 853 294 846 321 q 859 236 861 267 q 842 174 857 206 q 769 80 818 124 q 656 5 719 36 q 522 -43 593 -26 q 278 -33 422 -67 q 96 76 117 4 q 124 163 85 117 q 263 258 174 221 q 383 258 351 296 q 256 157 317 229 q 222 53 196 85 q 350 27 257 21 q 511 64 443 33 q 681 171 601 103 q 761 299 761 239 q 726 377 761 331 q 649 461 692 424 q 555 544 607 499 q 483 611 503 590 q 387 916 347 758 q 633 1193 426 1074 q 799 1245 708 1236 q 964 1226 889 1254 q 1118 1100 1107 1176 z "},"T":{"ha":922,"x_min":74,"x_max":1840,"o":"m 1828 1344 q 1834 1293 1840 1317 q 1817 1251 1828 1269 q 1782 1218 1806 1232 q 1733 1193 1758 1204 q 1676 1174 1708 1182 q 1615 1162 1643 1167 q 1556 1154 1588 1157 q 1503 1150 1525 1151 q 1463 1149 1482 1149 q 1193 1165 1354 1146 q 1088 1188 1142 1171 q 1063 1126 1086 1189 q 1009 977 1040 1063 q 960 854 978 892 q 806 466 931 789 q 665 90 682 143 q 658 69 668 92 q 634 22 647 46 q 617 -1 621 -1 q 545 27 563 -1 q 543 103 528 56 q 576 194 547 125 q 642 355 604 264 q 699 497 681 446 q 807 795 740 608 q 910 1081 874 982 q 964 1210 947 1181 q 892 1215 933 1214 q 801 1216 851 1217 q 743 1217 750 1215 q 510 1186 613 1218 q 306 1074 396 1153 q 174 882 215 994 q 154 786 156 833 q 167 701 153 739 q 216 639 181 663 q 303 615 251 615 q 388 640 343 615 q 465 701 433 665 q 513 806 514 760 q 493 833 513 810 q 389 818 461 853 q 326 769 346 797 q 306 722 306 740 l 306 704 q 299 715 303 708 q 288 740 296 721 q 276 777 279 760 q 279 816 274 794 q 303 854 285 838 q 404 894 342 890 q 504 868 467 897 q 536 829 519 861 q 556 786 553 797 q 522 639 571 718 q 438 552 486 581 q 340 526 389 524 q 244 560 290 529 q 112 727 149 624 q 110 948 75 831 q 249 1160 144 1065 q 322 1215 283 1190 q 394 1256 360 1239 q 474 1283 429 1272 q 551 1300 519 1293 q 633 1308 582 1307 q 711 1308 683 1308 q 793 1303 739 1308 q 869 1296 847 1299 q 947 1285 892 1293 q 1019 1275 1003 1278 q 1076 1268 1051 1271 q 1170 1258 1100 1265 q 1297 1249 1240 1251 q 1431 1244 1354 1246 q 1567 1248 1508 1242 q 1678 1266 1625 1254 q 1762 1301 1732 1278 q 1793 1358 1792 1325 q 1747 1384 1788 1382 q 1663 1376 1706 1386 q 1593 1351 1619 1365 q 1598 1361 1594 1356 q 1612 1382 1601 1367 q 1633 1410 1622 1397 q 1661 1436 1644 1424 q 1694 1454 1678 1449 q 1732 1456 1711 1460 q 1774 1436 1753 1453 q 1828 1344 1806 1407 z "},"U":{"ha":1472,"x_min":69,"x_max":1601,"o":"m 1467 -12 q 1439 -36 1464 -19 q 1383 -67 1414 -53 q 1338 -81 1353 -82 q 1305 -69 1322 -79 q 1279 -52 1288 -60 q 1254 -28 1271 -44 q 1197 61 1208 19 q 1192 178 1186 103 q 1242 431 1200 290 q 1092 201 1136 261 q 910 13 1006 90 q 806 -44 849 -36 q 700 -17 753 -56 q 647 335 561 86 q 702 479 672 407 q 782 659 732 551 q 847 801 832 767 q 900 926 878 871 q 929 1051 931 1007 q 921 1081 928 1071 q 901 1094 914 1092 q 874 1094 888 1096 q 840 1083 860 1092 q 808 1069 821 1075 q 776 1053 794 1063 q 751 1040 758 1043 q 673 1004 731 1031 q 588 964 615 978 q 510 924 560 950 q 428 876 460 897 q 360 824 397 854 q 296 761 324 793 q 185 538 206 660 q 192 464 175 481 q 289 461 214 440 q 403 513 351 478 q 476 597 456 547 q 482 627 479 606 q 492 658 485 649 q 515 667 501 672 q 537 653 528 663 q 551 633 546 643 q 556 569 567 606 q 526 502 546 533 q 481 447 506 471 q 385 390 440 410 q 278 376 331 371 q 174 414 221 382 q 107 493 128 446 q 124 690 69 575 q 249 864 167 785 q 433 996 331 943 q 569 1062 481 1021 q 694 1121 657 1103 q 774 1156 740 1144 q 849 1169 807 1168 q 926 1149 892 1169 q 994 1082 969 1122 q 1018 992 1018 1042 q 1015 960 1017 976 q 1010 931 1013 943 q 1000 898 1007 918 q 990 868 993 878 q 977 835 988 858 q 965 807 967 813 q 950 776 963 801 q 936 747 938 750 q 822 489 882 631 q 725 231 744 303 q 701 104 707 167 q 739 33 696 32 q 757 36 747 33 q 773 42 767 39 q 790 53 779 46 q 805 64 800 60 q 820 76 810 68 q 832 86 831 85 q 931 179 885 129 q 975 231 953 203 q 1014 280 997 258 q 1053 335 1031 301 q 1088 387 1076 369 q 1125 444 1100 404 q 1158 498 1150 485 q 1192 557 1165 511 q 1225 613 1219 603 q 1358 856 1301 743 q 1474 1110 1447 1029 q 1483 1134 1479 1125 q 1494 1158 1486 1143 q 1514 1178 1503 1174 q 1539 1179 1525 1183 q 1564 1165 1551 1175 q 1585 1140 1576 1154 q 1597 1114 1594 1126 q 1586 1056 1600 1097 q 1563 993 1578 1033 q 1535 924 1553 969 q 1508 858 1517 879 q 1322 331 1368 508 q 1294 192 1303 256 q 1285 63 1292 178 q 1291 7 1282 33 q 1325 -11 1300 -19 q 1347 -5 1325 -11 q 1383 8 1369 1 q 1420 35 1396 14 q 1465 89 1444 57 q 1478 39 1478 60 q 1467 -12 1479 18 z "},"V":{"ha":1279,"x_min":78,"x_max":1963,"o":"m 1946 1336 q 1921 1209 1963 1271 q 1815 1099 1879 1147 q 1658 1026 1739 1042 q 1492 1038 1586 1013 q 1488 1023 1490 1032 q 1485 1008 1485 1014 q 1477 983 1482 997 q 1467 956 1472 969 q 1455 928 1461 942 q 1442 901 1449 914 q 1432 880 1436 889 q 1425 865 1428 871 l 1422 860 q 1355 749 1399 811 q 1278 648 1311 688 q 1194 549 1246 608 q 1133 479 1142 489 q 788 64 865 163 q 708 -35 721 -19 q 707 -37 708 -36 q 698 -50 701 -46 q 688 -61 694 -54 q 676 -71 681 -68 q 665 -74 671 -74 q 652 -69 658 -74 q 638 -51 646 -64 q 628 -36 629 -39 q 607 0 610 -12 q 618 103 600 44 q 698 365 638 168 q 808 726 758 563 q 864 907 858 889 q 903 1038 876 960 q 902 1049 906 1046 q 892 1046 899 1051 q 822 982 840 994 q 714 914 772 944 q 640 877 682 896 q 555 840 597 858 q 481 804 513 821 q 320 681 392 756 q 207 518 249 607 q 174 318 146 392 q 289 278 193 267 q 449 342 374 286 q 569 478 525 397 q 608 583 599 531 q 608 664 621 643 q 580 683 600 681 q 542 674 560 685 q 529 663 535 669 q 522 653 524 657 q 518 640 519 649 q 517 628 517 632 q 517 613 517 624 q 517 600 517 603 q 469 660 474 628 q 499 724 464 696 q 568 744 533 753 q 628 694 594 738 q 672 622 663 650 q 665 457 699 547 q 561 299 631 367 q 406 201 494 233 q 246 197 317 169 q 124 314 179 222 q 97 483 78 386 q 171 659 114 572 q 308 813 228 746 q 392 870 344 843 q 478 915 439 897 q 570 956 517 932 q 658 1000 624 981 q 825 1118 743 1044 q 956 1258 908 1194 q 963 1269 957 1260 q 973 1283 969 1279 q 983 1293 976 1286 q 996 1301 990 1300 q 1008 1301 1001 1303 q 1017 1297 1013 1300 q 1025 1285 1021 1293 q 1031 1276 1029 1278 q 1042 1264 1032 1275 q 1056 1246 1051 1253 q 1060 1231 1060 1239 q 1059 1212 1061 1222 q 1056 1196 1057 1201 q 1049 1177 1054 1190 q 1042 1160 1043 1164 q 1011 1049 1033 1133 q 869 578 989 961 q 743 171 750 196 q 806 249 771 207 q 870 324 842 292 q 937 401 899 357 q 1001 476 975 446 q 1069 553 1015 494 q 1168 665 1124 613 q 1266 789 1213 718 q 1359 935 1319 860 q 1417 1081 1399 1011 q 1415 1094 1418 1088 q 1408 1105 1413 1101 q 1396 1115 1404 1108 q 1386 1122 1388 1121 q 1281 1338 1294 1196 q 1307 1429 1274 1415 q 1320 1431 1315 1429 q 1333 1429 1325 1433 q 1346 1423 1342 1425 q 1358 1415 1350 1421 q 1370 1405 1367 1408 q 1381 1395 1374 1401 q 1390 1386 1389 1389 q 1497 1176 1483 1303 q 1497 1146 1497 1171 q 1500 1115 1497 1121 q 1529 1101 1504 1101 q 1533 1101 1532 1101 q 1665 1125 1600 1100 q 1778 1192 1725 1149 q 1861 1293 1832 1235 q 1878 1360 1882 1332 q 1847 1404 1875 1381 q 1838 1410 1844 1406 q 1828 1419 1832 1415 q 1819 1428 1824 1422 q 1814 1439 1815 1433 q 1812 1450 1811 1444 q 1817 1460 1813 1456 q 1826 1467 1821 1465 q 1886 1442 1851 1472 q 1926 1397 1915 1417 q 1946 1336 1935 1382 m 1421 1135 q 1423 1135 1422 1135 q 1424 1138 1424 1136 q 1410 1289 1431 1213 q 1388 1339 1400 1326 q 1369 1347 1378 1347 q 1353 1333 1360 1347 q 1357 1283 1349 1322 q 1371 1215 1369 1222 q 1421 1135 1390 1149 z "},"W":{"ha":1521,"x_min":83,"x_max":1685,"o":"m 1678 1046 q 1615 760 1672 906 q 1457 438 1557 615 q 1197 72 1340 228 q 1161 32 1178 49 q 1117 -10 1144 15 q 1065 -50 1089 -36 q 1015 -74 1042 -64 q 966 -78 989 -85 q 925 -50 943 -72 q 885 53 896 -12 q 875 167 874 118 q 883 288 876 217 q 834 213 867 264 q 779 131 801 163 q 721 61 757 99 q 647 3 685 24 q 585 -17 613 -19 q 539 -1 558 -14 q 507 39 519 13 q 488 92 494 65 q 479 147 482 119 q 487 271 475 207 q 526 406 499 335 q 578 528 554 476 q 642 660 601 579 q 700 778 683 740 q 716 809 703 782 q 734 847 729 836 q 750 885 739 858 q 765 928 761 911 q 774 966 769 944 q 776 1005 778 988 q 768 1035 775 1022 q 535 978 733 1108 q 529 974 531 975 q 319 796 408 894 q 174 515 168 625 q 200 466 176 478 q 257 465 224 454 q 322 494 290 476 q 378 533 354 513 q 474 653 435 585 q 518 788 513 722 q 503 775 510 783 q 492 760 496 767 q 483 740 489 753 q 476 722 478 726 q 453 782 443 738 q 496 846 463 826 q 531 853 517 856 q 555 835 544 851 q 570 804 565 819 q 578 772 575 789 q 557 623 588 704 q 466 475 526 542 q 335 381 406 408 q 197 380 254 354 q 111 469 139 406 q 97 603 83 532 q 196 805 118 704 q 375 988 274 906 q 696 1144 560 1133 q 776 1128 744 1147 q 822 1077 808 1110 q 840 1003 835 1044 q 836 921 844 963 q 820 846 831 885 q 797 774 810 807 q 767 701 785 740 q 735 631 750 661 q 700 558 719 600 q 668 489 681 517 q 576 253 608 358 q 569 227 575 246 q 560 198 563 208 q 553 172 557 188 q 547 142 549 156 q 544 117 544 128 q 614 106 546 51 q 636 125 625 114 q 804 344 699 186 q 1051 763 933 533 q 1164 829 1118 890 q 1143 692 1192 792 q 1071 553 1129 661 q 989 382 1013 446 q 972 338 978 354 q 958 292 967 321 q 944 243 949 264 q 935 197 939 222 q 933 149 932 172 q 938 107 933 126 q 1054 83 964 6 q 1442 631 1251 254 q 1554 983 1544 833 q 1538 1129 1560 1068 q 1514 1172 1535 1138 q 1492 1204 1493 1207 q 1519 1274 1494 1251 q 1575 1290 1544 1296 q 1629 1256 1606 1283 q 1678 1046 1683 1190 z "},"X":{"ha":1283,"x_min":83,"x_max":1763,"o":"m 1489 40 q 1488 26 1492 39 q 1472 -7 1485 13 q 1440 -46 1460 -26 q 1381 -80 1419 -65 q 1292 -97 1342 -94 q 1205 -87 1243 -99 q 1147 -58 1167 -76 q 1116 -20 1128 -39 q 1101 13 1104 -1 l 1099 26 q 1071 182 1088 68 q 1040 469 1053 306 q 968 383 1018 446 q 905 306 944 356 q 832 215 865 256 q 768 138 799 174 q 559 -96 654 1 q 360 -262 464 -193 q 163 -285 235 -347 q 104 -201 125 -253 q 96 -97 83 -149 q 138 -18 106 -61 q 204 40 169 25 q 247 34 233 51 q 243 -8 260 17 q 227 -30 239 -17 q 211 -50 215 -43 q 186 -112 199 -71 q 183 -124 186 -114 q 178 -139 179 -135 q 174 -153 176 -143 q 171 -168 171 -162 q 171 -181 171 -174 q 173 -193 171 -187 q 179 -203 175 -199 q 269 -193 201 -226 q 353 -137 307 -174 q 422 -79 399 -101 q 496 -10 446 -57 q 694 214 585 78 q 888 453 790 332 q 982 568 933 508 q 1002 593 983 569 q 1031 628 1021 617 q 1038 665 1038 638 q 1035 740 1039 692 q 1031 794 1032 789 q 1010 1032 1024 950 q 981 1147 999 1096 q 976 1156 979 1149 q 973 1166 974 1164 q 969 1175 972 1168 q 965 1185 967 1182 q 960 1192 964 1188 q 953 1200 957 1197 q 946 1206 950 1203 q 938 1211 942 1210 q 736 1103 885 1232 q 602 967 664 1039 q 492 812 540 894 q 421 651 443 729 q 427 563 406 596 q 504 526 449 531 q 688 572 600 519 q 807 711 775 624 q 818 829 838 797 q 808 840 819 832 q 806 857 801 849 q 830 840 808 865 q 870 776 851 815 q 883 710 889 738 q 809 560 867 631 q 670 453 751 490 q 514 432 589 415 q 361 549 408 454 q 354 754 314 643 q 485 995 397 876 q 685 1203 572 1114 q 833 1285 765 1265 q 946 1288 900 1304 q 1028 1228 992 1272 q 1086 1128 1065 1183 q 1122 1004 1107 1074 q 1143 882 1138 935 q 1151 775 1149 829 q 1444 1126 1297 950 q 1475 1164 1453 1136 q 1510 1207 1497 1192 q 1545 1243 1524 1222 q 1589 1276 1567 1264 q 1633 1293 1611 1289 q 1747 1238 1699 1307 q 1758 1217 1754 1228 q 1760 1191 1763 1206 q 1744 1167 1758 1176 q 1726 1160 1735 1157 q 1715 1168 1718 1164 q 1706 1181 1711 1172 q 1699 1193 1701 1190 q 1679 1201 1689 1200 q 1655 1192 1669 1201 q 1626 1172 1640 1183 q 1596 1144 1613 1161 q 1565 1110 1579 1126 q 1535 1074 1550 1093 q 1508 1041 1519 1056 q 1487 1012 1497 1026 q 1471 992 1476 997 q 1407 915 1443 958 q 1342 838 1371 872 q 1278 762 1314 804 q 1215 685 1243 719 q 1154 536 1150 604 q 1163 458 1157 508 q 1171 389 1169 407 q 1177 313 1174 363 q 1183 231 1181 263 q 1192 158 1186 200 q 1204 81 1197 115 q 1242 -15 1215 25 q 1244 -19 1243 -17 q 1304 -61 1275 -65 q 1321 -58 1313 -60 q 1336 -52 1329 -56 q 1348 -45 1343 -49 q 1360 -36 1353 -42 q 1370 -27 1367 -31 q 1381 -16 1374 -24 q 1393 -6 1389 -8 q 1428 19 1406 7 q 1469 38 1451 32 q 1489 40 1486 43 z "},"Y":{"ha":1399,"x_min":81,"x_max":1528,"o":"m 1429 -124 q 1438 -126 1435 -121 q 1438 -135 1442 -131 q 1282 -193 1371 -229 q 1233 -145 1254 -182 q 1199 -69 1211 -108 q 1167 12 1186 -29 q 1124 68 1147 53 q 1071 -46 1090 -6 q 938 -267 996 -200 q 874 -321 906 -301 q 806 -338 842 -340 q 739 -306 769 -336 q 706 -271 715 -282 q 687 -244 696 -260 q 676 -211 678 -228 q 688 -126 669 -181 q 758 -10 707 -71 q 862 74 796 38 q 975 122 928 110 l 1021 136 q 1225 586 1064 211 q 1278 701 1238 615 q 1339 835 1319 788 q 1211 678 1321 814 q 1065 517 1125 571 q 925 451 986 446 q 863 479 889 456 q 813 543 838 503 q 747 700 751 638 q 753 770 744 731 q 771 830 763 810 q 799 897 779 850 q 815 931 803 906 q 833 972 826 957 q 844 1009 839 988 q 849 1047 850 1031 q 811 1084 846 1078 q 724 1077 776 1090 q 637 1052 672 1064 q 571 1028 601 1040 q 460 969 515 1004 q 355 887 406 933 q 263 788 304 840 q 196 674 222 736 q 164 550 169 613 q 185 481 160 503 q 251 465 211 460 q 331 484 292 469 q 400 518 371 499 q 492 668 490 581 q 490 681 492 672 q 488 696 489 689 q 486 710 486 703 q 490 723 486 718 q 500 728 493 728 q 543 679 521 729 q 549 526 576 600 q 446 404 522 453 q 351 365 400 376 q 254 363 303 353 q 174 411 206 374 q 99 553 117 476 q 110 721 82 631 q 289 982 156 856 q 611 1164 428 1114 q 797 1185 732 1197 q 908 1086 868 1171 q 926 1013 924 1051 q 917 937 928 975 q 894 865 907 899 q 863 789 881 832 q 836 717 844 746 q 846 576 807 613 q 888 559 864 561 q 934 565 911 557 q 978 588 957 574 q 1047 649 1010 611 q 1102 710 1083 686 q 1163 792 1121 735 q 1213 860 1204 850 q 1463 1171 1310 988 q 1519 1185 1500 1215 q 1526 1132 1526 1176 q 1524 1093 1526 1113 q 1515 1052 1521 1074 q 1505 1016 1510 1031 q 1491 975 1500 1001 q 1478 939 1482 949 q 1451 863 1467 904 l 1167 164 q 1149 124 1167 161 q 1322 -64 1233 86 q 1429 -124 1367 -140 m 901 -128 q 935 -77 918 -107 q 963 -23 951 -47 q 1004 64 975 1 q 990 57 999 61 q 957 38 982 53 q 909 8 932 24 q 857 -33 886 -8 q 806 -85 828 -58 q 769 -146 785 -111 q 749 -217 753 -181 q 754 -232 749 -217 q 814 -221 769 -250 q 831 -208 822 -215 q 847 -194 840 -200 q 862 -178 853 -189 q 875 -162 871 -167 q 889 -144 879 -157 q 901 -128 899 -131 z "},"Z":{"ha":1006,"x_min":89,"x_max":1319,"o":"m 904 -51 q 973 -55 943 -57 q 1029 -43 1003 -53 q 1075 -22 1056 -33 q 1111 4 1094 -11 q 1138 31 1128 19 q 1158 54 1149 43 q 1174 69 1168 65 q 1153 -92 1185 -25 q 1038 -171 1121 -158 q 881 -158 960 -183 q 703 -72 803 -132 q 415 15 600 -10 q 197 -54 301 31 q 176 -73 192 -58 q 151 -93 160 -87 q 131 -103 143 -99 q 110 -97 118 -107 q 96 -64 101 -87 q 101 -7 89 -35 q 128 37 113 21 q 175 80 143 53 q 215 115 207 107 q 1206 1132 560 461 q 571 928 682 935 q 335 1075 333 913 q 355 1172 335 1124 q 413 1261 375 1219 q 497 1328 450 1303 q 606 1357 550 1358 q 692 1317 661 1356 q 713 1205 721 1281 q 660 1088 704 1129 q 617 1065 643 1072 q 567 1068 590 1058 q 540 1107 543 1078 q 545 1125 539 1124 q 566 1122 551 1126 q 589 1119 581 1117 q 638 1147 613 1125 q 671 1192 664 1168 q 625 1256 688 1243 q 494 1235 558 1269 l 476 1222 q 398 1132 431 1186 q 396 1051 365 1078 q 453 1019 419 1029 q 522 1007 486 1008 q 599 1013 557 1006 q 680 1030 642 1019 q 761 1056 718 1040 q 836 1083 804 1071 q 903 1110 868 1096 q 956 1131 939 1125 q 1074 1176 975 1138 q 1228 1232 1174 1215 q 1247 1226 1232 1232 q 1277 1207 1261 1219 q 1306 1178 1293 1194 q 1318 1139 1318 1161 q 1300 1094 1318 1117 q 1107 880 1233 1014 q 961 722 981 746 q 704 448 908 661 q 379 114 500 235 q 533 88 456 111 q 664 38 610 64 q 785 -16 718 11 q 904 -51 851 -43 z "},"[":{"ha":667,"x_min":146,"x_max":772,"o":"m 636 1153 q 689 1156 654 1156 q 743 1157 724 1156 q 752 1151 744 1157 q 765 1141 760 1146 q 769 1132 769 1136 q 768 1122 771 1126 q 756 1110 765 1117 q 746 1104 746 1104 q 732 1092 742 1101 q 717 1078 722 1082 q 668 1060 710 1074 q 575 1042 613 1043 q 539 1044 554 1040 q 527 1049 535 1046 q 517 1054 519 1053 q 513 1054 515 1054 q 506 1050 507 1056 q 504 1044 506 1047 q 496 989 499 1026 q 492 947 493 951 q 476 838 485 894 q 439 632 461 742 q 356 219 368 286 q 344 155 351 196 q 331 79 338 114 q 319 15 325 44 q 315 3 318 13 q 310 -14 313 -6 q 311 -24 308 -22 q 323 -29 313 -28 q 347 -32 333 -31 q 360 -33 360 -33 q 469 -49 460 -47 q 550 -71 529 -60 q 583 -96 565 -81 q 586 -117 600 -111 q 574 -117 579 -118 q 558 -114 568 -117 q 546 -111 549 -111 q 497 -107 524 -108 q 396 -101 443 -103 q 304 -112 347 -100 q 271 -125 282 -118 q 255 -140 264 -129 q 242 -154 246 -150 q 232 -159 236 -158 q 222 -158 228 -160 q 214 -153 217 -156 q 205 -146 211 -151 q 197 -138 199 -140 q 183 -128 194 -136 q 163 -112 171 -119 q 153 -99 156 -106 q 151 -85 147 -93 q 158 -72 154 -76 q 170 -60 163 -68 q 182 -49 178 -53 q 218 36 203 -24 q 233 98 226 65 q 246 174 239 131 q 256 236 253 217 q 340 658 294 449 q 414 1124 401 939 q 413 1137 414 1126 q 413 1156 413 1147 q 418 1168 414 1164 q 424 1172 421 1171 q 428 1174 426 1174 q 433 1173 431 1175 q 438 1169 436 1171 q 443 1165 439 1168 q 449 1161 447 1163 q 463 1150 454 1157 q 474 1140 471 1143 q 486 1132 478 1138 q 499 1126 494 1126 q 513 1124 503 1126 q 531 1125 524 1122 q 584 1139 549 1128 q 636 1153 619 1150 z "},"\\":{"ha":814,"x_min":131,"x_max":681,"o":"m 619 0 q 605 10 613 0 q 592 31 597 21 q 585 46 588 40 q 515 188 583 51 q 499 222 504 211 l 489 244 q 443 342 460 308 q 367 499 418 396 q 254 719 294 644 q 193 838 213 799 q 163 917 181 864 q 153 949 156 938 q 146 963 151 953 q 135 1008 131 996 q 146 1024 135 1014 q 167 1042 157 1035 l 176 1050 q 207 1021 189 1033 q 228 993 219 1007 q 240 972 233 985 q 251 949 247 958 q 254 940 256 940 q 322 811 276 897 q 407 647 379 703 l 565 319 q 629 183 608 229 q 638 164 631 179 q 665 103 656 124 q 671 93 668 100 q 680 69 679 76 q 668 46 681 63 q 660 35 667 43 q 619 0 632 1 z "},"]":{"ha":664,"x_min":-107,"x_max":519,"o":"m 29 -136 q -24 -140 11 -140 q -78 -142 -58 -139 q -85 -135 -78 -140 q -98 -124 -93 -129 q -104 -115 -103 -119 q -102 -105 -106 -110 q -89 -94 -99 -100 q -79 -87 -79 -87 q -74 -83 -76 -86 q -68 -76 -71 -79 q -62 -72 -65 -74 q -57 -67 -60 -69 q -50 -61 -54 -64 q -1 -44 -44 -57 q 90 -25 53 -26 q 128 -28 111 -24 q 138 -33 131 -29 q 150 -37 146 -36 q 153 -37 151 -37 q 160 -33 158 -39 l 161 -28 q 167 3 165 -14 q 171 39 169 19 q 174 69 172 58 q 189 179 181 122 q 228 385 206 275 q 310 796 299 732 q 326 884 313 807 q 347 1001 339 961 q 350 1013 347 1003 q 355 1031 353 1022 q 356 1040 357 1039 q 342 1046 353 1044 q 319 1048 332 1047 q 306 1050 306 1049 q 197 1065 206 1064 q 117 1088 136 1076 q 83 1113 100 1097 q 79 1133 67 1128 q 92 1134 86 1135 q 108 1131 97 1133 q 121 1128 118 1128 q 168 1122 142 1125 q 269 1118 222 1119 q 361 1129 318 1117 q 396 1142 385 1135 q 410 1156 401 1146 q 425 1171 419 1167 q 434 1176 429 1175 q 444 1174 439 1176 q 452 1170 449 1172 q 461 1163 456 1168 q 469 1155 467 1157 q 483 1144 471 1153 q 502 1129 494 1136 q 514 1115 510 1122 q 516 1101 519 1110 q 508 1089 513 1093 q 496 1077 504 1085 q 485 1065 488 1069 q 447 981 464 1040 q 433 919 439 951 q 421 843 428 886 q 410 781 414 800 q 326 358 371 568 q 251 -107 265 76 q 252 -120 251 -110 q 252 -139 253 -131 q 247 -151 251 -147 q 243 -156 246 -154 q 238 -158 240 -157 q 233 -156 236 -158 q 228 -153 229 -154 q 223 -149 226 -153 q 217 -144 219 -146 q 203 -133 213 -140 q 191 -124 194 -126 q 180 -115 188 -121 q 168 -110 172 -110 q 153 -108 164 -110 q 135 -108 143 -106 q 82 -123 117 -112 q 29 -136 47 -133 z "},"^":{"ha":653,"x_min":68,"x_max":583,"o":"m 476 753 q 428 822 449 771 q 392 940 408 874 q 363 1031 375 1006 q 206 789 313 968 q 194 769 204 786 q 178 742 185 753 q 161 717 171 731 q 142 696 151 703 q 126 690 133 689 q 113 697 118 692 q 101 711 107 703 q 90 722 96 719 q 83 727 88 724 q 78 731 79 731 q 74 735 76 732 q 71 739 71 738 q 69 743 71 740 q 69 749 68 746 q 70 756 69 751 q 71 765 71 760 q 119 868 78 800 q 211 1011 129 883 q 290 1135 281 1119 q 303 1156 293 1139 q 322 1185 314 1174 q 338 1203 331 1197 q 355 1211 353 1211 q 372 1203 357 1211 q 397 1190 379 1199 q 425 1174 414 1181 q 449 1158 436 1168 q 469 1138 463 1147 q 483 1109 478 1126 q 494 1065 489 1092 q 500 1032 499 1038 q 561 788 546 838 q 566 776 563 783 q 572 762 569 769 q 578 746 575 754 q 582 730 581 738 q 583 715 583 722 q 578 703 582 708 q 567 696 575 699 q 551 698 561 694 q 531 709 542 701 q 511 725 521 717 q 491 741 501 733 q 476 753 481 749 z "},"_":{"ha":1371,"x_min":133,"x_max":1229,"o":"m 360 -43 q 450 -42 403 -43 q 554 -39 497 -40 q 644 -37 611 -37 q 724 -37 679 -37 q 815 -37 769 -37 q 894 -39 861 -37 q 1010 -39 951 -39 q 1042 -38 1019 -39 q 1083 -37 1065 -37 q 1115 -40 1101 -37 q 1147 -56 1131 -43 q 1169 -72 1153 -60 q 1196 -92 1185 -83 q 1215 -108 1207 -100 q 1221 -129 1228 -124 q 1186 -133 1214 -135 q 1064 -129 1117 -129 q 563 -132 821 -128 q 463 -135 551 -132 q 328 -137 374 -139 q 228 -125 256 -136 q 156 -71 197 -111 q 178 -47 133 -50 q 208 -47 188 -47 l 225 -47 q 360 -43 244 -46 z "},"`":{"ha":461,"x_min":131,"x_max":331,"o":"m 328 931 q 326 922 329 926 q 317 918 322 918 l 279 918 q 274 921 275 918 l 135 1100 q 135 1109 132 1104 q 144 1114 139 1114 l 243 1114 q 249 1111 247 1114 l 328 931 z "},"a":{"ha":544,"x_min":-17,"x_max":729,"o":"m 686 615 q 691 619 688 617 q 703 624 694 621 q 716 624 711 626 q 725 613 721 621 q 724 585 729 604 q 715 563 721 576 q 703 538 710 550 q 686 507 696 525 q 669 475 676 489 q 547 272 614 360 q 426 151 481 185 q 392 134 408 140 q 365 128 375 128 q 347 131 354 129 q 336 136 339 133 l 333 139 l 265 204 q 229 204 250 218 q 199 189 214 194 q 171 181 183 183 q 144 180 158 178 q 121 184 131 182 q 99 193 111 186 q 80 204 86 200 q 63 219 74 208 q 48 233 51 229 q 35 247 44 236 q 25 257 25 257 q 0 296 10 272 q -13 355 -10 319 q -1 438 -17 390 q 51 537 15 486 q 122 619 86 588 q 185 658 157 650 q 232 667 214 667 q 265 663 250 667 q 288 652 275 660 q 312 637 300 644 q 334 622 324 629 q 350 610 344 615 l 357 606 q 374 644 361 619 q 381 657 376 653 q 388 663 385 661 q 393 664 390 664 q 397 663 396 664 l 399 663 l 467 606 l 467 588 q 363 313 400 401 q 341 248 346 272 q 339 219 336 224 l 342 215 q 359 205 347 208 q 417 231 371 201 q 519 339 463 261 q 586 434 556 388 q 634 513 617 481 q 664 569 651 544 q 682 604 676 593 l 686 615 m 331 531 q 337 552 338 539 q 315 589 336 565 q 287 605 304 603 q 247 597 269 607 q 194 555 224 586 q 135 474 165 524 q 98 397 111 435 q 83 335 85 360 q 82 290 81 310 q 86 260 83 269 l 90 250 q 164 283 126 253 q 228 349 201 313 q 280 430 254 385 q 315 497 306 475 q 331 531 325 518 z "},"b":{"ha":574,"x_min":-37,"x_max":735,"o":"m 714 603 q 731 571 729 589 q 722 533 733 553 q 694 496 710 514 q 655 456 679 478 q 612 420 631 435 q 569 388 593 406 q 539 365 546 371 q 508 344 532 360 q 474 318 485 328 q 438 267 458 303 q 408 217 418 231 q 307 126 365 164 q 199 99 249 89 q 142 145 150 108 q 179 215 133 182 q 255 253 199 229 q 336 301 311 276 q 394 421 367 335 q 378 531 432 533 q 367 529 372 531 q 297 496 331 519 q 237 437 264 472 q 192 372 210 401 q 154 303 174 342 q 107 201 129 254 q 99 176 107 201 q 83 138 92 151 q 63 122 75 125 q -4 132 44 117 q -21 196 -37 143 q 4 269 -10 231 q 36 356 18 308 q 64 429 54 403 q 147 678 96 518 q 236 925 199 842 q 386 1085 297 1065 q 475 1079 429 1093 q 551 1036 521 1065 q 578 995 572 1018 q 574 947 583 972 q 552 900 564 921 q 519 851 540 879 q 346 668 453 758 q 327 653 338 661 q 306 640 317 646 q 286 626 296 633 q 266 612 276 619 q 247 597 256 604 q 237 583 242 590 q 231 569 232 575 q 226 553 229 563 q 221 538 224 543 q 358 608 290 604 q 440 581 392 610 q 485 406 518 533 q 615 488 551 432 q 714 603 679 543 m 346 926 q 274 697 329 883 q 417 825 324 721 q 515 978 497 915 q 494 1028 526 1017 q 426 1024 461 1040 q 346 926 375 1001 m 224 142 q 274 167 253 143 q 307 221 296 190 q 294 219 307 221 q 279 216 282 217 q 265 213 276 215 q 247 208 253 210 q 232 202 242 206 q 216 195 222 199 q 203 188 210 192 q 191 178 196 183 q 183 168 186 174 q 193 147 176 154 q 224 142 210 140 z "},"c":{"ha":431,"x_min":-32,"x_max":590,"o":"m 582 585 q 589 572 588 579 q 586 553 590 564 q 578 532 582 542 q 565 509 574 522 q 550 488 556 496 q 535 468 544 481 q 524 453 526 456 q 285 215 422 311 q 150 161 208 163 q 24 218 96 158 q -29 340 -26 261 q 4 483 -32 418 q 114 615 40 553 q 260 646 181 672 q 300 628 279 639 q 342 603 321 618 q 369 572 363 588 q 369 505 382 546 q 326 446 356 464 q 321 449 325 447 q 303 456 308 453 q 294 467 299 460 q 290 485 289 474 q 295 503 292 492 q 302 524 299 514 q 306 543 306 535 q 299 576 306 565 q 276 585 293 586 q 208 554 256 583 q 89 317 97 485 q 86 257 83 293 q 113 211 89 221 q 265 278 154 196 q 496 503 407 382 q 539 565 506 515 q 542 571 539 568 q 554 588 550 583 q 566 594 558 593 q 582 585 574 594 z "},"d":{"ha":633,"x_min":-50,"x_max":792,"o":"m 746 567 q 762 567 754 567 q 774 567 769 567 q 783 567 779 567 q 789 566 788 567 q 791 563 790 565 q 790 556 792 560 q 786 544 789 551 q 722 404 771 503 q 678 326 708 375 q 603 215 647 276 q 515 101 560 153 q 426 19 471 50 q 350 -4 381 -12 q 331 1 344 -3 q 313 6 318 4 q 298 11 307 7 q 282 22 289 15 q 271 36 275 28 q 253 78 258 54 q 239 143 243 106 q 183 103 207 113 l 182 103 q 135 83 156 88 q 119 82 126 82 q 104 83 111 82 q 90 86 97 83 q 76 91 82 89 q 63 97 71 93 q 49 104 54 101 q 36 113 44 107 q 24 121 28 118 q 13 130 21 124 q 3 138 4 136 q -40 206 -31 161 q -41 294 -49 251 q -15 385 -33 338 q 151 626 47 549 q 214 658 188 654 q 274 640 240 661 q 287 631 278 638 q 304 618 296 624 q 321 610 313 613 q 467 974 386 819 q 614 1149 547 1129 l 613 1144 q 654 1142 633 1151 q 699 1107 685 1124 q 715 1058 713 1090 q 692 915 718 1006 q 568 621 656 786 q 379 314 479 456 q 368 299 376 308 q 354 278 363 289 q 340 249 344 263 q 335 218 338 236 q 331 176 332 200 q 335 128 329 151 q 351 92 340 104 q 461 148 390 82 q 581 283 532 214 q 610 326 589 297 q 644 374 631 356 q 675 422 657 393 q 706 472 693 450 q 729 519 718 494 q 746 567 740 544 m 649 1097 q 638 1088 643 1093 q 628 1078 632 1083 q 619 1067 624 1074 q 610 1056 614 1060 q 602 1042 607 1051 q 595 1030 597 1033 q 588 1017 593 1026 q 582 1004 583 1007 q 576 991 581 1001 q 569 979 571 981 q 501 821 535 904 q 394 508 418 617 q 409 519 400 508 q 429 549 418 531 q 450 585 440 568 q 469 619 460 601 q 481 639 479 636 q 563 792 528 719 q 597 868 588 846 q 626 940 607 890 q 651 1027 646 989 q 649 1097 656 1065 m 175 219 q 244 296 228 269 q 272 443 253 364 q 307 567 288 503 q 244 578 285 586 q 221 565 233 575 q 196 540 208 554 q 178 519 188 532 q 108 410 144 476 q 63 288 78 350 q 61 153 38 185 q 175 219 100 151 z "},"e":{"ha":415,"x_min":-31,"x_max":590,"o":"m 588 611 q 540 531 589 603 q 456 411 492 460 q 238 201 346 267 q 202 183 217 190 q 169 171 188 176 q 135 167 151 165 q 103 178 118 168 q 21 229 46 207 q 7 242 15 233 q -15 281 -1 250 q -29 349 -29 313 q -24 393 -29 371 l -24 394 q 67 569 -4 481 q 208 658 138 658 q 215 658 213 658 l 215 658 q 233 655 225 657 q 252 647 242 653 q 267 639 263 642 q 285 627 272 636 q 300 617 297 618 q 338 580 326 599 q 343 531 350 561 q 282 425 331 471 q 160 363 206 353 q 106 389 147 365 q 93 393 96 394 q 85 379 90 392 q 74 344 79 367 q 69 282 65 322 q 93 231 72 242 q 213 257 138 210 q 340 365 275 297 q 458 513 406 433 q 498 565 471 529 q 538 619 525 601 q 569 632 553 644 q 588 611 586 621 m 258 589 q 217 574 247 597 q 168 531 186 551 q 106 424 119 476 q 228 465 165 400 q 267 538 260 499 q 258 589 275 578 z "},"f":{"ha":496,"x_min":-90,"x_max":685,"o":"m 650 594 q 676 608 669 610 q 683 596 683 607 l 683 586 q 478 366 611 404 q 172 432 344 328 q 183 424 174 432 q 197 414 193 417 q 210 403 200 411 q 226 388 219 394 q 240 372 232 381 q 253 352 247 363 q 265 331 260 342 q 286 268 276 310 q 300 164 296 238 q 292 1 304 90 q 191 -263 264 -167 q 46 -332 118 -360 q -42 -290 -18 -308 q -78 -216 -65 -272 q -83 -74 -90 -160 q -56 84 -81 -28 q -17 249 -32 196 q -15 253 -17 250 q 10 336 -8 285 q 23 374 11 340 q 39 422 35 408 q 8 429 28 425 q -23 436 -12 433 q -37 442 -33 439 q -40 476 -44 453 q -16 518 -36 499 q 26 528 4 538 q 78 517 43 521 l 175 757 q 299 976 218 858 q 426 1115 381 1093 q 519 1104 478 1140 q 526 1099 522 1103 q 540 1085 529 1096 q 558 1064 550 1075 q 576 1038 567 1053 q 591 1007 586 1022 q 596 973 596 992 q 588 938 596 954 q 515 804 564 871 q 422 695 467 738 q 320 611 378 653 q 244 558 263 569 q 206 536 226 547 q 193 499 200 519 q 335 433 271 451 q 439 419 399 414 q 515 446 479 424 q 569 492 550 468 q 611 549 588 517 q 650 594 635 581 m 410 985 q 310 801 372 936 q 233 625 247 665 q 481 900 421 807 q 509 947 499 928 q 523 978 519 965 q 528 996 526 992 q 526 1009 529 1000 q 524 1019 524 1018 q 504 1046 519 1039 q 490 1049 497 1049 q 410 985 458 1046 m 200 169 q 168 308 196 251 q 143 346 160 324 l 119 278 q 111 249 117 267 q 104 229 106 231 q 98 203 103 219 q 81 138 93 186 q 59 44 68 89 q 41 -58 50 -1 q 29 -159 32 -115 q 33 -237 26 -203 q 57 -283 39 -272 q 90 -287 72 -293 q 118 -265 108 -282 q 196 25 182 -169 q 200 103 199 58 q 200 108 199 103 q 200 113 200 110 q 200 169 200 142 z "},"g":{"ha":538,"x_min":-169,"x_max":731,"o":"m 690 603 q 715 605 701 607 q 725 592 729 603 q 724 590 725 592 q 708 556 717 574 q 671 492 700 538 q 608 405 642 446 q 514 313 574 364 q 386 222 454 261 q 333 95 369 174 q 246 -80 297 17 q 130 -256 194 -176 q 10 -362 65 -336 q -119 -300 -53 -392 q -156 -158 -169 -231 q -139 -106 -151 -132 q -112 -60 -126 -81 q -75 -16 -99 -39 q -34 22 -51 7 q 14 59 -17 38 q 60 91 44 81 q 107 121 75 101 q 138 141 119 129 q 174 163 157 153 q 206 183 190 174 q 282 240 268 225 q 308 294 292 253 q 318 338 324 335 q 285 298 308 326 q 247 253 261 269 q 208 219 232 236 q 160 194 183 201 q 78 212 113 182 q 21 289 43 242 q 22 488 -26 393 q 196 654 72 588 q 285 654 247 681 q 297 643 290 650 q 310 630 304 636 q 323 617 317 624 q 336 605 329 611 q 350 594 343 599 q 358 614 356 603 q 363 635 361 625 q 368 657 365 646 q 376 678 371 668 q 388 696 381 689 q 446 653 410 718 q 449 649 447 650 q 458 631 451 643 q 469 612 465 619 q 479 593 474 604 q 488 572 485 582 q 490 551 490 561 q 476 490 490 539 q 442 380 461 440 q 419 313 422 319 q 513 383 464 333 q 597 479 563 432 q 658 564 631 526 q 690 603 685 601 m 296 472 q 302 482 297 474 q 308 492 307 490 q 313 501 310 494 q 316 511 315 508 q 318 520 317 514 q 319 530 319 526 q 316 539 318 533 q 311 549 314 544 q 239 564 285 589 q 153 491 192 539 q 96 389 115 443 q 79 275 58 292 q 111 276 88 269 q 160 303 135 283 q 296 472 231 357 m 43 -218 q 246 139 158 -96 q 130 65 219 136 q 4 -44 40 -6 q -78 -167 -51 -103 q -78 -271 -114 -250 q 43 -218 -29 -297 z "},"h":{"ha":600,"x_min":-31,"x_max":753,"o":"m 725 601 q 751 574 749 592 q 740 532 753 556 q 689 431 718 482 q 581 275 663 381 q 472 149 518 192 q 406 117 450 128 q 332 115 361 106 q 272 168 292 128 q 253 255 251 208 q 271 343 254 301 q 287 376 278 358 q 308 414 296 393 q 325 447 319 435 q 331 457 326 449 q 337 469 335 465 q 342 480 339 472 q 347 492 346 488 q 351 503 349 496 q 353 515 353 510 q 353 526 354 519 q 351 536 353 532 q 325 544 343 557 q 294 519 313 536 q 235 454 267 494 q 139 303 164 367 q 123 258 136 296 q 100 201 110 221 q 73 156 92 185 q 47 117 54 128 q 21 122 40 121 q -12 128 1 124 q -28 144 -26 132 q -27 170 -31 156 q -20 195 -24 185 q -9 223 -17 206 q 1 246 -1 240 q 23 308 10 268 q 42 363 36 349 q 62 419 47 378 q 85 483 76 461 q 145 669 96 514 q 229 906 194 824 q 325 1049 272 1007 q 493 1064 396 1104 q 551 963 556 1038 q 525 896 550 935 q 463 807 497 850 q 311 656 406 736 q 244 601 254 608 q 238 592 240 597 q 233 579 235 588 q 231 567 232 571 q 218 521 219 532 q 256 551 229 528 q 304 585 283 575 q 350 596 325 596 q 415 577 386 594 q 453 531 443 560 q 452 459 463 497 q 412 365 442 421 q 376 296 382 310 q 347 203 347 228 q 370 178 347 190 q 406 175 393 167 q 485 254 433 190 q 563 361 525 304 q 605 424 575 381 q 649 492 635 468 q 655 503 650 494 q 665 521 660 511 q 678 542 671 531 q 692 565 685 554 q 706 583 699 575 q 717 597 713 592 q 725 601 722 601 m 344 918 q 283 735 318 849 q 310 753 296 740 q 333 772 318 760 q 358 793 347 783 q 379 814 369 803 q 479 944 431 867 q 496 1011 510 993 q 460 1025 482 1028 q 344 918 383 1017 z "},"i":{"ha":353,"x_min":-19,"x_max":510,"o":"m 492 601 q 507 584 504 589 q 507 557 510 579 q 483 501 504 550 q 442 413 463 450 q 274 194 385 310 q 238 165 261 182 q 190 135 214 149 q 150 117 165 121 q 111 115 126 108 q 76 140 96 122 q 74 144 75 143 q 70 147 72 144 q 67 150 68 149 q 49 165 61 154 q 28 181 36 175 q 12 198 21 188 q -1 218 3 208 q -3 335 -19 253 q 10 385 3 360 q 28 442 17 410 q 47 490 40 474 q 72 546 54 506 q 92 594 89 586 q 116 633 104 622 q 150 636 128 643 q 218 583 197 624 q 221 560 225 576 q 213 533 217 543 q 199 506 208 524 q 188 482 190 489 q 140 358 171 443 q 99 236 103 256 q 96 183 89 203 q 136 174 103 163 q 258 262 188 192 q 369 393 329 332 q 424 482 410 456 q 440 519 426 488 q 465 572 453 551 q 492 601 478 592 m 146 664 q 135 678 135 665 q 174 776 132 728 q 209 808 189 794 q 240 826 229 821 q 273 838 250 831 q 297 846 296 844 q 342 874 322 854 q 347 876 344 876 q 349 872 349 875 q 342 831 346 853 q 324 776 338 810 q 289 719 310 743 q 231 678 268 694 q 146 664 193 661 z "},"j":{"ha":365,"x_min":-415,"x_max":524,"o":"m 507 611 q 520 599 517 608 q 518 578 524 589 q 449 451 469 488 q 389 365 428 414 q 299 272 350 317 q 143 174 238 219 q 64 -35 81 6 q -87 -291 -8 -206 q -268 -369 -165 -376 q -386 -307 -361 -342 q -404 -269 -397 -290 q -413 -215 -411 -247 q -398 -139 -415 -182 q -343 -53 -381 -96 q -204 65 -296 3 q -44 160 -112 126 l 24 193 q 140 551 122 489 q 153 601 150 579 q 154 631 156 622 l 153 639 q 160 645 156 642 q 177 658 164 649 q 203 672 190 668 q 237 679 217 676 q 275 674 257 682 q 288 659 281 671 q 294 642 296 647 q 164 250 199 346 q 329 378 242 275 q 475 592 417 481 q 488 607 479 600 q 504 613 496 614 l 507 611 m -300 -308 q -217 -267 -261 -310 q -137 -165 -172 -225 q -74 -43 -103 -104 q -28 61 -44 18 l -12 104 q -165 -1 -68 82 q -294 -157 -261 -83 q -315 -215 -308 -189 q -319 -258 -321 -242 q -312 -287 -317 -275 q -304 -303 -308 -299 l -300 -308 m 208 729 q 196 742 197 731 q 233 832 193 788 q 267 859 247 847 q 297 875 286 871 q 329 885 307 879 q 354 892 351 892 q 397 918 378 899 q 402 919 400 919 q 404 915 404 918 q 399 886 403 901 q 389 846 396 871 q 367 801 382 821 q 333 762 353 781 q 281 734 314 743 q 208 729 249 725 z "},"k":{"ha":551,"x_min":4,"x_max":678,"o":"m 639 543 q 676 528 674 572 q 669 486 678 504 q 614 382 658 458 q 475 156 565 299 q 453 118 471 147 q 427 78 435 89 q 402 42 419 67 q 374 8 385 18 q 343 -15 363 -1 q 308 -30 324 -28 q 269 -30 292 -32 q 225 -17 247 -28 q 179 30 192 1 q 173 90 167 58 q 187 159 179 122 q 201 228 194 196 q 197 293 208 261 q 124 260 164 390 q 111 217 118 244 l 99 178 q 70 143 88 151 q 38 142 53 135 q 11 168 22 150 q 5 185 6 176 q 6 201 4 194 q 13 220 8 208 q 19 242 18 232 q 95 502 31 290 q 201 808 160 714 q 233 881 222 856 q 269 950 244 906 q 315 1022 293 994 q 368 1078 336 1049 q 435 1125 400 1107 q 517 1143 478 1147 q 581 1115 557 1139 q 614 1055 604 1092 q 607 974 624 1018 q 538 860 588 918 q 430 758 489 801 q 313 690 371 714 q 254 658 271 674 q 224 604 238 643 q 172 435 207 560 q 188 449 178 435 q 210 482 199 463 q 224 504 221 501 q 299 585 263 558 q 360 616 331 607 q 418 617 390 625 q 465 582 446 608 q 465 504 489 546 q 396 425 442 463 q 194 367 301 347 q 276 286 250 328 q 293 182 303 244 q 289 156 293 176 q 289 24 263 25 q 333 57 304 24 q 507 308 425 157 q 582 440 540 368 q 597 472 588 449 q 617 515 607 496 q 639 543 628 533 m 376 579 q 313 538 346 568 q 261 483 279 507 q 215 421 243 460 q 288 433 250 419 q 354 472 326 447 q 394 540 375 490 q 388 583 413 586 q 376 579 383 582 m 403 956 q 369 908 378 921 q 340 865 360 894 q 309 810 321 835 q 289 763 297 786 q 472 901 371 797 q 569 1061 576 1010 q 499 1058 563 1113 q 403 956 436 1003 z "},"l":{"ha":418,"x_min":-17,"x_max":576,"o":"m 551 594 q 560 597 556 599 q 567 592 564 596 q 572 583 569 588 q 575 574 574 578 l 575 571 q 435 351 518 458 q 272 186 351 244 q 199 138 235 158 q 124 105 163 118 q 54 98 86 92 q 4 133 22 104 q -12 180 -8 153 q -10 251 -17 207 q 2 323 -3 294 q 26 413 7 351 q 51 495 44 474 q 81 583 58 517 q 250 967 164 831 q 261 983 254 972 q 289 1026 279 1013 q 315 1061 299 1040 q 347 1092 332 1082 q 384 1111 363 1103 q 432 1122 406 1119 q 539 1036 493 1126 q 547 1008 546 1022 q 542 975 549 993 q 531 943 536 957 q 510 907 525 929 q 488 874 496 885 q 462 839 481 864 q 439 807 443 814 q 349 699 414 775 q 233 564 285 622 l 181 504 q 126 353 147 433 q 111 289 117 319 q 103 233 106 258 q 106 192 101 207 q 124 176 111 176 q 314 297 192 175 q 419 415 364 344 q 512 539 475 486 q 551 594 549 592 m 339 915 q 268 776 303 850 q 217 661 233 701 l 200 619 q 364 824 257 690 q 404 878 386 851 q 435 925 422 904 q 456 965 447 946 q 469 997 464 983 q 474 1022 474 1011 q 473 1038 475 1032 q 467 1047 471 1044 q 449 1051 460 1053 q 424 1040 438 1049 q 389 999 411 1031 q 339 915 367 968 z "},"m":{"ha":857,"x_min":-29,"x_max":1019,"o":"m 976 574 q 981 577 978 575 q 992 582 985 579 q 1006 583 1000 585 q 1015 572 1011 582 q 1015 543 1018 563 q 957 417 1013 526 q 718 68 815 139 q 665 42 689 47 q 633 43 642 38 l 624 49 q 613 55 619 51 q 589 72 607 58 q 558 98 571 85 q 532 131 544 111 q 517 168 519 150 q 517 227 514 196 q 535 301 521 258 q 557 365 550 344 q 586 438 564 386 q 611 494 608 490 q 618 513 611 497 q 628 536 625 528 q 637 560 632 544 q 644 585 642 575 q 645 605 646 594 q 642 622 644 615 q 624 634 635 633 q 601 626 614 635 q 582 610 589 617 q 564 592 575 604 q 401 311 501 528 q 387 273 400 307 q 365 218 374 239 q 332 157 350 174 q 299 147 314 140 q 272 168 285 154 q 253 196 260 182 l 244 211 q 375 549 315 400 q 371 588 379 576 q 275 553 350 611 q 234 514 253 535 q 199 466 215 493 q 173 422 182 439 q 147 368 164 404 q 124 319 131 332 q 111 288 122 317 q 92 240 100 258 q 62 189 79 204 q 29 179 44 174 q 1 196 14 185 q -21 218 -12 207 l -29 231 q 151 669 122 654 q 194 663 175 682 q 207 654 200 658 q 230 618 229 638 q 219 569 231 599 q 245 591 228 575 q 272 615 263 607 q 297 631 282 622 q 328 644 313 640 q 360 644 343 647 q 428 625 394 642 q 471 582 463 608 q 475 563 475 571 q 517 632 504 618 q 549 665 535 653 q 586 688 563 678 q 635 692 610 697 q 701 664 668 686 q 742 611 735 642 q 676 360 756 546 q 625 129 590 161 q 628 128 628 128 q 646 119 633 122 q 703 149 658 115 q 800 267 747 182 q 897 428 853 351 q 958 539 942 504 l 976 574 z "},"n":{"ha":603,"x_min":-33,"x_max":763,"o":"m 739 567 q 756 561 750 568 q 760 533 763 554 q 696 410 757 507 q 574 236 622 296 q 476 149 525 176 q 415 128 444 129 q 362 142 386 126 q 324 172 338 158 q 289 211 310 185 q 282 251 282 229 q 285 290 282 272 q 295 332 288 307 q 309 372 303 357 q 327 414 315 388 q 344 453 339 440 q 350 466 346 456 q 357 483 354 476 q 363 501 360 490 q 369 519 367 511 q 372 535 371 526 q 372 551 374 544 q 367 561 371 557 q 271 524 344 585 q 229 483 247 504 q 195 434 211 463 q 170 388 179 406 q 144 333 161 371 q 122 283 128 296 q 110 251 121 281 q 92 204 99 222 q 90 201 92 203 q 61 150 78 165 q 28 140 44 135 q -1 155 11 146 q -24 176 -12 164 q -28 204 -32 189 q 140 639 113 625 q 186 628 154 647 q 221 599 218 608 q 240 581 225 585 q 269 589 256 578 q 354 619 313 624 q 426 601 390 617 q 471 558 461 585 q 436 389 489 510 q 376 233 390 285 q 381 208 372 218 q 404 199 389 197 q 536 289 463 204 q 714 547 631 400 q 739 567 724 563 z "},"o":{"ha":550,"x_min":-33,"x_max":736,"o":"m 719 621 q 713 581 736 606 q 582 451 635 507 q 524 410 551 421 q 417 426 476 388 q 358 303 397 354 q 243 190 308 236 q 118 146 178 143 q 18 184 60 149 q -28 279 -24 219 q -15 426 -33 350 q 49 560 3 503 q 125 628 81 599 q 217 665 169 657 q 300 646 264 674 q 382 560 351 604 q 401 532 389 551 q 422 501 413 513 q 446 478 432 489 q 528 490 482 463 q 608 554 575 518 q 670 610 636 585 q 719 621 704 635 m 300 597 q 190 532 250 582 q 264 429 218 446 q 317 440 278 424 q 300 597 364 538 m 124 219 q 206 277 167 231 q 292 397 246 324 q 104 436 178 313 q 94 419 99 428 q 49 288 54 344 q 68 230 46 250 q 124 219 90 210 z "},"p":{"ha":629,"x_min":-96,"x_max":826,"o":"m 817 633 q 780 560 826 625 q 701 467 733 496 q 642 423 679 446 q 553 371 606 400 q 490 336 501 342 q 479 317 485 325 q 397 233 447 271 q 294 181 346 196 q 235 169 264 169 q 193 179 211 171 q 160 201 174 188 q 144 234 147 215 q 164 272 142 253 q 257 315 190 296 q 344 346 324 335 q 429 449 392 372 q 451 547 451 501 q 417 594 450 592 q 356 574 393 597 q 300 526 329 557 q 228 429 263 488 q 175 331 193 371 q 128 218 157 290 q 125 211 126 214 q 122 203 124 208 q 119 196 121 199 q 56 -4 99 147 q 43 -48 51 -17 q 29 -98 35 -79 q 15 -142 24 -117 q -3 -187 7 -168 q -6 -197 -4 -192 q -10 -205 -8 -203 q -13 -210 -11 -207 q -16 -215 -15 -214 q -19 -217 -17 -215 q -24 -217 -22 -218 q -30 -215 -26 -217 q -39 -212 -33 -214 q -67 -190 -47 -208 q -89 -164 -86 -172 q -90 -129 -94 -156 q -81 -82 -86 -103 q -67 -34 -75 -61 q -56 3 -58 -7 q -22 135 -42 67 q 27 297 -3 204 q 68 428 57 389 q 97 526 74 444 q 133 650 119 607 q 140 669 136 656 q 146 689 143 682 q 153 705 149 696 q 164 717 157 714 q 180 720 171 721 q 205 704 189 719 q 233 674 221 689 q 251 649 244 658 q 233 578 249 624 q 213 513 217 533 q 240 537 225 522 q 267 565 254 551 q 294 594 279 579 q 323 620 310 608 q 352 642 336 632 q 383 656 368 651 q 416 658 399 660 q 451 649 433 657 q 454 646 451 647 q 525 431 581 586 q 580 459 551 442 q 633 495 608 476 q 681 533 657 514 q 724 569 706 551 q 757 599 743 586 q 779 619 771 613 l 788 628 l 803 643 q 817 633 803 643 m 194 244 q 213 218 185 229 q 300 240 258 199 q 329 283 318 258 q 201 251 233 276 l 200 251 l 200 250 q 194 244 197 247 z "},"q":{"ha":533,"x_min":-28,"x_max":693,"o":"m 692 579 q 688 560 693 572 q 673 531 683 549 q 661 513 663 513 q 582 376 611 417 q 479 257 528 306 q 369 172 431 208 q 351 163 365 169 q 326 151 338 157 q 314 142 315 146 q 315 128 311 136 q 326 110 318 119 q 335 100 333 100 q 364 -17 365 44 q 335 -154 361 -81 q 267 -282 310 -228 q 167 -365 219 -342 q 148 -370 157 -369 q 131 -367 139 -371 q 115 -360 122 -364 q 100 -348 108 -356 q 87 -335 92 -340 q 74 -322 82 -331 q 63 -310 67 -312 q 58 -303 63 -308 q 52 -298 53 -299 q 49 -293 51 -297 q 45 -287 46 -289 q 43 -281 44 -285 q 42 -274 42 -278 q 43 -265 42 -269 q 46 -253 44 -260 q 49 -240 47 -246 q 54 -227 51 -235 q 60 -214 57 -219 q 65 -201 63 -208 q 69 -189 67 -194 q 125 -21 99 -101 q 153 63 135 8 q 175 129 171 118 q 185 156 176 133 q 196 190 193 178 q 197 208 200 208 q 178 197 194 208 q 124 181 142 179 q 81 206 106 182 q 58 227 78 208 q 31 253 38 246 q 10 275 24 260 q -10 303 -3 290 q -28 369 -28 335 q -12 441 -28 404 q 26 510 3 478 q 79 568 50 542 q 217 654 171 653 q 259 644 238 656 q 305 614 281 632 q 340 589 329 596 q 344 599 342 592 q 349 610 347 607 q 355 617 351 613 q 363 623 358 622 q 372 624 367 624 q 388 617 379 622 q 405 603 396 611 q 418 593 414 596 q 424 589 419 592 q 431 585 429 586 q 435 581 432 583 q 440 576 439 578 q 442 569 442 574 q 443 561 443 565 q 440 541 443 553 q 429 515 436 529 q 421 496 422 500 q 374 367 404 453 q 365 343 369 357 q 355 316 360 329 q 346 293 350 303 q 337 273 344 289 q 326 245 329 257 q 325 225 324 233 q 363 246 343 233 q 396 270 382 258 q 428 300 410 282 q 456 330 446 318 q 484 363 465 342 q 513 396 503 385 q 653 611 588 481 q 667 604 658 610 q 683 592 675 599 q 692 579 690 585 m 169 -215 q 247 -153 217 -193 q 287 -69 276 -114 q 297 21 297 -24 q 285 107 296 65 q 272 92 279 107 q 256 56 264 78 q 240 13 247 33 q 227 -28 233 -8 q 219 -53 221 -49 q 169 -215 178 -167 m 211 336 q 326 549 299 447 q 239 563 279 583 q 146 496 194 540 q 70 394 99 453 q 54 288 42 336 q 82 253 61 258 q 127 262 103 247 q 173 296 151 276 q 211 336 194 315 z "},"r":{"ha":431,"x_min":-3,"x_max":589,"o":"m 553 610 q 561 615 557 613 q 575 622 565 618 q 587 617 585 625 q 586 592 589 610 q 485 374 579 561 q 375 206 435 279 q 264 100 315 133 q 197 68 228 75 q 153 66 167 61 q 132 78 139 71 q 129 81 132 78 q 123 87 126 83 q 115 96 119 90 q 104 108 110 101 q 94 122 99 114 q 84 138 89 129 q 76 156 79 146 q 70 175 72 165 q 68 196 68 185 q 71 218 68 207 q 130 369 85 268 q 219 544 175 471 q 187 535 204 539 q 140 532 169 532 q 88 540 111 532 q 42 572 64 549 q 11 633 19 596 q 6 726 -1 690 q 35 777 14 761 q 85 791 56 793 q 143 771 114 789 q 177 739 165 756 q 192 708 189 722 q 190 677 194 694 q 179 649 185 660 q 165 622 174 638 q 169 622 167 622 q 185 623 172 621 q 213 630 197 625 q 254 648 228 635 q 313 682 281 661 q 327 678 318 681 q 354 658 336 675 q 381 611 372 640 q 366 588 375 603 q 338 541 357 572 q 307 488 319 510 q 294 467 294 467 q 211 311 215 318 q 175 224 192 267 q 208 144 149 139 q 338 254 264 164 q 454 429 394 324 q 502 520 478 475 q 539 588 526 565 l 553 610 l 553 610 m 128 629 q 131 635 129 632 q 140 648 133 638 q 150 667 147 658 q 155 690 153 676 q 151 713 157 703 q 132 737 144 731 q 108 738 119 743 q 92 724 97 733 q 86 696 88 713 q 96 660 85 679 q 128 629 107 640 z "},"s":{"ha":456,"x_min":-19,"x_max":610,"o":"m 238 408 q 343 473 276 431 q 467 548 410 515 q 576 604 524 581 q 610 590 596 599 q 582 569 599 579 q 544 549 565 560 q 513 532 522 539 q 401 459 482 514 q 297 385 321 404 q 288 378 293 382 q 281 373 283 375 q 276 369 279 371 q 273 365 274 367 q 271 360 272 363 q 270 356 269 358 q 272 350 271 353 q 276 343 274 347 q 290 319 278 339 q 307 289 303 300 q 320 199 329 250 q 267 110 311 147 q 172 64 217 68 q 147 64 160 63 q 121 70 135 65 q 97 79 107 75 q 74 90 88 83 q 53 100 60 97 q -12 165 -6 126 q 32 253 -18 203 q 80 290 44 264 q 144 338 115 317 q 175 364 174 360 q 163 395 176 368 q 133 451 149 422 q 117 483 118 479 q 115 592 100 543 q 179 676 131 638 q 286 728 228 715 q 327 728 306 731 q 367 717 349 726 q 396 697 386 708 q 365 597 419 667 q 316 558 353 583 q 247 512 279 532 q 213 489 214 492 q 219 449 208 479 q 238 408 231 418 m 207 307 q 161 268 185 290 q 115 216 138 246 q 88 162 92 186 q 97 117 83 138 q 206 194 175 133 q 207 307 238 256 m 251 638 q 244 626 250 636 q 237 615 238 617 q 231 605 236 614 q 224 594 225 596 q 219 584 224 593 q 216 574 215 575 q 213 563 217 572 q 212 551 210 553 q 213 539 214 549 q 311 622 249 558 q 339 700 385 699 q 291 679 318 701 q 251 638 264 657 z "},"t":{"ha":351,"x_min":-8,"x_max":508,"o":"m 451 863 q 449 851 451 858 q 440 831 447 843 q 424 819 433 819 q 417 819 421 819 q 408 817 414 818 q 377 816 403 817 q 308 817 351 815 q 235 608 279 731 q 163 404 192 485 q 126 299 135 324 q 114 263 122 283 q 101 230 106 242 q 94 205 97 218 q 94 188 90 192 q 106 185 97 185 q 133 197 114 186 q 181 226 153 207 q 237 270 208 244 q 291 325 265 296 q 338 379 317 354 q 381 435 360 404 q 415 484 403 467 q 442 526 426 501 q 457 550 457 550 q 482 571 469 568 q 501 568 494 574 l 508 563 q 496 535 504 553 q 459 466 488 517 q 397 369 431 415 q 309 266 364 324 q 193 168 254 208 q 88 116 132 125 q 24 124 44 107 q -2 178 4 142 q -2 256 -8 214 q 19 344 4 299 q 89 535 33 388 q 192 819 144 682 q 96 830 128 822 q 64 851 64 838 q 69 858 65 854 q 82 869 72 863 q 101 874 92 875 q 210 871 117 872 l 275 1057 q 356 1053 296 1118 q 367 1036 363 1046 q 372 1018 371 1026 q 372 1002 372 1010 q 369 992 371 994 l 369 988 q 326 868 351 939 l 451 863 z "},"u":{"ha":542,"x_min":-12,"x_max":697,"o":"m 481 288 q 438 235 467 268 q 385 177 408 201 q 358 150 363 153 q 315 131 338 133 q 276 138 292 129 q 245 159 260 146 q 224 181 231 172 q 217 194 218 190 q 208 191 213 193 q 194 184 203 189 q 179 175 186 179 q 101 157 133 153 q 36 176 68 161 q -4 217 4 192 q -11 265 -11 238 q -7 319 -11 292 q 8 381 -3 346 q 28 444 18 415 q 54 508 39 472 q 81 569 69 544 q 108 626 93 593 q 131 676 124 660 q 143 673 135 675 q 156 669 151 671 q 169 665 161 668 q 181 660 176 663 q 190 653 185 657 q 197 643 194 649 q 200 631 199 638 q 136 461 203 600 q 101 367 115 419 q 88 269 86 314 q 114 222 89 225 q 151 235 132 221 q 190 278 171 249 q 220 328 210 308 q 246 378 231 347 q 251 388 250 385 q 294 488 264 413 q 338 589 325 564 q 350 615 342 596 q 363 642 358 635 q 374 657 367 649 q 391 665 382 665 q 413 654 400 664 q 443 622 438 636 q 440 571 449 608 q 425 524 435 549 q 401 470 415 500 q 382 425 388 440 q 357 371 381 422 q 322 288 333 319 q 336 231 313 256 q 345 232 339 229 q 361 244 351 235 q 383 265 371 253 q 409 294 394 278 q 439 331 424 311 q 535 458 479 383 q 622 574 590 532 q 656 617 653 617 q 670 619 661 621 q 689 611 679 617 l 697 607 q 481 288 592 435 z "},"v":{"ha":643,"x_min":3,"x_max":803,"o":"m 775 596 q 783 593 779 594 q 794 587 788 592 q 800 575 801 582 q 746 484 797 557 q 651 385 694 411 q 563 389 614 363 q 453 458 533 400 l 439 439 q 438 444 438 442 q 439 439 438 442 q 356 325 400 383 q 267 217 311 263 q 192 149 222 171 q 137 115 161 128 q 100 99 113 101 l 88 96 q 36 136 85 99 q 13 158 21 147 q 4 175 4 169 l 3 181 q 57 438 3 181 q 122 625 103 629 q 157 609 138 622 q 188 585 176 596 l 200 574 l 100 194 q 199 292 132 210 q 318 447 267 374 l 368 521 q 309 618 319 568 q 318 739 299 668 q 375 829 329 782 q 460 902 421 876 q 504 928 499 928 q 561 888 508 928 q 635 832 614 849 q 647 818 644 825 q 649 808 650 811 l 646 804 q 476 496 615 703 q 476 492 476 494 q 475 492 475 492 q 475 490 475 492 l 543 444 q 550 439 546 443 q 596 429 572 426 q 633 449 610 432 q 681 491 657 467 q 726 539 704 515 q 761 579 749 563 l 775 596 m 485 806 q 452 767 468 788 q 417 717 436 747 q 390 660 399 688 q 377 603 381 633 q 389 549 374 572 l 390 554 q 423 599 403 571 q 488 708 443 628 q 556 858 532 788 q 485 806 533 857 z "},"w":{"ha":776,"x_min":-32,"x_max":939,"o":"m 897 601 q 913 608 903 608 q 931 603 922 608 l 938 599 q 904 535 931 569 q 844 472 878 501 q 769 424 810 443 q 696 408 729 406 q 643 414 668 408 q 465 83 544 175 q 465 83 465 83 q 464 81 464 82 q 369 7 419 28 q 340 0 354 1 q 313 3 326 -1 q 289 12 299 7 q 265 26 279 17 q 250 35 261 29 q 233 46 239 42 q 220 56 228 50 q 208 70 213 63 q 201 88 204 78 q 204 203 193 118 q 168 184 197 200 q 124 165 139 168 q 53 193 99 163 q 37 203 50 194 q 20 214 24 211 q 6 224 17 217 q -8 238 -4 232 q -18 251 -12 243 q -26 269 -24 260 q -29 289 -28 278 q 13 443 -31 342 q 103 597 56 547 q 156 626 138 633 q 181 617 167 624 q 207 600 194 610 q 225 582 219 590 q 217 569 226 579 q 189 537 207 558 q 150 485 171 515 q 106 403 129 454 q 67 292 83 351 q 72 232 53 236 q 85 233 78 231 q 101 240 92 235 q 117 251 110 246 q 132 262 124 256 q 143 269 140 268 q 274 413 211 318 q 322 501 301 454 q 328 516 324 506 q 335 535 332 526 q 343 552 338 543 q 355 568 349 561 q 368 576 361 575 q 378 571 372 575 q 390 564 385 567 q 400 558 394 561 q 408 550 406 554 q 410 515 413 542 q 368 413 406 486 q 283 114 300 274 q 282 94 282 101 q 285 78 282 86 q 295 71 288 69 q 315 78 303 72 q 449 238 385 117 q 466 275 456 253 q 487 319 476 297 q 507 365 497 342 q 524 406 517 389 q 538 438 532 424 q 544 453 543 451 q 463 550 493 488 q 451 721 421 632 q 504 792 468 768 q 583 796 538 814 q 663 747 614 783 q 696 698 685 731 q 707 642 707 665 q 672 481 707 572 q 729 467 693 463 q 897 601 811 475 m 622 665 q 623 697 624 683 q 619 718 622 710 q 612 732 615 726 q 606 739 608 738 l 604 742 q 551 722 583 747 q 515 654 518 697 q 528 590 511 621 q 563 546 544 558 l 582 532 q 622 665 617 604 z "},"x":{"ha":557,"x_min":-96,"x_max":717,"o":"m 697 585 q 713 576 711 583 q 713 557 715 568 q 657 441 711 533 q 572 306 603 349 q 548 269 564 294 q 517 221 532 243 q 482 171 503 199 q 443 124 461 143 q 403 92 425 106 q 361 78 381 78 q 333 81 347 76 q 307 90 318 85 q 285 103 296 94 q 267 120 274 113 q 252 138 260 128 q 240 153 244 147 q 231 167 236 158 q 226 175 226 175 q 215 198 225 179 q 198 226 206 217 q 185 231 190 236 q 133 171 167 215 q 92 119 99 126 q 56 80 68 93 q 17 49 43 67 q -29 32 -8 32 q -42 40 -33 35 q -56 47 -51 44 q -69 55 -61 50 q -81 65 -76 60 q -88 76 -85 69 q -94 90 -92 82 q -94 107 -96 97 q -71 96 -81 107 q -57 80 -61 85 q -33 86 -53 75 q -8 113 -19 97 q 19 153 4 129 q 40 185 35 178 q 160 356 154 349 q 172 386 171 372 q 168 419 172 400 q 151 556 151 550 q 147 579 150 560 q 143 607 143 599 q 148 628 143 615 q 165 649 153 642 q 192 658 181 656 q 213 654 204 660 q 230 641 222 649 q 242 619 238 633 q 251 594 247 606 q 257 566 254 583 q 261 539 260 549 q 264 514 263 529 q 265 494 265 499 q 290 514 272 494 q 328 560 308 533 q 350 589 347 586 q 451 646 408 656 q 483 633 464 643 q 517 606 501 622 q 525 578 532 590 q 515 572 519 571 q 503 579 511 574 q 493 586 496 585 q 469 581 479 588 q 446 558 460 575 q 283 324 321 419 q 283 257 274 303 q 319 176 293 211 q 375 153 344 142 q 554 356 419 168 q 588 411 571 382 q 619 463 606 440 q 636 492 632 485 q 644 506 638 494 q 658 531 650 518 q 673 556 665 543 q 688 577 681 569 q 697 585 694 585 z "},"y":{"ha":549,"x_min":-193,"x_max":740,"o":"m 707 633 q 732 626 725 632 q 738 607 739 621 q 733 589 738 601 q 715 554 728 576 q 685 506 703 532 q 639 446 668 481 q 575 375 610 411 q 516 323 556 354 q 447 268 476 292 q 413 238 417 244 q 401 209 408 232 q 385 160 393 186 q 368 103 378 133 q 353 60 358 74 q 208 -205 300 -82 q 54 -362 117 -328 q -153 -357 -65 -429 q -185 -301 -178 -336 q -184 -230 -192 -265 q -160 -164 -176 -194 q 25 44 -117 -83 q 271 225 147 154 q 283 231 275 226 q 295 237 292 235 q 304 243 299 239 q 313 251 310 247 q 319 261 317 256 q 346 342 325 272 q 375 453 367 413 q 294 311 338 354 q 167 268 224 239 q 124 286 158 272 q 74 313 90 300 q 51 349 58 326 q 68 522 35 408 q 94 588 78 556 q 126 641 110 621 q 154 674 143 661 q 169 689 165 686 q 178 694 175 693 q 184 694 182 694 q 191 692 186 694 q 199 688 196 689 q 229 653 231 676 q 201 581 228 643 q 171 507 174 518 q 165 338 133 363 q 215 363 185 333 q 283 453 244 393 q 343 551 321 513 q 397 647 365 589 q 411 672 407 665 q 432 681 418 685 q 467 665 460 669 q 490 622 488 647 q 485 569 492 596 q 460 460 483 557 q 435 333 438 363 q 457 351 443 339 q 477 367 471 363 q 496 383 483 372 q 515 399 508 393 q 531 413 521 404 q 548 427 542 421 q 563 442 554 433 q 578 458 572 450 q 592 474 585 465 q 607 490 600 482 l 707 633 m 160 -108 q 240 44 186 -67 q 292 176 293 156 q -32 -157 74 7 q -103 -325 -103 -265 q -82 -342 -99 -339 q -48 -341 -65 -346 q -21 -329 -31 -336 q 67 -236 13 -304 q 160 -108 122 -168 z "},"z":{"ha":564,"x_min":-162,"x_max":708,"o":"m 679 579 q 697 556 707 586 q 667 503 689 522 q 606 452 651 488 q 515 380 561 417 q 453 329 469 343 q 419 297 431 308 l 418 297 l 375 254 l 383 228 q 393 186 385 224 q 332 -82 417 79 q 144 -301 271 -199 q -90 -369 19 -403 q -125 -347 -110 -364 q -148 -308 -140 -329 q -157 -269 -156 -287 q -62 -53 -162 -186 q 6 28 -33 -12 q 72 91 46 68 q 137 144 99 114 q 181 179 175 175 q 258 243 207 201 q 199 243 229 249 q 99 218 122 218 q 83 222 90 219 q 70 232 76 225 q 60 243 64 239 q 51 258 57 247 q 43 271 44 269 q 36 303 32 292 q 61 338 40 315 q 219 465 83 363 q 378 590 356 568 q 315 585 375 594 q 192 567 254 576 q 124 564 131 558 q 103 586 114 571 q 89 611 92 601 q 92 631 86 625 q 117 642 97 636 q 232 661 143 649 q 407 680 321 674 q 511 671 493 686 q 523 658 513 669 q 537 641 533 647 q 546 625 540 635 q 549 607 551 615 q 539 590 547 599 q 449 521 528 579 q 291 403 369 463 q 197 329 213 344 q 264 315 206 329 q 332 301 322 301 q 381 335 340 303 q 460 402 386 339 q 603 522 535 465 q 679 579 671 578 m 218 -106 q 272 6 251 -47 q 298 92 292 58 q 306 152 304 126 q 304 189 307 178 l 301 201 q -50 -194 46 -14 q -72 -321 -106 -297 q -62 -324 -68 -324 q 78 -267 -10 -333 q 218 -106 165 -200 z "},"{":{"ha":721,"x_min":7,"x_max":710,"o":"m 686 1099 q 703 1063 697 1082 q 706 1025 710 1044 q 683 994 701 1006 q 663 988 675 990 q 634 983 651 985 q 613 979 617 981 q 601 977 610 979 q 586 974 592 975 q 574 974 581 974 q 561 977 567 974 q 553 988 556 981 q 583 1005 574 997 q 595 1027 592 1013 q 586 1060 599 1042 q 551 1095 574 1081 q 508 1100 529 1110 q 457 1001 476 1085 q 438 883 454 990 q 431 847 435 868 q 426 809 428 825 q 420 772 424 793 q 413 735 417 751 q 405 699 410 718 q 393 664 400 681 q 340 572 368 594 q 320 562 332 567 q 299 556 308 557 q 274 552 289 554 q 253 549 260 550 q 244 547 250 549 q 236 546 238 546 q 231 544 235 546 q 226 542 226 543 q 223 538 225 540 q 220 531 221 535 q 218 522 219 528 q 207 478 214 501 q 197 444 203 463 q 187 406 192 425 q 178 371 182 386 q 128 154 138 228 q 139 -37 115 50 q 186 -128 154 -86 q 263 -174 218 -169 q 335 -124 293 -176 q 372 -39 364 -87 q 376 68 383 19 q 358 107 372 96 q 340 110 353 110 q 324 114 328 110 q 386 129 340 128 q 426 115 407 129 q 481 42 464 89 q 475 -60 497 -4 q 413 -151 453 -117 q 215 -215 349 -206 q 120 -192 164 -218 q 51 -117 76 -165 q 17 -11 26 -67 q 15 106 8 44 q 31 215 21 168 q 58 328 40 261 q 79 399 64 347 q 103 488 94 450 q 117 560 113 525 q 119 619 124 608 q 114 631 118 625 q 104 644 110 638 q 96 654 99 650 q 60 739 74 690 q 56 751 58 742 q 51 766 53 761 q 49 780 50 771 q 50 792 47 789 q 55 800 51 797 q 63 804 58 803 q 73 806 68 806 q 85 808 78 807 q 94 810 92 808 q 112 813 99 810 q 135 819 125 817 q 151 819 144 821 q 159 815 156 818 q 166 808 163 813 q 172 801 169 804 q 177 794 174 799 q 182 786 181 789 q 225 690 213 743 q 226 680 225 688 q 229 669 228 672 q 232 661 231 667 q 235 652 233 656 q 238 644 236 649 q 242 636 240 639 q 248 629 244 633 q 256 622 251 625 q 265 614 260 618 q 294 684 282 644 q 310 751 306 724 q 321 830 314 778 q 331 899 328 882 q 365 1049 342 968 q 442 1135 386 1115 q 515 1150 453 1139 q 583 1158 565 1160 q 686 1099 649 1153 z "},"|":{"ha":631,"x_min":132,"x_max":499,"o":"m 497 1153 q 497 1111 499 1131 q 495 1094 497 1104 q 491 1075 493 1085 q 487 1057 489 1065 q 483 1044 485 1049 q 482 1039 482 1039 q 450 860 471 978 q 410 635 424 710 l 317 186 q 276 1 290 64 q 271 -25 275 -6 q 251 -107 258 -79 q 250 -121 251 -112 q 244 -144 246 -136 q 234 -160 242 -151 q 214 -175 226 -169 q 199 -185 210 -178 q 139 -207 151 -211 q 133 -190 132 -206 q 137 -160 135 -174 q 142 -139 139 -146 q 181 56 143 -132 q 190 101 188 88 l 197 133 q 226 265 217 219 q 269 481 242 336 q 328 785 310 683 q 358 947 347 893 q 386 1051 365 982 q 400 1093 396 1079 q 404 1113 401 1099 q 426 1169 415 1157 q 447 1183 431 1175 q 478 1194 464 1190 l 492 1200 q 497 1153 492 1172 z "},"}":{"ha":810,"x_min":7,"x_max":799,"o":"m 454 1106 q 431 1081 436 1094 q 431 1056 426 1068 q 449 1026 435 1044 q 437 1022 443 1022 q 424 1024 431 1021 q 413 1031 418 1028 q 401 1041 408 1035 q 393 1049 394 1047 q 374 1062 389 1051 q 351 1080 360 1072 q 338 1096 343 1088 q 339 1148 322 1122 q 385 1189 356 1174 q 504 1192 443 1218 q 560 1153 519 1185 q 617 1104 608 1113 q 642 992 656 1060 q 601 843 625 910 q 576 777 596 826 q 549 703 557 728 q 531 637 540 678 q 522 563 522 596 q 535 565 529 563 q 547 568 542 567 q 556 572 551 569 q 564 577 561 575 q 572 584 567 579 q 578 591 576 589 q 586 600 581 593 q 594 610 592 607 q 678 674 631 649 q 719 688 710 689 q 735 678 726 685 q 753 663 743 672 q 765 651 763 654 q 776 644 768 649 q 788 635 783 639 q 795 626 792 632 q 797 615 799 621 q 792 603 796 610 q 783 592 788 597 q 772 581 778 588 q 763 574 765 575 q 689 515 726 536 q 677 510 685 514 q 663 504 669 507 q 653 497 657 501 q 626 443 643 489 q 603 373 614 410 q 582 283 593 336 q 567 211 571 231 q 536 99 550 144 q 499 -3 522 54 q 440 -106 475 -61 q 360 -182 404 -150 q 265 -215 315 -212 q 168 -190 214 -218 q 26 -39 56 -118 q 15 67 7 4 q 59 164 22 131 q 142 201 96 197 q 183 193 165 204 q 231 150 224 171 q 214 155 225 149 q 197 161 203 161 q 163 136 179 158 q 115 40 133 97 q 108 -53 100 -7 q 147 -131 119 -118 q 237 -128 189 -149 q 321 -69 285 -107 q 422 93 383 -6 q 483 307 449 161 q 491 341 486 321 q 500 380 496 361 q 508 414 504 399 q 519 458 514 439 q 520 481 522 478 q 501 499 518 485 q 488 509 497 503 q 472 521 479 515 q 458 533 465 526 q 445 547 451 539 q 436 561 439 554 q 433 667 422 594 q 446 722 438 692 q 462 773 454 751 q 482 828 469 794 q 500 881 494 863 q 539 994 536 982 q 542 1104 563 1076 q 516 1121 533 1118 q 483 1119 499 1124 q 454 1106 467 1114 z "},"~":{"ha":1194,"x_min":132,"x_max":1060,"o":"m 861 575 q 937 624 904 589 q 967 717 969 658 q 890 743 935 733 q 855 742 883 746 q 821 746 826 739 q 806 763 815 750 q 793 782 796 775 q 790 797 789 794 q 799 811 790 800 q 864 856 835 854 q 990 763 921 857 q 1003 746 994 757 q 1017 728 1013 735 q 1030 709 1022 721 q 1042 689 1038 697 q 1051 668 1046 681 q 1058 644 1056 656 q 1060 618 1060 632 q 1057 589 1060 604 q 1026 510 1049 543 q 975 463 1003 478 q 912 441 947 447 q 847 436 876 435 q 792 443 818 438 q 729 465 760 450 q 668 501 699 479 q 614 543 638 524 q 556 592 590 563 q 500 639 521 621 q 347 699 421 701 q 303 690 324 697 q 260 663 282 683 q 231 613 239 643 q 242 550 214 554 q 283 574 257 547 q 301 588 297 588 q 317 574 304 588 q 342 536 340 544 q 315 471 347 506 q 261 447 285 442 q 211 488 238 453 q 197 505 208 490 q 181 526 185 519 q 167 545 176 532 q 154 568 158 558 q 144 592 150 578 q 137 620 139 606 q 133 650 135 635 q 147 736 132 700 q 185 791 161 772 q 238 818 208 810 q 296 825 268 826 q 347 815 324 824 q 455 750 397 799 q 571 652 513 701 q 679 585 629 603 q 861 575 776 549 z "}," ":{"ha":215,"x_min":0,"x_max":0,"o":""},"¡":{"ha":540,"x_min":28,"x_max":515,"o":"m 393 674 q 431 654 421 667 q 443 613 440 642 q 433 494 449 549 q 340 228 414 431 q 308 141 328 196 q 271 40 288 86 q 238 -47 254 -7 q 179 -185 228 -74 q 173 -198 176 -189 q 166 -215 169 -207 q 158 -232 163 -222 q 149 -249 154 -242 q 138 -265 144 -257 q 125 -277 132 -272 q 111 -285 118 -282 q 61 -272 93 -290 q 29 -235 29 -253 q 34 -216 29 -228 q 47 -190 39 -204 q 58 -171 56 -176 q 85 -111 68 -149 q 188 147 111 -53 q 288 418 256 326 q 310 488 296 442 q 332 556 325 533 q 393 674 342 582 m 510 808 q 499 749 515 792 q 463 700 482 707 q 434 712 458 701 q 395 733 410 722 q 378 754 381 743 q 390 814 374 771 q 419 861 406 857 q 449 853 428 863 q 488 830 469 843 q 510 808 507 817 z "},"¢":{"ha":625,"x_min":47,"x_max":574,"o":"m 171 428 q 229 231 179 283 q 304 237 264 221 q 371 275 344 253 q 426 325 397 297 q 456 354 454 353 q 465 362 458 357 q 472 367 471 367 q 480 371 474 368 q 490 371 486 374 q 512 359 499 368 q 526 344 525 350 q 494 265 531 328 q 435 203 476 233 q 361 157 385 165 q 352 154 357 156 q 344 152 347 153 q 335 151 340 151 q 326 150 331 150 q 317 149 321 149 q 314 146 315 149 q 310 139 313 143 q 301 81 310 136 q 285 11 292 26 q 276 3 281 6 q 265 0 271 0 q 253 3 260 0 q 242 10 247 7 q 231 18 238 14 q 221 25 224 22 q 210 30 217 26 q 198 36 203 33 q 188 42 193 39 q 178 49 182 46 q 169 66 169 57 q 172 88 168 75 q 181 119 175 96 q 190 160 186 143 q 193 192 193 176 q 193 200 193 197 q 191 206 193 203 q 188 209 189 208 q 183 213 188 210 q 175 217 178 215 q 146 238 154 231 q 96 299 115 263 q 54 485 60 365 q 78 676 49 583 q 174 832 107 768 q 321 896 246 901 q 333 894 322 896 q 349 892 343 892 q 358 896 354 893 q 364 915 361 899 q 370 956 367 932 q 374 983 374 981 q 374 997 374 986 q 377 1016 375 1008 q 383 1029 379 1024 q 390 1037 386 1035 q 401 1040 394 1039 q 411 1043 407 1042 q 423 1051 417 1046 q 430 1056 429 1057 q 443 1054 431 1056 q 479 1033 460 1049 q 485 1028 482 1031 q 489 1022 488 1025 q 491 1017 490 1019 q 492 1011 492 1015 q 493 1005 493 1007 q 493 997 493 1003 q 493 989 493 992 q 476 853 494 957 q 476 845 476 849 q 476 840 476 842 q 478 835 476 838 q 480 831 479 832 q 483 828 481 829 q 486 825 485 826 q 492 822 488 824 q 497 818 496 819 q 551 768 536 793 q 564 743 558 758 q 572 709 569 728 q 560 685 574 690 q 524 697 551 681 q 514 703 517 701 q 510 708 511 706 q 507 718 508 711 q 499 737 504 728 q 492 750 494 746 q 478 765 489 754 q 465 781 468 776 q 390 815 435 814 q 310 786 346 815 q 200 642 235 732 q 171 428 163 546 z "},"£":{"ha":935,"x_min":51,"x_max":883,"o":"m 829 178 q 828 126 838 149 q 789 75 818 104 q 735 31 764 49 q 672 6 706 13 q 641 0 657 1 q 608 1 625 -1 q 578 4 590 3 q 546 12 565 6 q 517 20 526 18 q 488 32 508 22 q 461 44 467 42 q 433 57 456 46 q 407 69 410 68 q 374 85 397 74 q 339 103 351 96 q 328 109 336 104 q 315 116 319 114 q 302 118 310 118 q 288 114 294 118 q 275 102 282 110 q 262 86 268 94 q 250 74 256 78 q 185 42 217 43 q 144 51 167 40 q 110 69 121 61 q 78 94 100 76 q 53 138 54 113 q 75 193 51 164 q 176 215 113 235 q 194 207 178 215 q 215 200 210 199 q 228 210 222 201 q 242 233 235 218 q 250 247 250 247 q 386 508 314 349 q 393 539 397 533 q 354 544 390 543 q 275 556 311 546 q 207 599 213 569 q 375 615 321 610 q 390 615 378 615 q 410 617 401 615 q 425 622 419 618 q 437 637 432 626 q 445 663 442 647 q 450 679 449 678 q 477 757 468 733 q 505 826 486 781 q 544 905 524 871 q 588 969 564 939 q 688 1044 636 1028 q 714 1049 701 1049 q 736 1049 726 1050 q 759 1042 746 1047 q 779 1033 772 1038 q 800 1022 786 1029 q 836 1000 824 1008 q 863 974 849 992 q 881 935 878 956 q 870 875 883 907 q 833 819 857 843 q 787 795 814 800 q 744 811 760 790 q 742 821 740 817 q 747 826 744 825 q 755 831 749 828 q 765 839 761 835 q 796 906 792 860 q 774 983 806 985 q 675 910 731 981 q 599 772 635 858 q 546 639 553 661 q 544 622 543 625 q 557 617 546 618 q 642 611 571 613 q 677 613 653 611 q 714 614 701 615 q 768 593 735 613 q 771 592 768 593 q 792 564 794 578 q 744 542 788 547 q 659 543 715 538 q 596 549 603 549 q 574 551 590 549 q 549 553 557 553 q 525 550 540 553 q 514 543 519 549 q 506 533 508 538 q 501 519 504 529 q 497 507 499 510 q 428 351 474 449 q 347 204 389 272 q 338 190 346 201 q 323 168 329 178 q 318 154 317 158 q 330 144 318 150 q 358 131 342 138 q 376 124 375 125 q 440 95 418 104 q 502 74 463 86 q 578 67 542 63 q 649 90 614 72 q 701 138 672 104 q 742 182 731 172 q 792 205 767 204 q 829 178 818 206 m 138 106 q 163 121 149 106 q 186 150 178 136 l 196 165 q 140 178 167 185 q 108 151 114 172 q 107 134 106 143 q 112 119 108 125 q 122 108 115 113 q 138 106 129 104 z "},"¤":{"ha":657,"x_min":49,"x_max":610,"o":"m 596 304 q 603 268 608 294 q 597 249 601 258 q 574 226 592 240 q 532 207 557 213 l 528 206 l 526 208 q 440 318 493 250 q 315 265 379 275 q 199 294 251 257 q 132 208 149 231 l 129 206 l 125 207 q 83 226 100 213 q 61 249 65 240 q 54 268 57 258 q 63 304 49 294 q 108 356 67 308 l 115 364 q 74 433 82 396 q 106 589 60 497 q 142 646 121 619 q 108 683 128 661 q 63 736 67 732 q 54 772 49 746 q 61 790 57 781 q 83 814 65 800 q 125 833 100 828 l 129 835 l 132 832 q 215 724 164 792 q 224 738 218 728 q 249 764 236 757 q 325 778 274 778 q 447 729 385 778 q 526 832 463 750 l 528 835 l 532 833 q 574 814 557 828 q 597 790 592 800 q 603 772 601 781 q 596 736 608 746 q 549 683 590 732 q 526 658 535 667 q 565 550 565 614 q 515 394 561 463 q 549 357 528 381 q 596 304 592 308 m 407 417 q 451 643 476 492 q 344 679 443 692 q 287 663 310 675 q 244 622 264 650 q 208 558 221 585 q 185 499 194 532 q 183 435 176 467 q 214 371 190 403 q 407 417 326 329 z "},"¥":{"ha":1058,"x_min":131,"x_max":928,"o":"m 861 164 q 861 143 867 149 q 840 139 856 138 q 771 143 801 143 q 539 142 658 144 q 478 31 488 47 q 354 -147 407 -93 q 249 -208 299 -206 q 242 -208 244 -208 q 179 -179 206 -208 l 178 -178 q 154 -151 161 -160 q 141 -128 147 -142 q 133 -100 135 -114 q 143 -44 131 -78 q 192 -2 153 -14 q 269 3 231 10 q 213 -101 222 -47 q 215 -108 213 -107 q 218 -111 215 -108 q 224 -116 221 -114 q 233 -119 226 -118 q 250 -118 240 -121 q 428 136 301 -107 q 347 135 376 133 q 293 147 307 136 q 261 201 278 160 q 258 210 258 206 q 260 217 258 214 q 265 222 263 219 q 272 224 268 224 q 281 224 276 224 q 289 225 285 225 q 297 225 293 225 q 306 225 301 225 q 383 228 311 225 q 476 232 415 229 q 506 290 490 261 q 444 297 472 293 q 313 317 338 311 q 283 335 296 321 q 271 368 271 349 q 304 373 286 371 q 335 376 322 375 q 370 377 349 376 q 401 378 392 378 q 543 379 468 381 q 546 379 544 379 q 549 379 547 379 q 626 540 607 500 q 671 621 639 564 q 703 676 693 658 q 668 638 690 664 q 639 604 647 614 q 510 475 563 518 q 385 419 438 414 q 334 442 354 422 q 296 497 314 463 q 254 625 253 574 q 306 779 254 678 l 310 786 q 322 810 314 794 q 358 901 358 875 q 351 917 358 913 q 200 896 319 938 l 182 890 l 189 908 q 215 954 199 932 q 303 1025 254 1004 l 304 1025 l 307 1025 q 342 1022 325 1025 q 428 939 401 1010 q 437 893 436 917 q 435 851 438 869 q 422 805 432 832 q 404 763 411 778 q 383 719 397 747 q 346 638 356 665 q 342 536 318 561 q 386 525 363 521 q 435 546 410 529 q 497 597 464 565 q 550 653 531 629 q 603 718 569 676 q 638 760 628 747 q 858 1007 724 861 q 900 1032 882 1031 q 921 1018 913 1032 q 924 976 926 1008 q 924 971 924 972 q 882 840 919 926 q 871 814 874 822 q 844 754 858 786 l 840 746 l 657 375 q 688 374 667 375 q 722 373 700 374 q 751 371 744 372 q 772 372 757 371 q 799 372 788 372 q 818 367 811 371 q 830 358 825 364 q 841 338 835 351 q 849 324 847 325 q 853 315 849 322 q 860 304 858 308 q 865 294 863 300 q 864 283 867 288 q 854 276 861 279 q 833 274 842 274 q 808 276 825 274 q 786 279 792 279 q 717 282 740 282 q 613 286 692 283 l 588 235 q 690 233 656 233 q 756 232 722 233 q 770 233 761 232 q 786 233 779 233 q 801 233 793 233 q 815 232 810 233 q 832 215 824 229 q 861 164 858 169 z "},"­":{"ha":0,"x_min":0,"x_max":0,"o":""},"±":{"ha":654,"x_min":28,"x_max":628,"o":"m 619 533 q 623 513 628 517 q 599 507 618 510 q 513 503 576 506 q 344 494 360 496 q 334 472 338 486 q 327 439 331 458 q 322 413 324 419 q 303 322 310 353 q 283 240 289 261 q 278 220 282 235 q 272 197 274 206 q 270 185 271 194 q 268 169 269 176 q 264 160 267 163 q 253 159 257 158 q 242 166 249 160 q 231 178 235 172 q 221 191 226 183 q 214 201 215 199 q 192 234 196 222 q 192 274 188 246 q 235 453 193 278 q 238 485 242 482 q 229 486 232 486 q 218 485 226 486 q 208 483 210 483 q 121 475 139 475 q 86 481 99 475 q 61 504 74 488 q 51 513 58 507 q 40 525 44 519 q 32 537 36 531 q 29 549 28 543 q 38 557 31 554 q 63 565 47 563 q 101 570 79 568 q 129 572 124 572 q 219 582 133 574 q 231 582 222 582 q 247 583 240 582 q 258 586 254 585 q 274 614 267 590 q 294 701 283 650 q 304 753 299 725 q 306 772 304 754 q 311 796 308 789 q 357 772 322 821 q 365 762 363 764 q 374 753 367 760 q 385 740 381 746 q 390 729 389 735 q 385 686 392 724 q 368 593 378 642 q 408 590 385 590 q 447 592 431 590 q 490 595 464 593 q 529 599 515 597 q 553 599 542 600 q 574 589 565 599 q 619 533 607 556 m 481 82 q 510 29 508 36 q 513 9 515 14 q 499 6 510 4 q 444 8 468 8 q 229 6 340 11 q 185 2 224 6 q 128 0 147 -1 q 85 14 96 3 q 53 67 71 26 q 50 79 50 74 q 52 87 50 85 q 58 90 54 89 q 67 92 63 92 q 76 92 71 92 q 83 92 82 92 q 142 94 83 92 q 181 97 158 96 q 225 99 203 99 q 264 101 247 100 q 318 101 282 101 q 372 100 354 100 q 422 99 397 100 q 431 99 425 99 q 440 100 436 100 q 449 100 444 100 q 459 100 454 100 q 467 99 464 100 q 481 82 474 96 z "},"¿":{"ha":800,"x_min":-6,"x_max":776,"o":"m 701 640 q 737 606 725 619 q 763 567 749 592 q 771 515 776 543 q 743 456 765 488 q 553 307 694 389 q 510 282 539 299 q 408 222 444 244 q 319 163 372 200 q 226 84 265 125 q 158 -4 188 43 q 125 -81 136 -39 q 123 -152 114 -124 q 161 -187 132 -181 q 415 -161 286 -218 q 526 -84 481 -133 q 586 24 572 -35 q 581 83 596 67 q 549 89 571 93 q 494 64 522 85 q 458 18 467 43 q 463 15 458 18 q 489 -19 492 -7 q 478 -33 486 -29 q 435 -29 460 -43 q 393 81 371 8 q 463 163 410 138 q 561 164 515 189 q 653 81 618 133 q 675 -28 689 28 q 644 -102 665 -65 q 591 -169 622 -139 q 521 -222 560 -200 q 235 -279 389 -300 q 120 -231 175 -271 q 43 -140 65 -192 q 111 114 -6 -26 q 336 301 196 214 q 429 354 367 319 q 619 478 563 428 q 663 524 640 496 q 688 571 685 553 q 683 588 689 582 q 663 593 676 594 q 617 576 643 590 q 575 550 590 563 q 599 525 592 536 l 603 519 l 596 515 q 550 508 572 503 q 511 532 528 513 q 490 574 493 550 q 501 624 486 599 q 581 671 532 663 q 603 674 592 672 q 701 640 663 675 m 663 708 q 600 776 607 750 q 613 826 593 800 q 660 854 633 853 l 661 854 q 706 831 678 854 q 739 793 733 808 q 734 756 743 775 q 710 724 725 738 q 679 700 696 710 l 675 699 l 672 701 q 663 708 669 703 z "},"À":{"ha":1007,"x_min":90,"x_max":1167,"o":"m 1147 1172 q 1162 1158 1160 1165 q 1160 1135 1164 1150 q 1132 1083 1156 1126 q 1096 1019 1108 1040 q 940 740 999 864 q 869 582 911 682 q 870 577 868 579 q 875 576 872 575 q 944 589 914 589 q 1014 569 978 589 q 1015 568 1015 569 q 1014 556 1025 563 q 1013 554 1013 554 q 1011 554 1011 554 q 999 549 1006 553 q 984 542 992 546 q 972 536 976 539 q 969 536 971 536 q 867 514 933 540 q 836 500 850 507 q 833 499 835 500 q 807 429 825 479 q 728 164 764 308 q 712 80 722 136 q 694 -27 701 24 q 688 -92 688 -78 q 700 -147 688 -128 q 700 -150 700 -149 q 697 -153 700 -153 q 690 -151 694 -154 q 640 -128 647 -132 q 607 -104 629 -118 q 593 -83 596 -96 q 592 -82 593 -83 q 581 -43 583 -68 l 579 -44 q 580 -38 579 -43 q 582 -17 581 -33 q 585 17 583 0 q 592 63 588 35 q 601 119 596 90 q 615 184 607 147 q 633 258 624 221 q 656 338 643 294 q 686 425 669 382 q 684 430 686 428 q 679 431 682 432 q 488 344 490 346 q 468 325 472 339 q 436 235 460 301 q 390 110 413 169 q 365 47 367 51 q 343 40 356 33 q 304 61 325 50 q 297 74 296 65 l 296 74 q 351 286 311 161 q 350 291 351 289 q 346 292 349 293 q 225 261 278 271 q 172 254 199 257 q 171 254 171 254 q 139 269 153 261 q 93 304 115 282 q 92 310 90 307 q 96 313 93 313 q 347 368 201 319 q 382 379 360 372 q 385 382 383 381 q 647 854 489 660 q 715 932 682 896 q 907 1122 804 1035 q 973 1170 925 1138 q 1035 1210 1021 1203 q 1081 1208 1058 1222 q 1117 1189 1093 1201 q 1147 1172 1140 1176 m 1003 1064 q 1002 1069 1006 1067 q 996 1069 999 1072 l 919 993 q 697 749 783 865 q 624 639 663 701 q 556 522 585 576 q 518 440 526 467 q 519 435 517 438 q 524 435 521 433 q 588 463 542 442 q 674 503 635 485 q 714 522 713 522 q 1003 1064 831 785 m 1092 1238 l 969 1347 q 967 1359 964 1353 q 976 1365 969 1365 l 1065 1365 q 1074 1361 1071 1365 l 1161 1250 q 1163 1240 1165 1246 q 1154 1235 1160 1235 l 1099 1235 q 1092 1238 1094 1235 z "},"Á":{"ha":1006,"x_min":90,"x_max":1297,"o":"m 1147 1172 q 1162 1158 1160 1165 q 1160 1135 1164 1150 q 1132 1083 1156 1126 q 1096 1019 1108 1040 q 940 740 999 864 q 869 582 911 682 q 870 577 868 579 q 875 576 872 575 q 944 589 914 589 q 1014 569 978 589 q 1015 568 1015 569 q 1014 556 1025 563 q 1013 554 1013 554 q 1011 554 1011 554 q 990 545 1003 553 q 972 536 976 538 q 969 536 971 536 q 867 514 933 540 q 836 500 850 507 q 833 499 835 500 q 807 429 825 479 q 728 164 764 308 q 712 80 722 136 q 694 -27 701 24 q 688 -92 688 -78 q 700 -147 688 -128 q 700 -150 700 -149 q 697 -153 700 -153 q 690 -151 694 -154 q 640 -128 647 -132 q 607 -104 629 -118 q 593 -83 596 -96 q 592 -82 593 -83 q 581 -43 583 -68 l 579 -44 q 580 -38 579 -43 q 582 -17 581 -33 q 585 17 583 0 q 592 63 588 35 q 601 119 596 90 q 615 184 607 147 q 633 258 624 221 q 656 338 643 294 q 686 425 669 382 q 684 430 686 428 q 679 431 682 432 q 488 344 490 346 q 468 325 472 339 q 446 263 463 307 q 412 172 429 218 q 381 88 394 125 q 365 47 367 50 q 343 40 356 33 q 304 61 325 50 q 297 74 296 65 l 296 74 q 351 286 311 161 q 350 291 351 289 q 346 292 349 293 q 225 261 278 271 q 172 254 199 257 q 171 254 171 254 q 139 269 153 261 q 93 304 115 282 q 92 310 90 307 q 96 313 93 313 q 347 368 201 319 q 382 379 360 372 q 385 382 383 381 q 647 854 489 660 q 715 932 682 896 q 907 1122 804 1035 q 973 1170 925 1138 q 1035 1210 1021 1203 q 1081 1208 1058 1222 q 1117 1189 1093 1201 q 1147 1172 1140 1176 m 1003 1064 q 1002 1069 1006 1067 q 996 1069 999 1072 l 919 993 q 697 749 783 865 q 624 639 663 701 q 556 522 585 576 q 518 440 526 467 q 519 435 517 438 q 524 435 521 433 q 588 463 542 442 q 674 503 635 485 q 714 522 713 522 q 1003 1064 831 785 m 1288 1368 q 1294 1363 1293 1368 q 1293 1356 1296 1358 l 1165 1238 q 1161 1236 1164 1236 l 1097 1236 q 1091 1240 1093 1236 q 1092 1249 1089 1244 l 1185 1365 q 1190 1368 1188 1368 l 1288 1368 z "},"Â":{"ha":1008,"x_min":90,"x_max":1208,"o":"m 1147 1172 q 1162 1158 1160 1165 q 1160 1135 1164 1150 q 1132 1083 1156 1126 q 1096 1019 1108 1040 q 940 740 999 864 q 869 582 911 681 q 870 577 868 579 q 875 576 872 575 q 944 589 914 589 q 1014 569 978 589 q 1015 568 1015 569 q 1014 556 1025 563 q 1011 554 1011 554 q 990 545 1003 553 q 972 536 976 538 q 969 536 971 536 q 867 514 933 540 q 836 500 850 507 q 833 499 835 500 q 807 429 825 479 q 728 164 764 308 q 712 80 722 136 q 694 -27 701 24 q 688 -92 688 -78 q 700 -147 688 -128 q 700 -150 700 -149 q 697 -153 700 -153 q 690 -151 694 -154 q 640 -128 647 -132 q 607 -104 628 -118 q 593 -83 596 -96 q 592 -82 593 -83 q 581 -43 583 -68 l 579 -44 q 585 19 581 -22 q 616 183 589 60 q 686 425 643 307 q 684 430 686 428 q 679 431 682 432 q 488 344 490 346 q 468 325 472 339 q 446 263 463 307 q 412 172 429 218 q 381 88 394 125 q 365 47 367 50 q 343 40 356 33 q 304 61 325 50 q 297 74 296 65 l 296 74 q 351 286 311 161 q 350 291 351 289 q 346 292 349 293 q 225 261 278 271 q 172 254 199 257 q 171 254 171 254 q 139 269 153 261 q 93 304 115 282 q 92 310 90 307 q 96 313 93 313 q 347 368 201 319 q 382 379 358 371 q 385 382 383 381 q 647 854 489 660 q 715 932 682 896 q 907 1122 804 1035 q 973 1170 925 1138 q 1035 1210 1021 1203 q 1081 1208 1058 1222 q 1117 1189 1093 1201 q 1147 1172 1140 1176 m 1003 1064 q 1002 1069 1006 1067 q 996 1069 999 1072 l 919 993 q 697 749 783 865 q 624 639 663 701 q 556 522 585 576 q 518 440 526 467 q 519 435 517 438 q 524 435 521 433 q 588 463 542 442 q 674 503 635 485 q 714 522 713 522 q 1003 1064 831 785 m 1201 1249 q 1203 1233 1207 1242 q 1190 1225 1200 1225 l 1146 1225 q 1136 1229 1140 1225 l 1068 1303 l 1067 1303 l 999 1229 q 988 1225 994 1225 l 946 1225 q 933 1233 938 1225 q 936 1249 929 1242 l 1025 1349 q 1036 1354 1029 1354 l 1099 1354 q 1110 1349 1104 1354 l 1201 1249 z "},"Ã":{"ha":1007,"x_min":90,"x_max":1236,"o":"m 1147 1172 q 1162 1158 1160 1165 q 1160 1135 1164 1150 q 1132 1083 1156 1126 q 1096 1019 1108 1040 q 940 740 999 864 q 869 582 911 682 q 870 577 868 579 q 875 576 872 575 q 944 589 914 589 q 1014 569 978 589 q 1015 568 1015 569 q 1014 556 1025 563 q 1013 554 1013 554 q 1011 554 1011 554 q 990 545 1003 553 q 972 536 976 538 q 969 536 971 536 q 867 514 933 540 q 836 500 850 507 q 833 499 835 500 q 807 429 825 479 q 728 164 764 308 q 712 80 722 136 q 694 -27 701 24 q 688 -92 688 -78 q 700 -147 688 -128 q 700 -150 700 -149 q 697 -153 700 -153 q 690 -151 694 -154 q 640 -128 647 -132 q 607 -104 629 -118 q 593 -83 596 -96 q 592 -82 593 -83 q 581 -43 583 -68 l 579 -44 q 585 19 581 -22 q 616 183 589 60 q 686 425 643 307 q 684 430 686 428 q 679 431 682 432 q 488 344 490 346 q 468 325 472 339 q 436 235 460 301 q 390 110 413 169 q 365 47 367 51 q 343 40 356 33 q 304 61 324 50 q 297 74 296 65 l 296 74 q 351 286 311 161 q 350 291 351 289 q 346 292 349 293 q 225 261 278 271 q 172 254 199 257 q 171 254 171 254 q 139 269 153 261 q 93 304 115 282 q 92 310 90 307 q 96 313 93 313 q 347 368 201 319 q 382 379 360 372 q 385 382 383 381 q 647 854 489 660 q 715 932 682 896 q 907 1122 804 1035 q 973 1170 925 1138 q 1035 1210 1021 1203 q 1081 1208 1058 1222 q 1117 1189 1093 1201 q 1147 1172 1140 1176 m 1003 1064 q 1002 1069 1006 1067 q 996 1069 999 1072 l 919 993 q 697 749 783 865 q 660 696 679 725 q 622 638 640 667 q 587 578 604 608 q 556 523 569 549 q 532 476 542 497 q 518 440 522 454 q 519 435 517 438 q 524 435 521 433 q 588 463 542 442 q 674 503 635 485 q 714 522 713 522 q 1003 1064 831 785 m 1218 1347 q 1226 1344 1222 1347 q 1233 1338 1231 1342 q 1235 1328 1236 1333 q 1158 1238 1231 1238 q 1090 1258 1133 1238 q 1036 1281 1049 1281 q 1010 1244 1017 1281 q 993 1231 1007 1231 l 972 1231 q 959 1236 964 1231 q 954 1249 954 1242 q 978 1319 958 1293 q 1031 1346 999 1346 q 1099 1324 1056 1346 q 1151 1303 1135 1303 q 1171 1309 1164 1303 q 1181 1332 1178 1315 q 1199 1347 1183 1347 l 1218 1347 z "},"Ä":{"ha":1007,"x_min":90,"x_max":1219,"o":"m 1147 1172 q 1162 1158 1160 1165 q 1160 1135 1164 1150 q 1132 1083 1156 1126 q 1096 1019 1108 1040 q 940 740 999 864 q 869 582 911 682 q 870 577 868 579 q 875 576 872 575 q 944 589 914 589 q 1014 569 978 589 q 1015 568 1015 569 q 1014 556 1025 563 q 1013 554 1013 554 q 1011 554 1011 554 q 999 549 1006 553 q 984 542 992 546 q 972 536 976 539 q 969 536 971 536 q 867 514 933 540 q 836 500 850 507 q 833 499 835 500 q 807 429 825 479 q 728 164 764 308 q 712 80 722 136 q 694 -27 701 24 q 688 -92 688 -78 q 700 -147 688 -128 q 700 -150 700 -149 q 697 -153 700 -153 q 690 -151 694 -154 q 640 -128 647 -132 q 607 -104 629 -118 q 593 -83 596 -96 q 592 -82 593 -83 q 581 -43 583 -68 l 579 -44 q 580 -38 579 -43 q 582 -17 581 -33 q 585 17 583 0 q 592 63 588 35 q 601 119 596 90 q 615 184 607 147 q 633 258 624 221 q 656 338 643 294 q 686 425 669 382 q 684 430 686 428 q 679 431 682 432 q 488 344 490 346 q 468 325 472 339 q 436 235 460 301 q 390 110 413 169 q 365 47 367 51 q 343 40 356 33 q 304 61 325 50 q 297 74 296 65 l 296 74 q 351 286 311 161 q 350 291 351 289 q 346 292 349 293 q 225 261 278 271 q 172 254 199 257 q 171 254 171 254 q 139 269 153 261 q 93 304 115 282 q 92 310 90 307 q 96 313 93 313 q 347 368 201 319 q 382 379 360 372 q 385 382 383 381 q 647 854 489 660 q 715 932 682 896 q 907 1122 804 1035 q 973 1170 925 1138 q 1035 1210 1021 1203 q 1081 1208 1058 1222 q 1117 1189 1093 1201 q 1147 1172 1140 1176 m 1003 1064 q 1002 1069 1006 1067 q 996 1069 999 1072 l 919 993 q 697 749 783 865 q 624 639 663 701 q 556 522 585 576 q 518 440 526 467 q 519 435 517 438 q 524 435 521 433 q 588 463 542 442 q 674 503 635 485 q 714 522 713 522 q 1003 1064 831 785 m 954 1235 q 915 1251 931 1235 q 899 1292 899 1268 q 915 1333 899 1317 q 956 1349 931 1349 q 993 1333 978 1349 q 1008 1293 1008 1317 q 1001 1263 1008 1276 q 982 1242 994 1250 q 954 1235 969 1235 m 1124 1333 q 1132 1341 1124 1333 q 1164 1349 1140 1349 q 1203 1333 1188 1349 q 1218 1293 1218 1317 q 1203 1251 1218 1268 q 1163 1235 1188 1235 q 1124 1251 1139 1235 q 1108 1293 1108 1268 q 1124 1333 1108 1317 z "},"Å":{"ha":1007,"x_min":90,"x_max":1165,"o":"m 1147 1172 q 1162 1158 1160 1165 q 1160 1135 1164 1150 q 1132 1083 1156 1126 q 1096 1019 1108 1040 q 940 740 999 864 q 869 582 911 682 q 870 577 868 579 q 875 576 872 575 q 944 589 914 589 q 1014 569 978 589 q 1015 568 1015 569 q 1014 556 1025 563 q 1013 554 1013 554 q 1011 554 1011 554 q 990 545 1003 553 q 972 536 976 538 q 969 536 971 536 q 867 514 933 540 q 836 500 850 507 q 833 499 835 500 q 807 429 825 479 q 728 164 764 308 q 703 25 718 121 q 688 -92 688 -71 q 700 -147 688 -128 q 700 -150 700 -149 q 697 -153 700 -153 q 690 -151 694 -154 q 640 -128 647 -132 q 607 -104 629 -118 q 593 -83 596 -96 q 592 -82 593 -83 q 581 -43 583 -68 l 579 -44 q 580 -38 579 -43 q 582 -17 581 -33 q 585 17 583 0 q 592 63 588 35 q 601 119 596 90 q 615 184 607 147 q 633 258 624 221 q 656 338 643 294 q 686 425 669 382 q 684 430 686 428 q 679 431 682 432 q 488 344 490 346 q 468 325 472 339 q 446 263 463 307 q 412 172 429 218 q 381 88 394 125 q 365 47 367 50 q 343 40 356 33 q 304 61 325 50 q 297 74 296 65 l 296 74 q 351 286 311 161 q 350 291 351 289 q 346 292 349 293 q 225 261 278 271 q 172 254 199 257 q 171 254 171 254 q 139 269 153 261 q 93 304 115 282 q 92 310 90 307 q 96 313 93 313 q 347 368 201 319 q 382 379 360 372 q 385 382 383 381 q 647 854 489 660 q 715 932 682 896 q 907 1122 804 1035 q 1035 1196 936 1147 q 1081 1194 1058 1207 q 1114 1183 1092 1188 q 1147 1172 1136 1179 m 1003 1064 q 1002 1069 1006 1067 q 996 1069 999 1072 l 919 993 q 697 749 783 865 q 624 639 663 701 q 556 522 585 576 q 518 440 526 467 q 519 435 517 438 q 524 435 521 433 q 588 463 542 442 q 674 503 635 485 q 714 522 713 522 q 1003 1064 831 785 m 1050 1229 q 1006 1237 1026 1229 q 971 1257 985 1244 q 949 1287 957 1269 q 940 1322 940 1304 q 969 1392 940 1364 q 1047 1419 999 1419 q 1103 1407 1079 1419 q 1140 1372 1128 1394 q 1153 1324 1153 1350 q 1140 1276 1153 1297 q 1103 1242 1126 1254 q 1050 1229 1081 1229 m 1046 1382 q 1008 1365 1022 1382 q 994 1322 994 1347 q 1009 1285 994 1301 q 1046 1268 1024 1268 q 1083 1285 1068 1268 q 1097 1325 1097 1301 q 1083 1365 1097 1349 q 1046 1382 1068 1382 z "},"Æ":{"ha":1397,"x_min":90,"x_max":1589,"o":"m 1538 1225 q 1471 992 1589 1142 q 1249 882 1335 819 q 1210 990 1169 939 q 1215 999 1213 994 q 1218 1004 1218 1003 q 1219 1006 1218 1006 q 1222 1006 1221 1007 q 1226 1003 1222 1006 q 1236 1000 1231 1001 q 1271 946 1268 990 q 1371 1033 1322 975 q 1444 1149 1419 1092 q 1458 1246 1476 1221 q 1340 1247 1438 1272 q 1163 1169 1250 1224 q 1160 1160 1161 1165 q 1144 1131 1157 1154 q 1118 1083 1132 1108 q 1096 1044 1104 1057 q 940 765 999 889 q 869 607 911 707 q 870 602 868 604 q 875 601 872 600 q 1001 647 906 611 q 1121 697 1096 683 q 1151 717 1125 700 q 1197 744 1176 733 q 1231 754 1217 754 q 1279 739 1250 756 q 1313 706 1308 722 q 1308 692 1313 699 q 1296 678 1304 685 q 1277 666 1288 672 q 1254 654 1267 660 q 1231 644 1242 649 q 1210 636 1221 640 q 1194 629 1200 632 q 1080 581 1151 607 q 964 533 1008 556 q 926 516 953 528 q 888 497 900 504 q 854 474 876 490 q 819 438 832 457 q 790 385 806 418 q 760 308 774 351 q 728 189 743 249 q 718 148 728 185 q 703 88 708 111 q 693 32 699 65 q 690 -22 688 -1 q 704 -50 693 -43 q 967 56 742 -76 q 1179 221 1088 128 q 1190 231 1182 224 q 1201 244 1197 239 q 1213 257 1206 249 q 1224 269 1221 265 q 1231 282 1226 274 q 1235 294 1236 290 q 1233 306 1233 299 l 1228 301 q 1183 307 1197 292 q 1181 328 1176 315 q 1261 338 1192 376 q 1332 274 1314 308 l 1335 263 q 1320 214 1336 240 q 1273 158 1304 188 q 1222 113 1242 129 q 1168 71 1201 96 q 1157 63 1161 65 q 897 -89 1040 -29 q 700 -124 774 -140 l 700 -125 q 699 -124 700 -125 q 699 -124 699 -124 q 636 -97 667 -117 q 592 -65 607 -85 q 579 -33 578 -46 l 579 -19 q 585 44 581 3 q 616 208 589 85 q 686 450 643 332 q 684 455 686 453 q 679 456 682 457 q 488 369 492 371 q 468 350 472 364 q 446 288 463 332 q 412 197 429 243 q 381 113 394 150 q 365 72 367 75 q 343 65 356 58 q 304 86 324 75 q 297 99 296 90 l 296 99 q 351 311 311 186 q 346 317 350 315 q 225 286 278 296 q 172 279 199 282 q 171 279 172 279 q 139 294 153 286 q 93 329 115 307 q 92 335 90 332 q 96 338 93 338 q 347 393 201 344 q 382 404 360 397 q 385 407 383 406 q 647 879 489 685 q 715 957 682 921 q 907 1147 804 1060 q 1035 1221 936 1172 q 1318 1332 1239 1321 q 1406 1324 1363 1338 q 1483 1285 1450 1311 q 1538 1225 1517 1260 m 1003 1089 q 1002 1094 1006 1092 q 996 1094 999 1097 l 919 1018 q 697 774 783 890 q 588 604 644 701 q 518 465 531 507 q 519 460 517 463 q 524 460 521 458 q 588 488 542 467 q 674 528 635 510 q 714 547 713 547 q 1003 1089 831 811 z "},"Ç":{"ha":1063,"x_min":54,"x_max":1232,"o":"m 1182 1126 q 1217 971 1231 1067 q 1183 867 1208 922 q 1119 761 1157 811 q 1038 667 1082 711 q 949 594 993 624 q 843 558 876 547 q 767 611 817 567 q 735 792 700 671 q 778 888 747 839 q 847 942 810 938 q 897 931 863 944 q 940 907 932 918 q 921 829 964 879 q 881 849 894 838 q 837 764 851 811 q 826 674 822 717 q 835 629 829 638 q 838 626 836 629 q 846 618 843 618 q 857 624 849 618 q 867 629 863 626 q 946 699 901 651 q 1071 874 1018 775 q 1125 1053 1124 972 q 1075 1156 1125 1147 q 875 1111 1001 1167 q 532 875 692 1031 q 353 660 433 779 q 226 401 274 540 q 193 146 179 263 q 267 26 204 58 q 453 -10 336 -10 q 650 33 547 -8 q 813 149 753 75 q 851 224 839 182 q 851 300 863 267 q 843 311 850 303 q 831 327 836 319 q 825 335 825 335 q 862 331 829 344 q 906 308 894 317 q 946 247 933 286 q 947 171 958 207 q 797 15 919 90 q 506 -82 657 -71 q 504 -90 506 -85 q 501 -96 503 -94 q 501 -96 501 -96 q 499 -96 500 -96 l 476 -135 q 510 -148 496 -139 q 535 -173 525 -157 q 544 -208 544 -189 q 515 -267 544 -247 q 444 -287 486 -287 q 375 -271 403 -287 l 389 -226 q 443 -239 413 -239 q 485 -210 485 -239 q 408 -168 485 -176 l 446 -100 q 457 -83 451 -93 q 396 -78 425 -83 q 229 -20 300 -62 q 118 110 158 22 q 138 475 56 247 q 342 826 204 657 q 651 1104 476 993 q 1024 1226 888 1256 q 1110 1188 1065 1217 q 1182 1126 1154 1160 z "},"È":{"ha":925,"x_min":92,"x_max":1118,"o":"m 1065 1140 q 999 907 1117 1057 q 776 797 863 735 q 738 906 699 854 q 743 914 740 910 q 746 919 746 918 q 747 922 746 921 q 749 922 749 922 q 755 919 750 921 q 764 915 760 918 q 799 861 796 907 q 899 949 850 890 q 972 1064 947 1007 q 986 1161 1004 1136 q 868 1163 967 1188 q 616 1035 736 1128 q 425 825 496 942 q 347 575 340 683 q 350 551 349 558 q 355 533 351 543 q 366 517 358 522 q 386 508 374 513 q 531 543 433 497 q 595 580 554 554 q 649 613 636 606 q 678 632 653 615 q 724 659 704 649 q 758 671 744 669 q 811 651 778 671 q 847 614 844 631 q 842 594 850 604 q 818 574 835 585 q 790 556 801 563 q 758 539 778 549 q 735 528 738 529 q 674 497 714 517 q 609 464 633 476 q 551 431 585 451 q 490 392 518 411 q 236 164 314 265 q 178 39 181 92 q 226 0 176 -3 q 510 113 331 7 q 722 278 631 183 q 733 288 725 281 q 744 300 740 296 q 756 313 749 304 q 767 326 764 321 q 774 339 769 331 q 778 351 779 347 q 776 363 776 356 l 769 358 q 726 364 740 349 q 724 385 719 371 q 804 394 735 433 q 874 331 857 365 q 878 319 878 324 q 863 271 879 297 q 815 215 846 244 q 764 169 785 186 q 711 128 743 153 q 700 119 704 122 q 440 -32 583 28 q 282 -72 350 -72 q 149 -18 214 -71 q 110 24 124 1 q 94 70 96 46 q 94 117 92 94 q 113 166 97 139 q 141 214 128 193 q 181 263 154 235 q 225 308 207 290 q 274 353 243 326 q 322 393 306 379 q 368 431 339 407 q 388 446 382 442 q 335 496 371 468 q 279 551 300 524 q 256 622 258 578 q 354 911 247 751 q 573 1131 436 1033 q 846 1247 710 1229 q 913 1245 879 1251 q 974 1224 946 1239 q 1026 1188 1003 1208 q 1065 1140 1050 1167 m 911 1271 l 789 1382 q 786 1392 783 1386 q 794 1399 789 1399 l 885 1399 q 893 1396 890 1399 l 981 1285 q 982 1274 985 1279 q 974 1268 979 1268 l 918 1268 q 911 1271 914 1268 z "},"É":{"ha":925,"x_min":92,"x_max":1118,"o":"m 1065 1140 q 999 907 1117 1057 q 776 797 863 735 q 738 906 699 854 q 743 914 740 910 q 746 919 746 918 q 747 922 746 921 q 749 922 749 922 q 755 919 750 921 q 764 915 760 918 q 799 861 796 907 q 899 949 850 890 q 972 1064 947 1007 q 986 1161 1004 1136 q 868 1163 967 1188 q 616 1035 736 1128 q 425 825 496 942 q 347 575 340 683 q 350 551 349 558 q 355 533 351 543 q 366 517 358 522 q 386 508 374 513 q 531 543 433 497 q 595 580 554 554 q 649 613 636 606 q 672 628 654 617 q 702 647 689 639 q 732 663 715 656 q 758 671 749 669 q 791 662 771 671 q 828 639 811 653 q 847 614 846 625 q 842 594 850 604 q 818 574 835 585 q 790 556 801 563 q 758 539 778 549 q 735 528 738 529 q 674 497 714 517 q 609 464 633 476 q 551 431 585 451 q 490 392 518 411 q 236 164 314 265 q 178 39 181 92 q 226 0 176 -3 q 510 113 331 7 q 722 278 631 183 q 733 288 725 281 q 744 300 740 296 q 756 313 749 304 q 767 326 764 321 q 774 339 769 331 q 778 351 779 347 q 776 363 776 356 l 769 358 q 726 364 740 349 q 724 385 719 371 q 804 394 735 433 q 874 331 857 365 q 878 319 878 324 q 863 271 879 297 q 815 215 846 244 q 764 169 785 186 q 711 128 743 153 q 700 119 704 122 q 440 -32 583 28 q 282 -72 350 -72 q 149 -18 214 -71 q 110 24 124 1 q 94 70 96 46 q 94 117 92 94 q 113 166 97 139 q 141 214 128 193 q 181 263 154 235 q 225 308 207 290 q 274 353 243 326 q 322 393 306 379 q 368 431 339 407 q 388 446 382 442 q 335 496 371 468 q 279 551 300 524 q 256 622 258 578 q 354 911 247 751 q 573 1131 436 1033 q 846 1247 710 1229 q 972 1224 911 1256 q 1065 1140 1033 1193 m 807 1264 q 801 1268 803 1264 q 801 1276 799 1272 l 894 1393 q 900 1396 897 1396 l 997 1396 q 1003 1391 1001 1396 q 1001 1383 1006 1386 l 875 1267 q 869 1264 872 1264 l 807 1264 z "},"Ê":{"ha":925,"x_min":92,"x_max":1118,"o":"m 1065 1140 q 999 907 1117 1057 q 776 797 863 735 q 738 906 699 854 q 743 914 740 910 q 746 919 746 918 q 747 922 746 921 q 749 922 749 922 q 755 919 750 921 q 764 915 760 918 q 799 861 796 907 q 869 916 833 881 q 931 990 904 951 q 972 1064 957 1028 q 986 1161 1004 1136 q 868 1163 967 1188 q 616 1035 736 1128 q 425 825 496 942 q 347 575 340 683 q 350 551 349 558 q 355 533 351 543 q 366 517 358 522 q 386 508 374 513 q 531 543 433 497 q 595 580 554 554 q 649 613 636 606 q 672 628 654 617 q 702 647 689 639 q 732 663 715 656 q 758 671 749 669 q 791 662 771 671 q 828 639 811 653 q 847 614 846 625 q 842 594 850 604 q 818 574 835 585 q 790 556 801 563 q 758 539 778 549 q 735 528 738 529 q 674 497 714 517 q 609 464 633 476 q 551 431 585 451 q 490 392 518 411 q 236 164 314 265 q 178 39 181 92 q 226 0 176 -3 q 510 113 331 7 q 722 278 631 183 q 733 288 725 281 q 744 300 740 296 q 756 313 749 304 q 767 326 764 321 q 774 339 769 331 q 778 351 779 347 q 776 363 776 356 l 769 358 q 726 364 740 349 q 724 385 719 371 q 804 394 735 433 q 874 331 857 365 q 878 319 878 324 q 863 271 879 297 q 815 215 846 244 q 764 169 785 186 q 711 128 743 153 q 700 119 704 122 q 440 -32 583 28 q 282 -72 350 -72 q 149 -18 214 -71 q 110 24 124 1 q 94 70 96 46 q 94 117 92 94 q 113 166 97 139 q 141 214 128 193 q 181 263 154 235 q 225 308 207 290 q 274 353 243 326 q 322 393 306 379 q 368 431 339 407 q 388 446 382 442 q 335 496 371 468 q 279 551 300 524 q 256 622 258 578 q 354 911 247 751 q 573 1131 436 1033 q 846 1247 710 1229 q 972 1224 911 1256 q 1065 1140 1033 1193 m 707 1269 q 694 1278 697 1269 q 696 1294 690 1288 l 785 1394 q 796 1399 790 1399 l 860 1399 q 869 1394 865 1399 l 961 1294 q 965 1278 968 1288 q 951 1269 961 1269 l 907 1269 q 896 1275 900 1269 l 829 1347 l 826 1347 l 758 1275 q 749 1269 754 1269 l 707 1269 z "},"Ë":{"ha":925,"x_min":92,"x_max":1118,"o":"m 1065 1140 q 999 907 1117 1057 q 776 797 863 735 q 738 906 699 854 q 743 914 740 910 q 746 919 746 918 q 747 922 746 921 q 749 922 749 922 q 755 919 750 921 q 764 915 760 918 q 799 861 796 907 q 869 916 833 881 q 931 990 904 951 q 972 1064 957 1028 q 986 1161 1004 1136 q 868 1163 967 1188 q 616 1035 736 1128 q 425 825 496 942 q 347 575 340 683 q 350 551 349 558 q 355 533 351 543 q 366 517 358 522 q 386 508 374 513 q 531 543 433 497 q 595 580 554 554 q 649 613 636 606 q 672 628 654 617 q 702 647 689 639 q 732 663 715 656 q 758 671 749 669 q 791 662 771 671 q 828 639 811 653 q 847 614 846 625 q 842 594 850 604 q 818 574 835 585 q 790 556 801 563 q 758 539 778 549 q 735 528 738 529 q 674 497 714 517 q 609 464 633 476 q 551 431 585 451 q 490 392 518 411 q 236 164 314 265 q 178 39 181 92 q 226 0 176 -3 q 510 113 331 7 q 722 278 631 183 q 733 288 725 281 q 744 300 740 296 q 756 313 749 304 q 767 326 764 321 q 774 339 769 331 q 778 351 779 347 q 776 363 776 356 l 769 358 q 726 364 740 349 q 724 385 719 371 q 804 394 735 433 q 874 331 857 365 q 878 319 878 324 q 863 271 879 297 q 815 215 846 244 q 764 169 785 186 q 711 128 743 153 q 700 119 704 122 q 440 -32 583 28 q 282 -72 350 -72 q 149 -18 214 -71 q 110 24 124 1 q 94 70 96 46 q 94 117 92 94 q 113 166 97 139 q 141 214 128 193 q 181 263 154 235 q 225 308 207 290 q 274 353 243 326 q 322 393 306 379 q 368 431 339 407 q 388 446 382 442 q 335 496 371 468 q 279 551 300 524 q 256 622 258 578 q 354 911 247 751 q 573 1131 436 1033 q 846 1247 710 1229 q 972 1224 911 1256 q 1065 1140 1033 1193 m 807 1289 q 799 1281 807 1289 q 767 1272 792 1272 q 728 1289 743 1272 q 713 1329 713 1306 q 728 1369 713 1353 q 769 1386 744 1386 q 807 1369 792 1386 q 822 1329 822 1353 q 807 1289 822 1306 m 976 1272 q 938 1289 953 1272 q 922 1329 922 1306 q 938 1369 922 1353 q 978 1386 954 1386 q 1017 1369 1001 1386 q 1032 1329 1032 1353 q 1017 1288 1032 1304 q 976 1272 1001 1272 z "},"Ì":{"ha":965,"x_min":68,"x_max":1110,"o":"m 961 1201 q 1029 811 1110 1124 q 883 408 994 675 q 843 313 857 344 q 758 90 804 217 q 751 69 757 86 q 733 13 740 35 q 710 -37 726 -8 q 675 -74 693 -65 q 639 -72 657 -82 q 617 -45 626 -65 q 605 -8 608 -25 q 596 40 601 10 q 585 97 589 83 q 443 247 535 233 q 285 193 361 258 q 234 136 256 168 q 200 69 213 104 q 188 1 188 35 q 197 -65 186 -32 q 232 -112 208 -97 q 294 -118 257 -131 q 342 -82 321 -110 q 374 -24 364 -54 q 386 35 385 7 q 385 51 386 44 q 383 60 385 57 q 379 66 382 64 q 372 68 376 68 q 364 68 368 68 q 331 72 343 67 q 310 104 303 82 q 327 124 314 115 q 357 132 340 132 q 417 115 381 132 q 467 79 454 97 q 476 -32 496 42 q 400 -154 456 -114 q 322 -181 365 -181 q 308 -179 315 -181 q 210 -152 261 -175 q 131 -94 158 -129 q 104 94 68 -19 q 165 206 122 154 q 263 286 208 258 q 326 307 294 303 q 393 303 358 311 q 449 286 428 294 q 507 261 471 278 l 517 257 q 613 193 581 226 q 635 158 621 185 q 663 119 653 128 q 861 621 782 417 q 889 697 879 669 q 915 773 899 724 q 940 857 932 822 q 955 935 947 892 q 962 1019 963 979 q 954 1094 961 1058 q 932 1156 947 1133 q 892 1186 917 1178 q 831 1189 868 1194 q 589 1088 721 1175 q 417 926 485 1018 q 335 738 350 833 q 336 644 326 690 q 381 589 346 599 q 481 607 421 576 q 578 679 542 638 q 625 772 617 724 l 625 774 q 625 811 629 803 q 619 818 622 815 q 601 811 614 807 q 596 813 599 811 q 571 826 575 818 q 574 842 568 832 q 614 857 582 860 q 657 838 638 856 q 682 800 676 821 q 631 633 706 719 q 532 557 589 585 q 426 535 475 529 q 265 626 314 543 q 258 840 214 715 q 374 1025 294 938 q 561 1174 453 1113 q 767 1243 672 1236 q 961 1201 867 1251 m 956 1260 l 833 1371 q 831 1381 828 1375 q 839 1388 833 1388 l 929 1388 q 938 1383 935 1388 l 1025 1274 q 1026 1263 1029 1268 q 1018 1257 1024 1257 l 963 1257 q 956 1260 958 1257 z "},"Í":{"ha":961,"x_min":68,"x_max":1110,"o":"m 961 1201 q 1029 811 1110 1124 q 883 408 994 675 q 843 313 857 344 q 758 90 804 217 q 751 69 757 85 q 733 13 740 35 q 710 -37 726 -8 q 675 -74 693 -65 q 639 -72 657 -82 q 617 -45 626 -65 q 605 -8 608 -25 q 596 40 601 10 q 585 97 589 83 q 443 247 535 233 q 285 193 361 258 q 234 136 256 168 q 200 69 213 104 q 188 1 188 35 q 197 -65 186 -32 q 232 -112 208 -97 q 294 -118 257 -131 q 342 -82 321 -110 q 374 -24 364 -54 q 386 35 385 7 q 385 51 386 44 q 383 60 385 57 q 379 66 382 64 q 372 68 376 68 q 364 68 368 68 q 331 72 343 67 q 310 104 303 82 q 327 124 314 115 q 357 132 340 132 q 417 115 381 132 q 467 79 454 97 q 476 -32 496 42 q 400 -154 456 -114 q 322 -181 365 -181 q 308 -179 315 -181 q 210 -152 261 -175 q 131 -94 158 -129 q 104 94 68 -19 q 165 206 122 154 q 263 286 208 258 q 326 307 294 303 q 393 303 358 311 q 449 286 428 294 q 507 261 471 278 l 517 257 q 613 193 581 226 q 635 158 621 185 q 663 119 653 128 q 861 621 782 417 q 889 697 879 669 q 915 773 899 724 q 940 857 932 822 q 955 935 947 892 q 962 1019 963 979 q 954 1094 961 1058 q 932 1156 947 1133 q 892 1186 917 1178 q 831 1189 868 1194 q 589 1088 721 1175 q 417 926 485 1018 q 335 738 350 833 q 336 644 326 690 q 381 589 346 599 q 481 607 421 576 q 578 679 542 638 q 625 772 617 724 l 625 774 q 625 811 629 803 q 619 818 622 815 q 601 811 614 807 q 596 813 599 811 q 571 826 575 818 q 574 842 568 832 q 614 857 582 860 q 657 838 638 856 q 682 800 676 821 q 631 633 706 719 q 532 557 589 585 q 426 535 475 529 q 265 626 314 543 q 258 840 214 715 q 374 1025 294 938 q 561 1174 453 1113 q 767 1243 672 1236 q 961 1201 867 1251 m 1058 1388 q 1066 1383 1064 1388 q 1064 1375 1068 1378 l 938 1257 q 932 1256 935 1256 l 869 1256 q 862 1260 864 1256 q 864 1268 860 1264 l 957 1385 q 963 1388 958 1388 l 1058 1388 z "},"Î":{"ha":965,"x_min":68,"x_max":1110,"o":"m 961 1201 q 1029 811 1110 1124 q 883 408 994 675 q 843 313 857 344 q 758 90 804 217 q 751 69 757 85 q 733 13 740 35 q 710 -37 726 -8 q 675 -74 693 -65 q 639 -72 657 -82 q 617 -45 626 -65 q 605 -8 608 -25 q 596 40 601 10 q 585 97 589 83 q 443 247 535 233 q 285 193 361 258 q 234 136 256 168 q 200 69 213 104 q 188 1 188 35 q 197 -65 186 -32 q 232 -112 208 -97 q 294 -118 257 -131 q 342 -82 321 -110 q 374 -24 364 -54 q 386 35 385 7 q 385 51 386 44 q 383 60 385 57 q 379 66 382 64 q 372 68 376 68 q 364 68 368 68 q 331 72 343 67 q 310 104 303 82 q 327 124 314 115 q 357 132 340 132 q 417 115 381 132 q 467 79 454 97 q 476 -32 496 42 q 400 -154 456 -114 q 322 -181 365 -181 q 308 -179 315 -181 q 210 -152 261 -175 q 131 -94 158 -129 q 104 94 68 -19 q 165 206 122 154 q 263 286 208 258 q 326 307 294 303 q 393 303 358 311 q 449 286 428 294 q 507 261 471 278 l 517 257 q 613 193 581 226 q 635 158 621 185 q 663 119 653 128 q 861 621 782 417 q 889 697 879 669 q 915 773 899 724 q 940 857 932 822 q 955 935 947 892 q 962 1019 963 979 q 954 1094 961 1058 q 932 1156 947 1133 q 892 1186 917 1178 q 831 1189 868 1194 q 589 1088 721 1175 q 417 926 485 1018 q 335 738 350 833 q 331 681 332 711 q 344 624 331 651 q 381 589 357 596 q 481 607 421 576 q 578 679 542 638 q 625 772 617 724 l 625 774 q 625 811 629 803 q 619 818 622 815 q 601 811 614 807 q 596 813 599 811 q 571 826 575 818 q 574 842 568 832 q 614 857 582 860 q 657 838 638 856 q 682 800 676 821 q 631 633 706 719 q 532 557 589 585 q 426 535 475 529 q 265 626 314 543 q 258 840 214 715 q 374 1025 294 938 q 561 1174 453 1113 q 767 1243 672 1236 q 961 1201 867 1251 m 640 1258 q 628 1267 632 1258 q 631 1283 624 1276 l 719 1383 q 731 1388 724 1388 l 793 1388 q 804 1383 800 1388 l 896 1283 q 898 1267 901 1276 q 885 1258 894 1258 l 840 1258 q 831 1264 835 1258 l 764 1338 l 761 1338 l 693 1264 q 682 1258 689 1258 l 640 1258 z "},"Ï":{"ha":965,"x_min":68,"x_max":1110,"o":"m 961 1201 q 1029 811 1110 1124 q 883 408 994 675 q 843 313 857 344 q 758 90 804 215 q 751 69 757 86 q 733 13 740 35 q 710 -37 726 -8 q 675 -74 693 -65 q 639 -72 657 -82 q 622 -56 629 -67 q 610 -26 615 -44 q 603 4 606 -8 q 596 40 600 17 q 585 97 589 83 q 443 247 535 233 q 285 193 361 258 q 214 103 240 156 q 188 1 188 51 q 197 -65 186 -32 q 232 -112 208 -97 q 294 -118 257 -131 q 342 -82 321 -110 q 374 -24 364 -54 q 386 35 385 7 q 384 58 386 51 q 378 67 382 65 q 364 68 374 68 q 331 72 343 67 q 310 104 303 82 q 327 124 314 115 q 357 132 340 132 q 417 115 381 132 q 467 79 454 97 q 476 -32 496 42 q 400 -154 456 -114 q 322 -181 365 -181 q 308 -179 315 -181 q 210 -152 261 -175 q 131 -94 158 -129 q 104 94 68 -19 q 165 206 122 154 q 263 286 208 258 q 326 307 294 303 q 393 303 358 311 q 449 286 428 294 q 507 261 471 278 l 517 257 q 613 193 581 226 q 635 158 621 185 q 663 119 653 128 q 861 621 782 415 q 889 697 879 669 q 915 773 899 724 q 940 857 932 822 q 955 935 947 892 q 962 1019 963 979 q 954 1094 961 1058 q 915 1174 943 1153 q 831 1189 886 1196 q 589 1088 721 1175 q 417 926 485 1018 q 335 738 350 833 q 331 681 332 711 q 344 624 331 651 q 381 589 357 596 q 481 607 421 576 q 578 679 542 638 q 625 772 617 724 l 625 774 q 625 811 629 803 q 619 818 622 817 q 601 811 613 807 q 596 813 599 811 q 571 826 575 818 q 574 842 568 832 q 614 857 582 860 q 638 851 626 857 q 658 838 649 846 q 673 819 667 829 q 682 800 679 810 q 631 633 706 719 q 532 557 589 585 q 426 535 475 529 q 265 626 314 543 q 258 840 214 715 q 374 1025 294 938 q 561 1174 453 1113 q 767 1243 672 1236 q 961 1201 867 1251 m 724 1290 q 716 1282 724 1290 q 685 1274 708 1274 q 645 1290 661 1274 q 629 1331 629 1307 q 645 1372 629 1356 q 686 1388 661 1388 q 724 1372 708 1388 q 739 1332 739 1356 q 724 1290 739 1307 m 893 1274 q 854 1290 869 1274 q 839 1332 839 1307 q 855 1372 839 1356 q 894 1388 871 1388 q 933 1372 918 1388 q 949 1332 949 1356 q 933 1290 949 1307 q 893 1274 918 1274 z "},"Ð":{"ha":1174,"x_min":89,"x_max":1299,"o":"m 1221 972 q 1176 576 1299 811 q 901 231 1078 389 q 749 104 840 174 q 754 100 750 103 q 856 68 804 72 q 935 64 917 63 l 947 65 l 939 56 q 850 0 911 15 l 849 -1 q 729 -10 775 -25 q 651 32 703 -1 q 632 19 644 28 q 379 -103 499 -81 q 306 -110 340 -110 q 158 -62 219 -110 q 111 -10 128 -40 q 92 58 94 19 q 117 138 89 97 q 190 211 143 181 q 194 214 192 213 q 205 220 197 215 q 220 229 213 225 q 240 239 228 233 q 266 249 253 244 q 297 256 279 253 q 331 262 314 260 q 368 263 347 264 q 410 260 389 263 q 411 261 410 260 l 528 576 q 403 583 483 578 q 390 583 393 583 q 360 606 367 585 l 344 654 q 351 680 340 668 q 378 690 361 692 q 567 683 478 686 l 717 1089 l 719 1090 q 815 1046 763 1110 q 814 1042 814 1044 q 814 1040 814 1042 l 814 1040 l 682 681 q 822 685 763 679 q 858 664 850 688 l 874 617 q 869 593 878 604 q 846 581 861 582 q 831 578 836 579 q 642 572 746 571 l 517 236 q 653 164 588 211 q 656 163 654 163 q 667 154 658 160 q 765 228 701 169 l 771 233 q 1031 544 932 382 q 1135 800 1113 681 q 1086 1033 1161 947 q 793 1138 990 1144 q 456 1038 617 1129 q 429 1021 443 1031 q 444 1075 433 1050 q 528 1176 469 1135 q 546 1183 538 1181 q 950 1182 756 1250 q 1017 1155 985 1171 q 1090 1114 1050 1139 q 1165 1052 1131 1089 q 1221 972 1200 1015 m 329 -25 q 571 88 464 22 q 564 93 568 90 q 526 118 553 100 q 467 160 489 146 q 409 188 444 174 q 344 203 374 203 q 318 200 331 203 q 226 138 268 190 q 186 35 185 86 q 213 -15 188 3 q 266 -33 233 -31 q 329 -25 299 -35 z "},"Ñ":{"ha":1133,"x_min":-3,"x_max":1660,"o":"m 1635 1269 q 1656 1251 1651 1268 q 1646 1226 1660 1235 l 1644 1225 q 1611 1212 1636 1221 q 1578 1196 1586 1203 q 1532 1169 1554 1186 q 1496 1137 1510 1151 q 1463 1092 1482 1122 q 1438 1049 1444 1061 q 1413 998 1432 1036 q 1390 953 1393 960 q 1299 751 1356 883 q 1222 571 1243 618 q 1065 167 1171 463 q 1052 128 1065 167 q 1032 73 1039 89 q 1010 32 1025 57 q 979 -6 996 7 q 946 -21 963 -18 q 911 -17 929 -24 q 882 -2 893 -10 q 851 19 871 6 q 819 56 832 33 q 801 99 807 78 q 792 151 794 119 q 791 203 790 183 q 794 260 792 224 q 796 311 796 296 q 806 625 803 532 q 780 592 797 624 q 746 525 763 561 q 712 451 729 489 q 690 407 694 414 q 517 149 603 246 q 408 47 464 89 q 292 -17 351 6 q 171 -31 232 -40 q 57 25 110 -21 q 3 150 -3 76 q 55 297 10 224 q 165 418 100 369 q 371 454 279 504 q 426 399 394 440 q 424 315 478 329 q 395 324 404 310 q 386 357 386 338 q 383 396 386 376 q 371 421 379 415 q 283 399 342 438 q 188 322 225 361 q 97 151 121 253 q 133 22 69 42 q 232 36 169 11 q 349 105 293 61 q 451 208 404 149 q 532 318 499 267 q 603 436 565 369 q 739 707 661 540 q 778 787 751 735 q 825 882 806 839 q 857 964 844 925 q 863 994 860 974 q 870 1024 867 1014 q 883 1044 874 1035 q 911 1051 893 1053 q 942 1036 925 1050 q 964 1008 960 1022 q 965 972 968 997 q 958 927 963 947 q 947 881 953 907 q 939 842 940 856 q 926 745 936 819 q 914 640 917 671 q 898 502 910 600 q 883 354 886 404 q 883 228 879 304 q 904 88 886 151 q 938 167 921 125 q 968 242 956 210 q 997 321 981 275 q 1028 400 1014 367 q 1147 688 1046 447 q 1293 1021 1249 928 q 1392 1174 1338 1113 q 1526 1260 1447 1236 q 1635 1269 1575 1274 m 1031 1242 q 1017 1247 1022 1242 q 1013 1260 1013 1253 q 1036 1331 1015 1304 q 1089 1357 1057 1357 q 1157 1335 1114 1357 q 1210 1314 1193 1314 q 1221 1315 1217 1314 q 1228 1320 1225 1317 q 1235 1329 1232 1324 q 1239 1343 1238 1335 q 1256 1358 1242 1358 l 1276 1358 q 1285 1356 1281 1358 q 1291 1349 1289 1353 q 1293 1340 1293 1344 q 1217 1249 1288 1249 q 1147 1269 1190 1249 q 1094 1292 1107 1292 q 1068 1256 1074 1292 q 1050 1242 1065 1242 l 1031 1242 z "},"Ò":{"ha":1039,"x_min":90,"x_max":1117,"o":"m 832 1215 q 942 1197 892 1218 q 1024 1138 992 1175 q 1078 1049 1056 1100 q 1108 944 1100 999 q 1114 833 1117 889 q 1065 583 1110 715 q 948 332 1021 451 q 769 117 875 213 q 547 -18 664 22 q 307 -26 406 -68 q 155 114 208 17 q 93 346 101 211 q 92 395 93 392 q 96 439 92 399 q 100 483 100 479 q 126 594 110 539 q 165 701 142 649 q 217 805 188 754 q 281 903 246 856 q 356 994 317 950 q 457 1076 404 1047 q 563 1101 510 1106 q 651 1050 615 1096 q 618 1050 635 1054 q 379 868 486 1015 q 197 490 238 674 q 181 374 189 438 q 192 238 174 314 q 239 111 210 161 q 310 54 264 71 q 403 42 356 38 q 504 65 451 47 q 703 188 610 103 q 860 381 797 274 q 965 603 924 489 q 1022 825 1007 717 q 1031 909 1029 875 q 1031 988 1033 943 q 1010 1067 1028 1033 q 960 1119 992 1100 q 828 1118 899 1156 q 740 1001 757 1081 q 685 1024 708 1006 q 657 1072 663 1043 q 678 1149 649 1115 q 750 1198 708 1183 q 832 1215 792 1213 m 764 1256 l 642 1367 q 639 1378 636 1371 q 649 1385 642 1385 l 739 1385 q 746 1381 743 1385 l 835 1269 q 836 1258 839 1264 q 826 1253 833 1253 l 771 1253 q 764 1256 767 1253 z "},"Ó":{"ha":1039,"x_min":90,"x_max":1117,"o":"m 832 1215 q 942 1197 892 1218 q 1024 1138 992 1175 q 1078 1049 1056 1100 q 1108 944 1100 999 q 1114 833 1117 889 q 1065 583 1110 715 q 948 332 1021 451 q 769 117 875 213 q 547 -18 664 22 q 307 -26 406 -68 q 155 114 208 17 q 93 346 101 211 q 92 395 93 392 q 96 439 92 399 q 100 483 100 479 q 189 751 122 619 q 356 994 256 883 q 457 1076 404 1047 q 563 1101 510 1106 q 651 1050 615 1096 q 618 1050 635 1054 q 379 868 486 1015 q 197 490 238 674 q 181 374 189 438 q 192 238 174 314 q 239 111 210 161 q 310 54 264 71 q 403 42 356 38 q 504 65 451 47 q 703 188 610 103 q 860 381 797 274 q 965 603 924 489 q 1022 825 1007 717 q 1031 909 1029 875 q 1031 988 1033 943 q 1010 1067 1028 1033 q 960 1119 992 1100 q 828 1118 899 1156 q 740 1001 757 1081 q 685 1024 708 1006 q 657 1072 663 1043 q 678 1149 649 1115 q 750 1198 708 1183 q 832 1215 792 1213 m 689 1254 q 683 1259 685 1254 q 683 1267 681 1264 l 776 1383 q 782 1388 778 1388 l 878 1388 q 885 1383 883 1388 q 883 1374 888 1378 l 757 1257 q 751 1254 754 1254 l 689 1254 z "},"Ô":{"ha":1039,"x_min":90,"x_max":1117,"o":"m 832 1215 q 942 1197 892 1218 q 1024 1138 992 1175 q 1078 1049 1056 1100 q 1108 944 1100 999 q 1114 833 1117 889 q 1065 583 1110 715 q 948 332 1021 451 q 769 117 875 213 q 547 -18 664 22 q 307 -26 406 -68 q 155 114 208 17 q 93 346 101 211 q 92 395 93 392 q 96 439 92 399 q 100 483 100 479 q 189 751 122 619 q 356 994 256 883 q 457 1076 404 1047 q 563 1101 510 1106 q 651 1050 615 1096 q 618 1050 635 1054 q 379 868 486 1015 q 197 490 238 674 q 181 374 189 438 q 192 238 174 314 q 239 111 210 161 q 310 54 264 71 q 403 42 356 38 q 504 65 451 47 q 703 188 610 103 q 860 381 797 274 q 965 603 924 489 q 1022 825 1007 717 q 1031 909 1029 875 q 1031 988 1033 943 q 1010 1067 1028 1033 q 960 1119 992 1100 q 828 1118 899 1156 q 740 1001 757 1081 q 685 1024 708 1006 q 657 1072 663 1043 q 678 1149 649 1115 q 750 1198 708 1183 q 832 1215 792 1213 m 625 1251 q 612 1260 615 1251 q 614 1276 608 1269 l 703 1376 q 714 1381 708 1381 l 776 1381 q 788 1376 783 1381 l 879 1276 q 883 1260 886 1269 q 869 1251 879 1251 l 825 1251 q 814 1257 818 1251 l 747 1329 l 744 1329 l 676 1257 q 667 1251 672 1251 l 625 1251 z "},"Õ":{"ha":1039,"x_min":90,"x_max":1117,"o":"m 832 1224 q 942 1205 892 1226 q 1024 1146 992 1183 q 1078 1058 1056 1108 q 1108 952 1100 1007 q 1114 842 1117 897 q 1065 592 1110 724 q 948 340 1021 460 q 769 126 875 221 q 547 -10 664 31 q 307 -17 406 -60 q 155 122 208 25 q 93 356 101 219 q 92 403 93 400 q 96 447 92 407 q 100 492 100 488 q 189 760 122 628 q 356 1003 256 893 q 457 1085 404 1056 q 563 1109 510 1114 q 651 1058 615 1104 q 618 1058 635 1063 q 379 876 486 1024 q 197 499 238 682 q 181 382 189 446 q 192 246 174 322 q 239 119 210 169 q 310 63 264 79 q 403 51 356 46 q 504 75 451 56 q 667 167 589 104 q 803 307 744 229 q 908 476 861 385 q 983 658 954 567 q 1022 833 1011 749 q 960 1128 1054 1071 q 828 1126 899 1164 q 740 1010 757 1089 q 685 1033 708 1014 q 657 1081 663 1051 q 661 1131 651 1107 q 690 1170 671 1154 q 733 1199 708 1186 q 783 1217 758 1211 q 832 1224 808 1222 m 696 1249 q 683 1254 688 1249 q 678 1268 678 1260 q 690 1319 681 1297 q 717 1352 700 1340 q 754 1364 733 1364 q 822 1342 779 1364 q 875 1321 858 1321 q 904 1351 900 1321 q 922 1365 907 1365 l 942 1365 q 950 1363 946 1365 q 957 1356 954 1360 q 958 1347 960 1351 q 882 1256 954 1256 q 814 1278 857 1256 q 760 1299 772 1299 q 733 1263 740 1299 q 717 1249 731 1249 l 696 1249 z "},"Ö":{"ha":1039,"x_min":90,"x_max":1117,"o":"m 832 1215 q 942 1197 892 1218 q 1024 1138 992 1175 q 1078 1049 1056 1100 q 1108 944 1100 999 q 1114 833 1117 889 q 1065 583 1110 715 q 948 332 1021 451 q 769 117 875 213 q 547 -18 664 22 q 307 -26 406 -68 q 155 114 208 17 q 93 346 101 211 q 92 395 93 392 q 96 439 92 399 q 100 483 100 479 q 189 751 122 619 q 356 994 256 883 q 457 1076 404 1047 q 563 1101 510 1106 q 651 1050 615 1096 q 618 1050 635 1054 q 379 868 486 1015 q 197 490 238 674 q 181 374 189 438 q 192 238 174 314 q 239 111 210 161 q 310 54 264 71 q 403 42 356 38 q 504 65 451 47 q 703 188 610 103 q 860 381 797 274 q 965 603 924 489 q 1022 825 1007 717 q 1031 909 1029 875 q 1031 988 1033 943 q 1010 1067 1028 1033 q 960 1119 992 1100 q 828 1118 899 1156 q 740 1001 757 1081 q 685 1024 708 1006 q 657 1072 663 1043 q 678 1149 649 1115 q 750 1198 708 1183 q 832 1215 792 1213 m 731 1236 q 702 1244 715 1236 q 682 1266 689 1253 q 675 1294 675 1279 q 679 1316 675 1306 q 691 1334 683 1326 q 709 1347 699 1342 q 732 1351 719 1351 q 769 1335 754 1351 q 785 1294 785 1318 q 770 1253 785 1269 q 731 1236 756 1236 m 940 1236 q 901 1253 915 1236 q 886 1294 886 1269 q 901 1335 886 1318 q 940 1351 917 1351 q 979 1335 964 1351 q 994 1294 994 1318 q 988 1265 994 1278 q 969 1244 982 1253 q 940 1236 956 1236 z "},"×":{"ha":806,"x_min":132,"x_max":675,"o":"m 606 297 q 613 288 607 294 q 623 277 619 282 q 630 266 626 272 q 631 255 633 260 q 618 248 628 250 q 591 251 608 246 q 552 265 574 257 q 525 275 531 274 q 474 310 497 283 q 428 372 450 338 q 392 419 406 407 q 261 286 350 385 q 252 274 260 283 q 239 259 244 265 q 225 245 233 253 q 208 233 217 238 q 193 230 200 229 q 180 233 186 231 q 167 240 174 236 q 156 246 161 244 q 150 249 154 247 q 135 256 138 253 q 135 268 132 258 q 172 325 138 288 q 249 403 181 333 q 315 472 306 463 q 322 481 317 475 q 331 492 326 486 q 340 501 336 497 q 329 516 335 507 q 318 537 324 525 q 310 553 313 549 q 236 681 254 654 q 228 690 235 683 q 219 701 222 696 q 213 713 215 707 q 213 723 210 718 q 224 730 215 728 q 248 726 232 732 q 284 712 264 721 q 308 701 304 703 q 357 666 335 693 q 400 604 379 639 q 433 557 421 569 q 554 690 472 592 q 563 701 556 692 q 575 716 569 710 q 588 730 581 722 q 603 742 596 738 q 617 744 611 746 q 627 742 622 744 q 635 738 632 740 q 643 733 639 736 q 651 728 647 729 q 657 726 654 728 q 671 719 668 722 q 672 706 674 717 q 638 650 669 688 q 567 572 631 643 q 506 504 514 514 q 497 493 503 501 q 486 481 490 485 l 488 479 q 502 466 496 475 q 516 442 508 457 q 525 425 524 428 q 606 297 585 322 z "},"Ø":{"ha":1040,"x_min":90,"x_max":1121,"o":"m 1064 1078 q 1114 833 1119 974 q 1065 583 1110 715 q 948 332 1021 451 q 769 117 875 213 q 547 -18 664 22 q 249 6 369 -81 q 229 -4 236 -4 q 183 36 211 -3 q 174 49 176 46 q 171 88 157 67 q 93 346 101 192 q 92 395 93 392 q 96 439 92 399 q 100 483 100 479 q 150 665 115 575 q 237 838 185 756 q 356 994 289 921 q 457 1076 404 1047 q 563 1101 510 1106 q 651 1050 615 1096 q 618 1050 635 1054 q 379 868 486 1015 q 197 490 238 674 q 181 374 189 438 q 186 264 175 325 q 219 151 197 203 q 242 183 228 164 q 258 207 256 203 q 375 361 296 258 q 660 736 575 628 q 810 922 708 799 q 929 1071 889 1019 q 930 1072 929 1069 q 932 1076 931 1074 q 936 1082 933 1078 q 942 1090 939 1086 q 949 1099 946 1094 q 956 1108 951 1103 q 963 1117 960 1113 l 963 1118 l 960 1119 q 828 1118 899 1156 q 740 1001 757 1081 q 685 1024 708 1006 q 657 1072 663 1043 q 678 1149 649 1115 q 750 1198 708 1183 q 832 1215 792 1213 q 1004 1157 933 1219 q 1011 1163 1008 1160 q 1057 1196 1024 1169 q 1104 1147 1103 1163 q 1078 1097 1104 1135 q 1065 1081 1068 1085 q 1065 1079 1065 1081 q 1064 1078 1064 1078 m 1022 825 q 1026 1014 1039 950 q 986 954 1006 978 q 878 819 951 908 q 679 567 811 738 q 540 388 586 447 q 457 275 514 351 l 439 250 q 408 211 429 238 q 380 174 406 207 q 329 110 354 142 q 292 61 304 79 q 504 65 372 19 q 642 139 575 92 q 761 247 708 186 q 859 380 814 308 q 937 528 904 451 q 991 679 969 604 q 1022 825 1013 754 z "},"Ù":{"ha":950,"x_min":39,"x_max":1079,"o":"m 1075 1113 q 1064 1054 1078 1096 q 1040 992 1056 1032 q 1013 923 1031 968 q 986 858 994 878 q 800 331 846 508 q 772 192 781 254 q 763 61 769 178 q 769 6 760 32 q 803 -11 778 -21 q 826 -5 804 -11 q 860 8 847 1 q 898 35 874 14 q 943 89 922 57 q 957 38 957 60 q 944 -12 957 17 q 890 -54 940 -25 q 817 -81 839 -83 q 783 -70 800 -79 q 758 -53 767 -61 q 733 -29 749 -44 q 675 61 686 18 q 669 176 664 101 q 719 431 679 289 q 569 201 614 260 q 388 11 485 89 q 335 -26 358 -11 q 285 -46 311 -40 q 178 -17 232 -56 q 125 335 39 86 q 181 478 150 406 q 260 658 211 550 q 325 800 310 767 q 378 925 357 871 q 407 1050 410 1007 q 399 1081 407 1069 q 378 1093 392 1092 q 351 1093 365 1094 q 318 1083 338 1092 q 285 1069 299 1075 q 254 1053 272 1063 q 231 1040 236 1043 q 203 1026 215 1033 q 236 1138 196 1092 l 238 1139 q 278 1164 253 1157 q 404 1149 350 1181 q 472 1081 447 1122 q 496 992 496 1040 q 493 959 496 976 q 488 929 490 942 q 478 897 485 917 q 468 867 471 876 q 455 835 465 858 q 442 806 444 813 q 428 774 440 800 q 414 746 415 749 q 300 488 360 631 q 203 231 222 303 q 179 103 185 167 q 218 32 174 31 q 232 35 225 33 q 247 40 239 36 q 260 48 254 44 q 274 57 267 51 q 287 67 282 63 q 299 77 292 71 q 311 86 307 83 q 410 179 363 129 q 453 230 431 203 q 492 278 475 257 q 531 334 508 300 q 567 386 554 368 q 603 444 579 404 q 635 498 628 485 q 670 557 643 511 q 703 611 697 603 q 836 854 779 742 q 951 1108 925 1028 q 955 1119 954 1115 q 959 1131 956 1122 q 964 1142 963 1139 q 969 1153 965 1146 q 976 1163 974 1161 q 985 1172 979 1165 q 994 1178 990 1178 q 1005 1181 999 1178 q 1017 1179 1011 1183 q 1042 1165 1029 1175 q 1064 1140 1054 1154 q 1075 1113 1074 1126 m 764 1261 l 642 1372 q 639 1383 636 1376 q 649 1390 642 1390 l 739 1390 q 746 1386 743 1390 l 835 1275 q 835 1264 838 1269 q 826 1258 832 1258 l 771 1258 q 764 1261 767 1258 z "},"Ú":{"ha":951,"x_min":39,"x_max":1079,"o":"m 1075 1113 q 1064 1054 1078 1096 q 1040 992 1056 1032 q 1013 923 1031 968 q 986 858 994 878 q 800 331 846 508 q 772 192 781 254 q 763 61 769 178 q 769 6 760 32 q 803 -11 778 -21 q 826 -5 804 -11 q 860 8 847 1 q 898 35 874 14 q 943 89 922 57 q 957 38 957 60 q 944 -12 957 17 q 890 -54 940 -25 q 817 -81 839 -83 q 783 -70 800 -79 q 758 -53 767 -61 q 733 -29 749 -44 q 675 61 686 18 q 669 176 664 101 q 719 431 679 289 q 569 201 614 260 q 388 11 485 89 q 335 -26 358 -11 q 285 -46 311 -40 q 178 -17 232 -56 q 125 335 39 86 q 181 478 150 406 q 260 658 211 550 q 325 800 310 767 q 378 925 357 871 q 407 1050 410 1007 q 399 1081 407 1069 q 378 1093 392 1092 q 351 1093 365 1094 q 318 1083 338 1092 q 285 1069 299 1075 q 254 1053 272 1063 q 231 1040 236 1043 q 203 1026 215 1033 q 236 1138 196 1092 l 238 1139 q 278 1164 253 1157 q 404 1149 350 1181 q 472 1081 447 1122 q 496 992 496 1040 q 493 959 496 976 q 488 929 490 942 q 478 897 485 917 q 468 867 471 876 q 455 835 465 858 q 442 806 444 813 q 428 774 440 800 q 414 746 415 749 q 300 488 360 631 q 203 231 222 303 q 179 103 185 167 q 218 32 174 31 q 232 35 225 33 q 247 40 239 36 q 260 48 254 44 q 274 57 267 51 q 287 67 282 63 q 299 77 292 71 q 311 86 307 83 q 410 179 363 129 q 453 230 431 203 q 492 278 475 257 q 531 334 508 300 q 567 386 554 368 q 603 444 579 404 q 635 498 628 485 q 670 557 643 511 q 703 611 697 603 q 836 854 779 742 q 951 1108 925 1028 q 955 1119 954 1115 q 959 1131 956 1122 q 964 1142 963 1139 q 969 1153 965 1146 q 976 1163 974 1161 q 985 1172 979 1165 q 994 1178 990 1178 q 1005 1181 999 1178 q 1017 1179 1011 1183 q 1042 1165 1029 1175 q 1064 1140 1054 1154 q 1075 1113 1074 1126 m 624 1254 q 617 1259 619 1254 q 618 1267 615 1264 l 711 1383 q 717 1388 713 1388 l 813 1388 q 820 1383 818 1388 q 818 1374 822 1378 l 692 1257 q 686 1254 689 1254 l 624 1254 z "},"Û":{"ha":951,"x_min":39,"x_max":1079,"o":"m 1075 1113 q 1064 1054 1078 1096 q 1040 992 1056 1032 q 1013 923 1031 968 q 986 858 994 878 q 800 331 846 508 q 772 192 781 254 q 763 61 769 178 q 769 6 760 32 q 803 -11 778 -21 q 826 -5 804 -11 q 860 8 847 1 q 898 35 874 14 q 943 89 922 57 q 957 38 957 60 q 944 -12 957 17 q 890 -54 940 -25 q 817 -81 839 -83 q 783 -70 800 -79 q 758 -53 767 -61 q 733 -29 749 -44 q 675 61 686 18 q 669 176 664 101 q 719 431 679 289 q 569 201 614 260 q 388 11 485 89 q 335 -26 358 -11 q 285 -46 311 -40 q 178 -17 232 -56 q 125 335 39 86 q 181 478 150 406 q 260 658 211 550 q 325 800 310 767 q 378 925 357 871 q 407 1050 410 1007 q 399 1081 407 1069 q 378 1093 392 1092 q 351 1093 365 1094 q 318 1083 338 1092 q 285 1069 299 1075 q 254 1053 272 1063 q 231 1040 236 1043 q 203 1026 217 1033 q 236 1138 196 1092 l 238 1139 q 278 1164 253 1157 q 404 1149 350 1181 q 472 1081 447 1122 q 496 992 496 1040 q 493 960 496 976 q 488 930 490 943 q 478 897 485 917 q 468 867 471 876 q 455 835 465 858 q 442 806 444 813 q 428 774 440 800 q 414 746 415 749 q 300 488 360 631 q 203 231 222 303 q 179 103 185 167 q 218 32 174 31 q 232 35 225 33 q 247 40 239 36 q 260 48 254 44 q 274 57 267 51 q 287 67 282 63 q 299 77 292 71 q 311 86 307 83 q 410 179 363 129 q 453 230 431 203 q 492 278 475 257 q 531 334 508 300 q 567 386 554 368 q 603 444 579 404 q 635 498 628 485 q 670 557 643 511 q 703 611 697 603 q 836 854 779 742 q 951 1108 925 1028 q 955 1119 954 1115 q 959 1131 956 1122 q 964 1142 963 1139 q 969 1153 965 1146 q 976 1163 974 1161 q 985 1172 979 1165 q 994 1178 990 1178 q 1005 1181 999 1178 q 1017 1179 1011 1183 q 1042 1165 1029 1175 q 1064 1140 1054 1154 q 1075 1113 1074 1126 m 579 1260 q 566 1269 569 1260 q 568 1285 563 1278 l 658 1385 q 668 1389 663 1389 l 732 1389 q 742 1385 738 1389 l 835 1285 q 837 1269 840 1278 q 824 1260 833 1260 l 779 1260 q 768 1265 772 1260 l 701 1339 l 700 1339 l 632 1265 q 621 1260 628 1260 l 579 1260 z "},"Ü":{"ha":951,"x_min":39,"x_max":1079,"o":"m 1075 1113 q 1064 1054 1078 1096 q 1040 992 1056 1032 q 1013 923 1031 968 q 986 858 994 878 q 800 331 846 508 q 772 192 781 254 q 763 61 769 178 q 769 6 760 32 q 803 -11 778 -21 q 826 -5 804 -11 q 860 8 847 1 q 898 35 874 14 q 943 89 922 57 q 957 38 957 60 q 944 -12 957 17 q 890 -54 940 -25 q 817 -81 839 -83 q 783 -70 800 -79 q 758 -53 767 -61 q 733 -29 749 -44 q 675 61 686 18 q 669 176 664 101 q 719 431 679 289 q 569 201 614 260 q 388 11 485 89 q 285 -46 326 -37 q 178 -17 232 -56 q 125 335 39 86 q 181 478 150 406 q 260 658 211 550 q 325 800 310 767 q 378 925 357 871 q 407 1050 410 1007 q 399 1081 407 1069 q 378 1093 392 1092 q 351 1093 365 1094 q 318 1083 338 1092 q 285 1069 299 1075 q 254 1053 272 1063 q 231 1040 236 1043 q 203 1026 215 1033 q 236 1138 196 1092 l 238 1139 q 278 1164 253 1157 q 404 1149 350 1181 q 472 1081 447 1122 q 496 992 496 1040 q 493 959 496 976 q 488 929 490 942 q 478 897 485 917 q 468 867 471 876 q 455 835 465 858 q 442 806 444 813 q 428 774 440 800 q 414 746 415 749 q 300 488 360 631 q 203 231 222 303 q 179 103 185 167 q 218 32 174 31 q 232 35 225 33 q 247 40 239 36 q 260 48 254 44 q 274 57 267 51 q 287 67 282 63 q 299 77 292 71 q 311 86 307 83 q 410 179 363 129 q 453 230 431 203 q 492 278 475 257 q 531 334 508 300 q 567 386 554 368 q 603 444 579 404 q 635 498 628 485 q 670 557 643 511 q 703 611 697 603 q 836 854 779 742 q 951 1108 925 1028 q 955 1119 954 1115 q 959 1131 956 1122 q 964 1142 963 1139 q 969 1153 965 1146 q 976 1163 974 1161 q 985 1172 979 1165 q 994 1178 990 1178 q 1005 1181 999 1178 q 1017 1179 1011 1183 q 1042 1165 1029 1175 q 1064 1140 1054 1154 q 1075 1113 1074 1126 m 606 1242 q 566 1259 582 1242 q 550 1300 550 1276 q 566 1340 550 1324 q 607 1357 582 1357 q 634 1349 622 1357 q 653 1328 646 1342 q 660 1300 660 1315 q 656 1277 660 1288 q 646 1259 653 1267 q 628 1247 639 1251 q 606 1242 618 1242 m 815 1242 q 776 1258 790 1242 q 761 1300 761 1275 q 765 1322 761 1311 q 776 1340 769 1332 q 794 1352 783 1347 q 815 1357 804 1357 q 855 1340 839 1357 q 871 1300 871 1324 q 856 1258 871 1275 q 815 1242 840 1242 z "},"Ý":{"ha":817,"x_min":86,"x_max":944,"o":"m 938 1206 q 944 1153 944 1196 q 942 1119 944 1136 q 937 1088 940 1101 q 928 1054 933 1074 q 918 1022 922 1035 q 906 990 914 1010 q 896 958 899 969 q 869 883 885 925 l 868 883 l 585 185 q 567 144 583 182 q 739 -43 651 107 q 847 -103 785 -119 q 856 -106 853 -101 q 856 -115 858 -110 q 699 -174 788 -210 q 650 -125 672 -162 q 616 -48 628 -87 q 584 32 604 -8 q 542 89 564 72 q 489 -25 507 14 q 354 -246 414 -179 q 292 -301 324 -282 q 224 -317 260 -319 q 157 -285 188 -315 q 124 -251 133 -261 q 105 -224 114 -240 q 93 -190 96 -207 q 106 -106 86 -160 q 176 11 125 -51 q 235 66 200 40 q 305 108 271 92 q 370 135 339 124 q 419 151 401 147 l 439 157 q 643 607 482 232 q 668 664 653 631 q 697 726 683 697 q 728 791 711 756 q 756 856 744 826 q 629 699 738 835 q 483 538 543 592 q 343 472 404 467 q 281 499 307 475 q 229 564 256 524 q 164 721 169 658 q 172 791 163 751 q 188 851 181 831 q 217 918 196 871 q 232 951 219 925 q 251 993 244 978 q 263 1030 257 1008 q 267 1068 268 1051 q 104 1089 261 1133 q 121 1147 104 1125 q 215 1206 163 1206 q 276 1176 246 1206 q 325 1107 307 1146 q 342 1045 339 1078 q 340 984 344 1013 q 324 922 335 956 q 301 860 313 888 q 275 799 289 833 q 254 738 261 764 q 264 597 225 633 q 305 579 281 581 q 351 585 329 578 q 394 608 374 593 q 464 669 428 632 q 519 731 500 707 q 581 813 539 756 q 631 881 622 869 q 881 1192 726 1008 q 938 1206 918 1235 m 319 -107 q 353 -56 336 -86 q 381 -2 369 -26 q 421 83 393 22 q 395 71 411 79 q 338 35 379 63 q 263 -22 296 8 q 201 -100 231 -53 q 167 -196 172 -147 q 169 -206 167 -201 q 186 -218 172 -211 q 231 -201 200 -225 q 246 -190 239 -196 q 260 -178 253 -185 q 272 -165 267 -171 q 285 -151 278 -160 q 296 -136 292 -142 q 308 -121 300 -131 q 319 -107 315 -111 m 501 1258 q 494 1263 496 1258 q 494 1271 492 1267 l 588 1388 q 593 1390 590 1390 l 690 1390 q 697 1385 696 1390 q 696 1376 699 1381 l 568 1260 q 564 1258 567 1258 l 501 1258 z "},"Þ":{"ha":942,"x_min":90,"x_max":822,"o":"m 806 685 q 733 412 821 535 q 493 242 646 289 q 442 230 472 235 q 404 224 413 225 q 249 232 322 211 q 230 169 244 219 q 207 92 215 118 q 138 -69 196 56 q 101 -40 110 -58 q 92 18 92 -22 q 111 182 92 108 q 228 547 136 271 q 278 705 231 560 q 351 925 326 850 q 422 1113 364 961 q 431 1134 425 1118 q 440 1162 436 1150 q 452 1189 444 1174 q 466 1215 460 1204 q 481 1235 472 1226 q 499 1247 489 1244 q 547 1225 517 1253 q 576 1172 578 1197 q 569 1147 575 1163 q 553 1111 563 1131 q 542 1086 544 1092 q 510 1004 531 1057 q 494 963 501 985 q 704 879 617 951 q 806 685 792 807 m 667 419 q 726 520 711 460 q 733 642 740 581 q 712 724 729 686 q 670 788 694 761 q 613 833 646 814 q 542 864 579 853 q 464 879 506 875 q 386 650 457 860 q 275 317 313 431 q 408 304 326 297 q 483 317 442 308 q 575 354 522 324 q 667 419 628 385 z "},"ß":{"ha":933,"x_min":-167,"x_max":918,"o":"m 632 569 q 676 545 661 554 q 719 519 692 536 q 762 486 746 501 q 794 449 778 471 q 821 404 811 428 q 810 153 871 274 q 707 31 775 83 q 551 -46 639 -22 q 185 -94 385 -93 l 183 -94 q 163 -83 169 -94 q 167 -60 157 -71 q 199 -31 178 -43 q 253 -15 221 -19 q 408 22 317 -8 q 554 85 499 51 q 617 136 590 107 q 658 200 643 165 q 678 271 674 235 q 589 474 688 386 q 449 576 535 524 q 415 597 425 590 q 398 613 406 604 q 390 631 390 622 q 421 664 390 647 q 493 699 443 678 q 569 734 542 719 q 642 784 597 749 q 726 865 688 819 q 766 986 763 910 q 740 1128 769 1063 q 601 1225 694 1224 q 485 1207 524 1226 q 406 1126 446 1188 q 3 43 351 1046 q -49 -17 -11 3 l -99 -44 q -145 -39 -124 -57 q -157 6 -167 -21 q 278 1101 168 954 q 451 1261 369 1224 q 660 1293 533 1299 q 815 1223 744 1290 q 907 1058 886 1156 q 912 964 918 1010 q 885 879 906 918 q 829 807 864 840 q 747 751 794 774 q 635 693 699 728 q 542 643 579 663 q 561 612 539 628 q 632 569 583 596 z "},"à":{"ha":569,"x_min":-17,"x_max":729,"o":"m 686 617 q 691 619 688 618 q 703 624 694 621 q 716 624 711 626 q 725 613 721 621 q 724 585 729 606 q 713 558 721 575 q 691 516 704 540 q 669 476 678 492 q 547 272 614 360 q 426 151 481 185 q 374 130 397 133 q 342 133 350 126 l 333 139 l 265 204 q 229 206 250 219 q 199 189 214 194 q 171 181 183 183 q 144 180 158 178 q 121 184 131 182 q 99 194 111 186 q 80 205 86 201 q 63 219 74 208 q 48 233 51 229 q 35 247 44 236 q 25 257 25 257 q 0 297 10 272 q -13 356 -10 321 q -1 438 -17 390 q 51 538 15 486 q 265 663 163 697 q 302 644 279 658 q 340 617 325 629 l 357 606 q 374 646 361 619 q 385 661 379 657 q 396 664 392 665 l 399 663 l 467 606 q 469 599 469 603 q 468 592 469 594 l 467 588 q 363 313 400 401 q 341 249 346 274 q 339 219 336 225 l 342 215 q 359 206 347 210 q 417 231 371 201 q 520 339 463 261 q 619 486 578 417 q 674 586 660 556 l 686 617 m 331 532 q 337 553 338 540 q 315 589 336 565 q 294 604 307 600 q 263 603 281 608 q 226 585 246 599 q 183 542 207 571 q 135 474 160 514 q 98 398 111 435 q 83 335 85 361 q 82 290 81 310 q 86 261 83 269 l 90 251 q 164 283 126 254 q 228 349 201 313 q 280 430 254 385 q 315 497 306 475 q 331 532 325 518 m 407 690 l 285 801 q 283 812 281 806 q 292 818 285 818 l 382 818 q 390 815 386 818 l 478 704 q 479 693 482 699 q 469 688 476 688 l 414 688 q 407 690 410 688 z "},"á":{"ha":569,"x_min":-17,"x_max":729,"o":"m 686 617 q 691 619 688 618 q 703 624 694 621 q 716 624 711 626 q 725 613 721 621 q 724 585 729 606 q 713 558 721 575 q 691 516 704 540 q 669 476 678 492 q 547 272 614 360 q 426 151 481 185 q 374 130 397 133 q 342 133 350 126 l 333 139 l 265 204 q 229 206 250 219 q 199 189 214 194 q 171 181 183 183 q 144 180 158 178 q 121 184 131 182 q 99 194 111 186 q 80 205 86 201 q 63 219 74 208 q 48 233 51 229 q 35 247 44 236 q 25 257 25 257 q 0 297 10 272 q -13 356 -10 321 q -1 438 -17 390 q 51 538 15 486 q 265 663 163 696 q 302 644 279 658 q 340 617 325 629 l 357 606 q 374 646 361 619 q 385 661 379 657 q 396 664 392 665 l 399 663 l 467 606 q 469 599 469 603 q 468 592 469 594 l 467 588 q 363 313 400 401 q 341 249 346 274 q 339 219 336 225 l 342 215 q 359 206 347 210 q 417 231 371 201 q 520 339 463 261 q 619 486 578 417 q 674 586 660 556 l 686 617 m 331 532 q 337 553 338 540 q 315 589 336 565 q 294 604 307 600 q 263 603 281 608 q 226 585 246 599 q 183 542 207 571 q 135 474 160 514 q 98 398 111 435 q 83 335 85 361 q 82 290 81 310 q 86 261 83 269 l 90 251 q 164 283 126 254 q 228 349 201 313 q 280 430 254 385 q 315 497 306 475 q 331 532 325 518 m 329 700 q 323 705 325 700 q 324 713 321 710 l 417 829 q 422 833 418 833 l 518 833 q 526 828 524 833 q 524 819 528 824 l 397 703 q 392 700 394 700 l 329 700 z "},"â":{"ha":569,"x_min":-17,"x_max":729,"o":"m 686 617 q 691 619 688 618 q 703 624 694 621 q 716 624 711 626 q 725 613 721 621 q 724 585 729 606 q 713 558 721 575 q 691 516 704 540 q 669 476 678 492 q 547 272 614 360 q 426 151 481 185 q 374 130 397 133 q 342 133 350 126 l 333 139 l 265 204 q 229 206 250 219 q 199 189 214 194 q 171 181 183 183 q 144 180 158 178 q 121 184 131 182 q 99 194 111 186 q 80 205 86 201 q 63 219 74 208 q 48 233 51 229 q 35 247 44 236 q 25 257 25 257 q 0 297 10 272 q -13 356 -10 321 q -1 438 -17 390 q 51 538 15 486 q 265 663 163 696 q 302 644 279 658 q 340 617 325 629 l 357 606 q 374 646 361 619 q 385 661 379 657 q 396 664 392 665 l 399 663 l 467 606 q 469 599 469 603 q 468 592 469 594 l 467 588 q 363 313 400 401 q 341 249 346 274 q 339 219 336 225 l 342 215 q 359 206 347 210 q 417 231 371 201 q 520 339 463 261 q 619 486 578 417 q 674 586 660 556 l 686 617 m 331 532 q 337 553 338 540 q 315 589 336 565 q 294 604 307 600 q 263 603 281 608 q 226 585 246 599 q 183 542 207 571 q 135 474 160 514 q 98 398 111 435 q 83 335 85 361 q 82 290 81 310 q 86 261 83 269 l 90 251 q 164 283 126 254 q 228 349 201 313 q 280 430 254 385 q 315 497 306 475 q 331 532 325 518 m 203 689 q 190 698 193 689 q 192 714 186 707 l 282 814 q 293 818 286 818 l 356 818 q 365 814 361 818 l 458 714 q 460 698 464 707 q 447 689 457 689 l 403 689 q 393 694 397 689 l 325 767 l 324 767 l 256 694 q 244 689 251 689 l 203 689 z "}}}
